<svg width="63" height="48" viewBox="0 0 63 48" fill="none" xmlns="http://www.w3.org/2000/svg">
<g clip-path="url(#clip0_3105_24027)">
<path d="M50.8159 34.3764C49.5242 32.4647 47.8788 30.8181 45.9685 29.5254C43.9507 28.1267 41.7399 27.0301 39.4058 26.2701L36.431 25.1705L38.9234 23.1255C41.058 21.6075 42.6729 19.4676 43.5479 16.9976C44.4229 14.5276 44.5154 11.8477 43.8129 9.32312C43.1103 6.79857 41.6469 4.55227 39.622 2.89045C37.5972 1.22864 35.1095 0.232167 32.4981 0.0368904C32.1676 0.0123055 31.8326 1.30222e-05 31.4931 1.30222e-05C28.2864 -0.00459397 25.1983 1.21335 22.8568 3.40614C21.4687 4.69241 20.3845 6.27211 19.6831 8.03038C18.9817 9.78864 18.6806 11.6813 18.8019 13.5706C18.9232 15.4599 19.4637 17.2984 20.3842 18.9524C21.3047 20.6064 22.582 22.0343 24.1231 23.1322L26.6256 25.1772L23.6474 26.2802C21.316 27.0395 19.1066 28.1326 17.0881 29.5254C15.1706 30.8172 13.5173 32.4637 12.2173 34.3764C11.0135 36.1127 10.3514 38.1673 10.3145 40.2802C10.3145 42.1609 10.8706 43.6327 12.0163 44.8228C14.8705 47.7529 20.9306 47.9943 27.4262 47.9943H33.6036C40.9368 48.0244 47.8646 48.0513 50.9901 44.8396C52.1392 43.6628 52.6953 42.1576 52.6953 40.2869C52.6581 38.1766 51.9997 36.1241 50.8025 34.3865L50.8159 34.3764Z" fill="#409EFF"/>
<path d="M15.1921 26.7359C16.7251 25.6719 18.3602 24.7634 20.0731 24.0237C17.6931 21.6231 16.1322 18.531 15.6136 15.1893C15.095 11.8476 15.6451 8.42743 17.1854 5.41743C14.911 5.28766 12.6562 5.90196 10.7614 7.16755C8.86664 8.43315 7.43476 10.2813 6.682 12.433C5.92924 14.5847 5.89647 16.9231 6.58863 19.0951C7.2808 21.2671 8.66032 23.1547 10.5189 24.473C8.71899 25.0628 7.01315 25.9085 5.45369 26.984C3.93223 28.0122 2.62119 29.3219 1.59115 30.8427C0.583962 32.3035 0.0314461 34.0299 0.00324609 35.8044C-0.0225427 36.5732 0.10554 37.3394 0.37996 38.0579C0.654381 38.7764 1.0696 39.4327 1.60119 39.9883C2.90769 41.3293 4.85739 41.9998 7.16889 42.3351C7.04062 41.6429 6.9767 40.9403 6.97794 40.2364C7.0119 37.4686 7.86656 34.7732 9.43349 32.4921C10.9687 30.2234 12.9233 28.2696 15.1921 26.7359ZM61.4422 30.8427C60.4118 29.3231 59.1008 28.0145 57.5797 26.9874C56.0204 25.9106 54.3145 25.0638 52.5145 24.473C54.3679 23.1532 55.7428 21.2665 56.432 19.097C57.1212 16.9275 57.0874 14.5927 56.3357 12.4441C55.584 10.2955 54.1551 8.44944 52.2641 7.18395C50.3732 5.91846 48.1227 5.30203 45.8513 5.42748C47.3916 8.43749 47.9417 11.8577 47.4231 15.1994C46.9045 18.541 45.3436 21.6331 42.9636 24.0338C44.6765 24.7735 46.3116 25.682 47.8446 26.746C50.1127 28.2777 52.0674 30.2292 53.6032 32.4955C55.1701 34.7765 56.0248 37.4719 56.0588 40.2397C56.06 40.9437 55.9961 41.6463 55.8678 42.3384C58.1793 42.0032 60.129 41.3327 61.4355 39.9917C61.9671 39.4361 62.3823 38.7797 62.6567 38.0612C62.9312 37.3427 63.0592 36.5765 63.0334 35.8078C63.0049 34.0317 62.4512 32.304 61.4422 30.8427Z" fill="#8BBDF7"/>
</g>
<defs>
<clipPath id="clip0_3105_24027">
<rect width="63" height="48" fill="white"/>
</clipPath>
</defs>
</svg>
