<svg width="16" height="16" xmlns="http://www.w3.org/2000/svg">
<path d="M2 2.44964V8.64839C2 11.1712 3.20013 13.4053 5.18011 14.4863L7.88008 16L10.76 14.4145C12.74 13.4053 14 11.0992 14 8.50447V2.45014L8.00022 0L2 2.44964ZM13.0994 8.53961C13.0994 10.6959 12.0796 12.6218 10.4219 13.4686L7.87228 14.855L5.51386 13.5453C3.92028 12.6979 2.89984 10.7729 2.89984 8.69311V3.14805L7.99977 1.06863L13.0997 3.14805V8.5391L13.0993 8.53978L13.0994 8.53961Z" />
<path d="M7.25595 9.33513L7.39956 9.37329V13H8.59984V12.2802H9.39969V11.2H8.59984V9.36537L8.75405 9.33279C10.0475 9.05918 11 7.96224 11 6.69987C11 5.21538 9.64951 4 8 4C6.35049 4 5 5.21538 5 6.69987V6.75442C5.0268 7.96854 5.94306 8.98754 7.25615 9.33531L7.25595 9.33513ZM9.79972 6.69987C9.79972 7.59143 8.99007 8.32009 7.9994 8.32009C7.00873 8.32009 6.19908 7.59143 6.19908 6.69987C6.19908 5.80832 7.00873 5.07966 7.9994 5.07966C8.99007 5.07966 9.79972 5.80832 9.79972 6.69987Z" />
</svg>
