<svg width="58" height="58" viewBox="0 0 58 58" fill="none" xmlns="http://www.w3.org/2000/svg">
<circle cx="29" cy="29" r="27" fill="white" stroke="#FAC06A" stroke-width="4"/>
<path d="M42.246 22.5074L31.506 15.6619C30.7667 15.2229 29.9556 15 29.0965 15C28.2375 15 27.4263 15.2229 26.6562 15.6788L15.7622 22.5007C15.3618 22.7506 15.1222 23.193 15.129 23.6624C15.1359 24.1318 15.3892 24.5641 15.8033 24.8039L15.9299 24.8782L15.9676 35.2933L25.7801 41.2776L27.132 42.0004L29.9111 42.382L31.6874 41.3148L41.4212 35.7898L42.0783 34.037C42.0783 34.037 41.7669 30.6464 41.7669 30.3796V25.7326C41.7669 25.5637 41.7292 25.3307 41.6813 25.1112L42.1981 24.8073C42.6054 24.5675 42.8621 24.1386 42.8724 23.6692C42.8826 23.2031 42.6465 22.7607 42.246 22.5074ZM27.3887 16.8203C27.861 16.54 28.4326 16.3542 29.0931 16.3542C29.7571 16.3542 30.3218 16.5434 30.7976 16.8203L41.4999 23.6421L31.085 29.721C30.4211 30.0925 29.7605 30.2816 29.0007 30.2816C28.2409 30.2816 27.5803 30.0925 26.9164 29.721L16.4947 23.6455L27.3887 16.8203Z" fill="#FAC06A"/>
<path d="M42.9677 26.2719C42.9711 25.9072 42.4235 26.5556 42.4235 26.9034L42.3379 28.2881C42.3379 28.5177 42.2113 28.7305 41.9991 28.8487L31.1769 34.9445C30.578 35.2687 29.979 35.4308 29.2945 35.4308C28.61 35.4308 28.0111 35.2687 27.4121 34.9445L17.1444 29.1898L16.0081 28.5549C15.7994 28.4367 15.6693 28.2239 15.6693 27.9943L15.5769 26.5759C15.5769 26.2246 16.4051 25.9443 16.0355 25.9443C15.6659 25.9443 15.861 26.2787 15.861 26.6265L15.3715 28.6123C15.3715 28.7508 15.1662 29.4464 15.2038 29.4667L26.7926 35.9644C27.5901 36.3966 28.4081 36.6026 29.2877 36.6026C30.1673 36.6026 30.9853 36.3933 31.7998 35.9542L42.8513 29.7301C42.8787 29.7234 42.9642 26.7076 42.9677 26.2719Z" fill="white"/>
<path d="M42.8426 35.4366C42.846 35.4164 42.8563 35.3961 42.8563 35.3725L43 23.37C43 22.9682 42.668 22.6406 42.2607 22.6406C41.8534 22.6406 41.5215 22.9682 41.5215 23.37L41.3777 34.67C41.3777 34.9199 41.2442 35.1529 41.0252 35.2813L31.0724 41.0934C30.4084 41.4682 29.7478 41.654 28.988 41.654C28.2316 41.654 27.5677 41.4649 26.9037 41.0934L16.9782 35.2982C16.7592 35.1698 16.6223 34.9368 16.6223 34.6869L16.4785 23.3261C16.4785 22.9243 16.1466 22.5967 15.7393 22.5967C15.332 22.5967 15 22.9243 15 23.3261L15.1437 35.3725C15.1437 35.5312 15.2088 35.673 15.2909 35.7912C15.308 35.8149 15.3217 35.8419 15.3388 35.8655C15.3594 35.8858 15.3799 35.9027 15.4004 35.9196C15.4347 35.95 15.4655 35.9905 15.51 36.0141L26.2157 42.2652C27.0953 42.7617 28.0023 43.0015 28.9778 43.0015C29.9532 43.0015 30.8602 42.7617 31.7569 42.2551L42.3908 36.0445C42.4011 36.0411 42.4079 36.0344 42.4182 36.0276L42.5106 35.9702C42.5243 35.9635 42.5311 35.95 42.5448 35.9398C42.5859 35.9094 42.6269 35.8757 42.6577 35.8385C42.6988 35.7946 42.733 35.7439 42.7604 35.6899C42.7707 35.6697 42.7844 35.6494 42.7912 35.6224C42.8289 35.5683 42.8391 35.5042 42.8426 35.4366Z" fill="#FAC06A"/>
<path d="M15.6484 29.3635C15.6484 29.691 15.9154 29.9545 16.2474 29.9545C16.5794 29.9545 16.8463 29.691 16.8463 29.3635C16.8463 29.0359 16.5794 28.7725 16.2474 28.7725C15.9154 28.7725 15.6484 29.0359 15.6484 29.3635ZM41.0986 29.6877C41.0986 30.0153 41.3656 30.2787 41.6976 30.2787C42.0296 30.2787 42.2965 30.0153 42.2965 29.6877C42.2965 29.3601 42.0296 29.0967 41.6976 29.0967C41.3656 29.0967 41.0986 29.3635 41.0986 29.6877Z" fill="white"/>
<path d="M16.5726 30.2271L15.9258 29.8657L16.5692 29.8252L16.6479 30.1224L16.5726 30.2271ZM41.4239 30.531L42.0194 30.1832L41.7251 29.886L41.222 30.0886L41.2356 30.4162L41.4239 30.531Z" fill="white"/>
</svg>
