<svg width="16" height="16" viewBox="0 0 16 16" fill="none" xmlns="http://www.w3.org/2000/svg">
<path d="M9.7284 1C9.95205 1 10.1363 1.17012 10.1584 1.38796L10.1605 1.43222V2.07156C11.3154 2.49309 12.3222 3.24284 13.0571 4.22873C13.7919 5.21462 14.223 6.39373 14.2972 7.62126L14.3028 7.73156L14.7611 7.96115C14.8928 8.02685 14.981 8.15479 14.9972 8.29898L15 8.34773V9.73083C15 9.90476 14.896 10.0617 14.7356 10.1292C14.338 10.2965 13.9405 10.449 13.543 10.587L13.5948 10.5994C13.2908 11.851 12.5762 12.9645 11.5652 13.7622C10.5542 14.5599 9.30519 14.9957 8.01756 15C6.72994 15.0043 5.47801 14.5768 4.46174 13.7859C3.44547 12.995 2.72347 11.8863 2.41106 10.6368L2.39378 10.5648C2.01295 10.4313 1.63632 10.286 1.26444 10.1292C1.19342 10.0993 1.13168 10.051 1.08561 9.9892C1.03954 9.92743 1.01082 9.85447 1.00242 9.77786L1 9.73083V8.34773C1 8.20043 1.07501 8.0642 1.19669 7.98536L1.23886 7.96115L1.69689 7.73156L1.70277 7.62091C1.77702 6.39339 2.20806 5.21427 2.94294 4.22838C3.67783 3.24249 4.68456 2.49274 5.83951 2.07121V1.43222C5.83951 1.2085 6.00958 1.0242 6.22736 1.00207L6.27161 1H9.7284ZM3.38622 10.8816L3.41941 10.9718C3.77134 11.9019 4.39793 12.7028 5.21589 13.2681C6.03385 13.8333 7.00443 14.1362 7.99862 14.1364C10.0976 14.1364 11.9286 12.8034 12.6103 10.8826C11.0752 11.3249 9.53827 11.5462 8 11.5462C6.46069 11.5462 4.92277 11.3245 3.38622 10.8816ZM9.2963 1.86444H6.7037V7.31041C6.70375 7.41741 6.66412 7.52063 6.59247 7.60008C6.52083 7.67954 6.42226 7.72959 6.31585 7.74055L6.27161 7.74262C6.16463 7.74267 6.06144 7.70303 5.98201 7.63136C5.90257 7.5597 5.85253 7.46111 5.84158 7.35466L5.83951 7.31041V3.00135C4.86414 3.42357 4.03354 4.12197 3.45004 5.01049C2.86653 5.89902 2.55561 6.93887 2.55556 8.00196C2.55556 8.14926 2.48054 8.28549 2.35886 8.36433L2.31669 8.38853L1.8642 8.61502V9.44108L2.07472 9.5251C3.97388 10.2657 5.86924 10.6503 7.76321 10.68L8 10.6817C9.97279 10.6817 11.947 10.2969 13.9253 9.5251L14.1358 9.44108V8.61502L13.6833 8.38853C13.6189 8.35634 13.5636 8.30858 13.5224 8.24959C13.4812 8.19059 13.4553 8.12223 13.4472 8.05071L13.4444 8.00196C13.4444 5.79833 12.124 3.85023 10.1608 3.00135L10.1605 7.31041C10.161 7.42155 10.1187 7.52862 10.0424 7.60938C9.96602 7.69013 9.86152 7.73837 9.75055 7.74407C9.63958 7.74976 9.53069 7.71248 9.44648 7.63997C9.36228 7.56745 9.30923 7.46528 9.29837 7.35466L9.2963 7.31041V1.86444Z" fill="#409EFF"/>
</svg>
