<svg width="16" height="16" xmlns="http://www.w3.org/2000/svg">
<path d="M14.8215 8.91613C14.7715 8.11613 14.2718 7.41935 13.5722 7.10968L12.9475 4.03871C12.7226 2.90323 11.6232 2 10.4988 2H5.5014C4.377 2 3.27758 2.92903 3.05269 4.03871L2.40304 7.10968C1.7034 7.44516 1.20367 8.14193 1.15369 8.91613L1.00377 10.8774C0.9538 11.729 1.40356 12.5032 2.15317 12.8129C2.32808 13.4839 2.92776 14 3.62739 14C4.27705 14 4.85175 13.5871 5.05164 12.9677H10.9485C11.1734 13.5871 11.7231 14 12.3728 14C13.0724 14 13.6721 13.5097 13.847 12.8129C14.5716 12.5032 15.0464 11.729 14.9964 10.8774L14.8215 8.91613ZM13.3473 12.0387C13.1724 12.0903 13.0224 12.2452 13.0224 12.4516C12.9975 12.8129 12.7226 13.0968 12.3478 13.0968C11.998 13.0968 11.7231 12.8129 11.6981 12.4774C11.6732 12.2452 11.4982 12.0645 11.2734 12.0645H4.70182C4.47694 12.0645 4.30204 12.2452 4.27705 12.4774C4.25206 12.8387 3.95222 13.0968 3.62739 13.0968C3.27758 13.0968 2.97773 12.8129 2.95275 12.4516C2.95275 12.2452 2.80283 12.0903 2.62792 12.0387C2.12818 11.9097 1.82834 11.471 1.85333 10.9548L2.00325 8.96774C2.02823 8.45161 2.42802 7.9871 2.92776 7.83226C3.10267 7.78064 3.20261 7.62581 3.2276 7.47097V7.39355V7.36774L3.87726 4.21935C4.02718 3.49677 4.7518 2.87742 5.47642 2.87742H10.4738C11.1984 2.87742 11.923 3.49677 12.0729 4.21935L12.7476 7.36774V7.49677C12.7726 7.67742 12.8975 7.80645 13.0474 7.85806C13.5472 8.0129 13.922 8.47742 13.9719 8.99355L14.1219 10.9806C14.1718 11.471 13.847 11.9355 13.3473 12.0387ZM4.70182 7.52258H11.2734C11.4233 7.52258 11.5732 7.47097 11.6482 7.36774C11.7481 7.26452 11.7731 7.10968 11.7481 6.95484V6.92903L11.2234 4.60645C11.1484 4.24516 10.7986 3.93548 10.4488 3.93548H5.52639C5.17658 3.93548 4.82676 4.24516 4.7518 4.60645L4.22707 6.92903V6.95484C4.20209 7.10968 4.25206 7.26452 4.32702 7.36774C4.40198 7.44516 4.5519 7.52258 4.70182 7.52258ZM5.57636 4.7871H10.4238L10.8236 6.61936H5.15159L5.57636 4.7871Z" />
<path d="M3.19922 10.1C3.19922 10.228 3.22444 10.3548 3.27344 10.4731C3.32243 10.5914 3.39425 10.6989 3.48479 10.7894C3.57533 10.88 3.68281 10.9518 3.8011 11.0008C3.91939 11.0498 4.04618 11.075 4.17422 11.075C4.30226 11.075 4.42904 11.0498 4.54733 11.0008C4.66563 10.9518 4.77311 10.88 4.86365 10.7894C4.95418 10.6989 5.026 10.5914 5.075 10.4731C5.124 10.3548 5.14922 10.228 5.14922 10.1C5.14922 9.84141 5.0465 9.59342 4.86365 9.41057C4.6808 9.22772 4.4328 9.125 4.17422 9.125C3.91563 9.125 3.66764 9.22772 3.48479 9.41057C3.30194 9.59342 3.19922 9.84141 3.19922 10.1Z" />
<path d="M10.8242 10.1254C10.8242 10.2534 10.8494 10.3802 10.8984 10.4985C10.9474 10.6168 11.0193 10.7243 11.1098 10.8148C11.2003 10.9054 11.3078 10.9772 11.4261 11.0262C11.5444 11.0752 11.6712 11.1004 11.7992 11.1004C11.9273 11.1004 12.054 11.0752 12.1723 11.0262C12.2906 10.9772 12.3981 10.9054 12.4886 10.8148C12.5792 10.7243 12.651 10.6168 12.7 10.4985C12.749 10.3802 12.7742 10.2534 12.7742 10.1254C12.7742 9.99735 12.749 9.87057 12.7 9.75227C12.651 9.63398 12.5792 9.5265 12.4886 9.43596C12.3981 9.34542 12.2906 9.27361 12.1723 9.22461C12.054 9.17561 11.9273 9.15039 11.7992 9.15039C11.6712 9.15039 11.5444 9.17561 11.4261 9.22461C11.3078 9.27361 11.2003 9.34542 11.1098 9.43596C11.0193 9.5265 10.9474 9.63398 10.8984 9.75227C10.8494 9.87057 10.8242 9.99735 10.8242 10.1254Z"/>
</svg>
