<svg width="14" height="14" viewBox="0 0 14 14" fill="none" xmlns="http://www.w3.org/2000/svg">
<path d="M7 0.49C10.591 0.49 13.51 3.409 13.51 7C13.51 10.591 10.591 13.51 7 13.51C3.409 13.51 0.49 10.591 0.49 7C0.49 3.409 3.409 0.49 7 0.49ZM7 0C3.136 0 0 3.136 0 7C0 10.864 3.136 14 7 14C10.864 14 14 10.864 14 7C14 3.136 10.864 0 7 0Z" fill="#999999"/>
<path d="M2.7168 6.99982C2.7168 8.13601 3.16815 9.22566 3.97155 10.0291C4.77496 10.8325 5.86461 11.2838 7.0008 11.2838C8.13698 11.2838 9.22664 10.8325 10.03 10.0291C10.8334 9.22566 11.2848 8.13601 11.2848 6.99982C11.2848 6.43724 11.174 5.88016 10.9587 5.3604C10.7434 4.84065 10.4278 4.36838 10.03 3.97058C9.63224 3.57277 9.15997 3.25721 8.64021 3.04192C8.12045 2.82663 7.56338 2.71582 7.0008 2.71582C6.43821 2.71582 5.88114 2.82663 5.36138 3.04192C4.84162 3.25721 4.36936 3.57277 3.97155 3.97058C3.57375 4.36838 3.25819 4.84065 3.0429 5.3604C2.82761 5.88016 2.7168 6.43724 2.7168 6.99982Z" fill="#999999"/>
<path d="M4.18555 6.99955C4.18555 7.36909 4.25833 7.73501 4.39975 8.07642C4.54117 8.41783 4.74844 8.72804 5.00975 8.98935C5.27105 9.25065 5.58127 9.45793 5.92268 9.59934C6.26409 9.74076 6.63001 9.81355 6.99955 9.81355C7.36909 9.81355 7.73501 9.74076 8.07642 9.59934C8.41783 9.45793 8.72804 9.25065 8.98935 8.98935C9.25065 8.72804 9.45793 8.41783 9.59934 8.07642C9.74076 7.73501 9.81355 7.36909 9.81355 6.99955C9.81355 6.25323 9.51707 5.53748 8.98935 5.00975C8.46162 4.48202 7.74587 4.18555 6.99955 4.18555C6.25323 4.18555 5.53748 4.48202 5.00975 5.00975C4.48202 5.53748 4.18555 6.25323 4.18555 6.99955Z" fill="white"/>
</svg>
