<svg width="32" height="32" viewBox="0 0 32 32" fill="none" xmlns="http://www.w3.org/2000/svg">
<path d="M16 8C14.8133 8 13.6533 8.35189 12.6666 9.01118C11.6799 9.67047 10.9109 10.6075 10.4567 11.7039C10.0026 12.8003 9.88378 14.0067 10.1153 15.1705C10.3468 16.3344 10.9182 17.4035 11.7574 18.2426C12.5965 19.0818 13.6656 19.6532 14.8295 19.8847C15.9933 20.1162 17.1997 19.9974 18.2961 19.5433C19.3925 19.0891 20.3295 18.3201 20.9888 17.3334C21.6481 16.3467 22 15.1867 22 14C22 13.2121 21.8448 12.4319 21.5433 11.7039C21.2417 10.9759 20.7998 10.3145 20.2426 9.75736C19.6855 9.20021 19.0241 8.75825 18.2961 8.45672C17.5681 8.15519 16.7879 8 16 8ZM16 17.6C15.288 17.6 14.592 17.3889 13.9999 16.9933C13.4079 16.5977 12.9465 16.0355 12.674 15.3777C12.4016 14.7198 12.3303 13.996 12.4692 13.2977C12.6081 12.5993 12.9509 11.9579 13.4544 11.4544C13.9579 10.9509 14.5993 10.6081 15.2977 10.4692C15.996 10.3303 16.7198 10.4016 17.3777 10.674C18.0355 10.9465 18.5977 11.4079 18.9933 11.9999C19.3889 12.592 19.6 13.288 19.6 14C19.6 14.9548 19.2207 15.8705 18.5456 16.5456C17.8705 17.2207 16.9548 17.6 16 17.6Z" fill="white"/>
<path d="M29.8015 24.6942L26.461 18.9729L28.1866 17.2693L27.3097 14.0429L28.1866 10.8165L25.7953 8.45479L24.9225 5.2264L21.6565 4.36166L19.2672 2L16.0032 2.86674L12.7391 2L10.3479 4.36166L7.08387 5.2264L6.20903 8.45479L3.81981 10.8165L4.69465 14.0429L3.81981 17.2693L5.51921 18.9491L2.20086 24.6305C2.07435 24.8401 2.00522 25.0786 2.00028 25.3226C1.99535 25.5666 2.05477 25.8077 2.17271 26.0221C2.28054 26.214 2.43736 26.3746 2.62755 26.488C2.81774 26.6014 3.03466 26.6635 3.2567 26.6682L6.40411 26.7497L8.0492 29.4036C8.16324 29.5876 8.3236 29.7393 8.51465 29.8438C8.70569 29.9484 8.92089 30.0021 9.13923 29.9999H9.15733C9.40214 29.9921 9.64079 29.9222 9.85035 29.7968C10.0599 29.6715 10.2333 29.495 10.3539 29.2843L12.4133 25.7597L12.7391 26.0817L16.0032 25.219L19.2672 26.0817L19.7338 25.6205L21.8435 29.2346C21.9632 29.4484 22.1377 29.6273 22.3495 29.7533C22.5613 29.8792 22.803 29.9479 23.0502 29.9522C23.2691 29.9533 23.4846 29.8977 23.6751 29.791C23.8656 29.6843 24.0246 29.5302 24.1362 29.3439L25.6908 26.7596L28.7316 26.7218C28.9528 26.7213 29.17 26.6627 29.3608 26.552C29.5516 26.4412 29.7093 26.2824 29.8176 26.0917C29.9398 25.878 30.0027 25.6362 29.9999 25.3908C29.9971 25.1453 29.9286 24.905 29.8015 24.6942ZM9.1513 27.3719L7.5424 24.7876L4.47544 24.7101L6.59516 21.0761L7.07984 22.8653L10.3439 23.732L10.9472 24.3165L9.1513 27.3719ZM18.6659 23.8672L16.0032 23.1635L13.3405 23.8672L11.3897 21.9409L8.72695 21.2352L8.01099 18.6032L6.06423 16.6749L6.77616 14.0429L6.06423 11.4089L8.01099 9.48454L8.72695 6.84855L11.3897 6.14483L13.3405 4.21654L16.0032 4.92424L18.6659 4.21654L20.6147 6.14483L23.2794 6.84855L23.9934 9.48454L25.9422 11.4089L25.2282 14.0429L25.9422 16.6749L23.9934 18.6032L23.2794 21.2352L20.6147 21.9409L18.6659 23.8672ZM24.5505 24.7856L23.0361 27.3023L21.206 24.1693L21.6565 23.7241L24.9225 22.8573L25.3931 21.1179L27.5128 24.7458L24.5505 24.7856Z" fill="white"/>
</svg>
