<svg width="16" height="16" xmlns="http://www.w3.org/2000/svg">
<path d="M3.65376 4.66275H2.23819C2.10703 4.66275 2 4.51384 2 4.33138C2 4.14891 2.10703 4 2.23819 4H3.65376C3.78492 4 3.89196 4.14891 3.89196 4.33138C3.89196 4.51384 3.78492 4.66275 3.65376 4.66275ZM3.65376 6.83138H2.23819C2.10703 6.83138 2 6.68247 2 6.5C2 6.31753 2.10703 6.16862 2.23819 6.16862H3.65376C3.78492 6.16862 3.89196 6.31753 3.89196 6.5C3.89196 6.68247 3.78492 6.83138 3.65376 6.83138ZM7.76179 5.99245H6.34622C6.21506 5.99245 6.10803 5.84354 6.10803 5.66107C6.10803 5.47861 6.21506 5.3297 6.34622 5.3297H7.76179C7.89295 5.3297 7.99998 5.47861 7.99998 5.66107C8.00149 5.84144 7.89295 5.99245 7.76179 5.99245ZM7.76179 8.09396H6.34622C6.21506 8.09396 6.10803 7.94505 6.10803 7.76258C6.10803 7.58012 6.21506 7.43121 6.34622 7.43121H7.76179C7.89295 7.43121 7.99998 7.58012 7.99998 7.76258C8.00149 7.94505 7.89295 8.09396 7.76179 8.09396ZM3.65376 9H2.23819C2.10703 9 2 8.85109 2 8.66862C2 8.48616 2.10703 8.33725 2.23819 8.33725H3.65376C3.78492 8.33725 3.89196 8.48616 3.89196 8.66862C3.89196 8.85109 3.78492 9 3.65376 9Z" />
<path d="M3.69445 1.06224H2.07872C1.48519 1.06224 1.00157 1.58189 1.00157 2.21964V10.065C1.00157 10.2253 1.12247 10.3552 1.27164 10.3552C1.42081 10.3552 1.54172 10.2253 1.54172 10.065V2.21964C1.54172 1.90077 1.78353 1.64094 2.08029 1.64094H3.69602C3.99278 1.64094 4.23459 1.90077 4.23459 2.21964V13.8426C4.23459 14.1615 3.99278 14.4213 3.69602 14.4213H2.07872C1.78196 14.4213 1.54015 14.1615 1.54015 13.8426V12.3781H1.53858C1.53544 12.2212 1.41767 12.0964 1.27007 12.0964C1.12247 12.0964 1.00628 12.2229 1.00157 12.3781H1V13.8426C1 14.4803 1.48362 15 2.07715 15H3.69288C4.28641 15 4.77003 14.4803 4.77003 13.8426V2.21964C4.7716 1.5802 4.28798 1.06224 3.69445 1.06224ZM7.96537 1.06224H6.34807C5.75454 1.06224 5.27092 1.58189 5.27092 2.21964V10.065C5.27092 10.2253 5.39182 10.3552 5.54099 10.3552C5.69016 10.3552 5.81107 10.2253 5.81107 10.065V2.21964C5.81107 1.90077 6.05288 1.64094 6.34964 1.64094H7.96537C8.26213 1.64094 8.50394 1.90077 8.50394 2.21964V13.8426C8.50394 14.1615 8.26213 14.4213 7.96537 14.4213H6.34807C6.0513 14.4213 5.80949 14.1615 5.80949 13.8426V12.3781H5.80793C5.80478 12.2212 5.68702 12.0964 5.53942 12.0964C5.39182 12.0964 5.27563 12.2229 5.27092 12.3781V13.8426C5.27092 14.4803 5.75454 15 6.34807 15H7.9638C8.55733 15 9.04095 14.4803 9.04095 13.8426V2.21964C9.04252 1.5802 8.5589 1.06224 7.96537 1.06224ZM14.9873 13.1947L13.9478 5.86226H13.9462C13.9462 5.85719 13.9478 5.85382 13.9462 5.85044C13.9242 5.69185 13.7861 5.58387 13.64 5.60749C13.4924 5.63111 13.3919 5.77958 13.4139 5.93649V5.93818H13.4124L14.4534 13.2808C14.4754 13.4326 14.4393 13.5845 14.3545 13.711C14.2697 13.8375 14.1441 13.9185 14.0028 13.9405L12.4059 14.2037C12.2646 14.2273 12.1232 14.1885 12.0055 14.0974C11.8893 14.0046 11.8123 13.8713 11.7919 13.7194L10.2013 2.50309C10.1793 2.35124 10.2155 2.1994 10.3002 2.07286C10.3866 1.94801 10.5106 1.86534 10.652 1.8434L12.2488 1.58189C12.2771 1.57683 12.3038 1.57514 12.3305 1.57514C12.5927 1.57514 12.822 1.78098 12.8628 2.0678L13.0873 3.65037H13.0889V3.65712C13.1109 3.81571 13.2491 3.92369 13.3951 3.90007C13.5427 3.87645 13.6432 3.72798 13.6212 3.57107C13.6212 3.56938 13.6196 3.5677 13.6196 3.56601L13.3951 1.98344C13.3056 1.35243 12.7545 0.917142 12.1672 1.01331L10.5703 1.27482C10.2861 1.32206 10.0364 1.48403 9.8653 1.73374C9.69415 1.98344 9.62349 2.28882 9.66745 2.5942L11.2581 13.8089C11.302 14.1142 11.4528 14.3825 11.6852 14.5664C11.8736 14.7149 12.095 14.7925 12.3226 14.7925C12.3776 14.7925 12.431 14.7874 12.4859 14.779L14.0828 14.5175C14.367 14.4702 14.6167 14.3083 14.7878 14.0586C14.9606 13.8055 15.0312 13.5001 14.9873 13.1947Z"/>

</svg>
