<svg width="48" height="48" viewBox="0 0 48 48" fill="none" xmlns="http://www.w3.org/2000/svg">
<path d="M34.182 31.6368C34.3539 31.8028 34.491 32.0015 34.5854 32.2211C34.6797 32.4407 34.7294 32.6769 34.7315 32.9159C34.7335 33.1549 34.688 33.3919 34.5975 33.6131C34.507 33.8343 34.3733 34.0353 34.2043 34.2043C34.0353 34.3733 33.8343 34.507 33.6131 34.5975C33.3919 34.688 33.1549 34.7335 32.9159 34.7315C32.6769 34.7294 32.4407 34.6797 32.2211 34.5854C32.0015 34.491 31.8028 34.3539 31.6368 34.182L24 26.5452L16.362 34.182C16.1953 34.35 15.9971 34.4833 15.7787 34.5742C15.5603 34.6652 15.326 34.712 15.0894 34.712C14.8528 34.712 14.6185 34.6652 14.4001 34.5742C14.1817 34.4833 13.9835 34.35 13.8168 34.182C13.4794 33.8445 13.2898 33.3867 13.2898 32.9094C13.2898 32.4321 13.4794 31.9744 13.8168 31.6368L21.4548 24L13.8168 16.362C13.6449 16.196 13.5078 15.9973 13.4134 15.7777C13.3191 15.5581 13.2694 15.3219 13.2673 15.0829C13.2653 14.8439 13.3108 14.6069 13.4013 14.3857C13.4918 14.1645 13.6255 13.9635 13.7945 13.7945C13.9635 13.6255 14.1645 13.4918 14.3857 13.4013C14.6069 13.3108 14.8439 13.2653 15.0829 13.2673C15.3219 13.2694 15.5581 13.3191 15.7777 13.4134C15.9973 13.5078 16.196 13.6449 16.362 13.8168L24 21.4548L31.6368 13.8168C31.8028 13.6449 32.0015 13.5078 32.2211 13.4134C32.4407 13.3191 32.6769 13.2694 32.9159 13.2673C33.1549 13.2653 33.3919 13.3108 33.6131 13.4013C33.8343 13.4918 34.0353 13.6255 34.2043 13.7945C34.3733 13.9635 34.507 14.1645 34.5975 14.3857C34.688 14.6069 34.7335 14.8439 34.7315 15.0829C34.7294 15.3219 34.6797 15.5581 34.5854 15.7777C34.491 15.9973 34.3539 16.196 34.182 16.362L26.5452 24L34.182 31.6368ZM43.2 0H4.8C2.1588 0 0 2.16 0 4.8V43.2C0 45.84 2.1588 48 4.8 48H43.2C45.84 48 48 45.84 48 43.2V4.8C48 2.16 45.84 0 43.2 0Z" fill="#FF6161"/>
</svg>
