<svg width="16" height="16" viewBox="0 0 16 16" fill="none" xmlns="http://www.w3.org/2000/svg">
<g clip-path="url(#clip0_3105_24038)">
<mask id="mask0_3105_24038" style="mask-type:luminance" maskUnits="userSpaceOnUse" x="0" y="0" width="16" height="16">
<path d="M16 0H0V16H16V0Z" fill="white"/>
</mask>
<g mask="url(#mask0_3105_24038)">
<path fill-rule="evenodd" clip-rule="evenodd" d="M2 3.5V11.5C2.01038 11.7813 2.10938 12.0157 2.297 12.203C2.48462 12.3903 2.71899 12.4893 3 12.5H13C13.2814 12.4897 13.5156 12.3907 13.703 12.203C13.8904 12.0153 13.9894 11.781 14 11.5V3.5H2ZM2 2.5H14C14.2814 2.51031 14.5156 2.60931 14.703 2.797C14.8904 2.98468 14.9894 3.21899 15 3.5V11.5C14.9896 12.0627 14.7943 12.534 14.4139 12.914C14.0337 13.294 13.5624 13.4893 13 13.5H3C2.43738 13.4897 1.96594 13.2943 1.58606 12.914C1.20605 12.5337 1.01062 12.0623 1 11.5V3.5C1.01038 3.21869 1.10938 2.98431 1.297 2.797C1.48462 2.60968 1.71899 2.51068 2 2.5ZM14.125 3.5L10.2655 7.922C9.97388 8.245 9.63269 8.495 9.24194 8.672C8.85132 8.849 8.43738 8.9375 8 8.9375C7.56262 8.9375 7.14868 8.849 6.75806 8.672C6.36731 8.495 6.02612 8.245 5.7345 7.922L1.875 3.5H14.125ZM3.203 3.5L6.5 7.2655C6.68762 7.48419 6.91162 7.65082 7.172 7.7655C7.43237 7.88019 7.70837 7.9375 8 7.9375C8.29163 7.9375 8.56763 7.88019 8.828 7.7655C9.08838 7.65082 9.31238 7.48419 9.5 7.2655L12.797 3.5H3.203Z" fill="#409EFF"/>
</g>
</g>
<defs>
<clipPath id="clip0_3105_24038">
<rect width="16" height="16" fill="white"/>
</clipPath>
</defs>
</svg>
