<svg width="16" height="16" viewBox="0 0 16 16" fill="none" xmlns="http://www.w3.org/2000/svg">
<path d="M14.1247 2H6.24997C6.24997 1.44787 5.85828 1 5.3749 1H1.87507C1.39192 1 1 1.44761 1 2V4.99973C1 5.55239 1.39169 6 1.87507 6H14.1249C14.6081 6 15 5.55239 15 4.99973V3C14.9998 2.44761 14.6081 2 14.1247 2Z" fill="#CCA352"/>
<path d="M13.143 3H2.85722C2.38393 3 2 3.44757 2 3.99991V4.99982C2 5.55243 2.3837 6 2.85722 6H13.1428C13.6161 6 14 5.55243 14 4.99982V3.99991C14 3.44783 13.6163 3 13.143 3Z" fill="white"/>
<path d="M14.1247 4H1.87507C1.39192 4 1 4.41032 1 4.91671V14.0833C1 14.5889 1.39169 15 1.87507 15H14.1249C14.6081 15 15 14.5892 15 14.0833V4.91646C14.9998 4.41032 14.6081 4 14.1247 4Z" fill="#FAC06A"/>
</svg>
