<svg width="12" height="14" viewBox="0 0 12 14" fill="none" xmlns="http://www.w3.org/2000/svg">
<path d="M7.94739 0H1.09028C0.486855 0 0 0.504252 0 1.11356V12.8864C0 13.5028 0.493712 14 1.09028 14H10.9028C11.5062 14 11.9931 13.4957 11.9931 12.8864V4.44022L7.94739 0ZM2.66056 5.98799C2.66056 5.72186 2.83199 5.54677 3.09256 5.54677H6.95311C7.21368 5.54677 7.38511 5.72186 7.38511 5.98799C7.38511 6.33817 7.21368 6.51326 6.95311 6.51326H3.0857C2.82513 6.51326 2.6537 6.33817 2.6537 6.07204V5.98799H2.66056ZM8.83195 11.2406H3.0857C2.82513 11.2406 2.6537 11.0655 2.6537 10.7994V10.7154C2.6537 10.4492 2.82513 10.2741 3.0857 10.2741H8.83195C9.09252 10.2741 9.26395 10.4492 9.26395 10.7154C9.25709 11.0655 9.08567 11.2406 8.83195 11.2406ZM8.83195 8.87344H3.0857C2.82513 8.87344 2.6537 8.69835 2.6537 8.43222V8.34117C2.6537 8.16608 2.91427 7.991 3.16798 7.89995H8.91424C9.17481 7.89995 9.34624 8.07504 9.34624 8.34117C9.34624 8.69835 9.17481 8.87344 8.83195 8.87344Z" fill="#409EFF"/>
<path d="M7.94727 0V3.1936C7.94727 3.56478 8.18041 4.46123 9.25697 4.46123H11.9998L7.94727 0Z" fill="#AAC1FF"/>
</svg>
