<svg width="16" height="16" viewBox="0 0 16 16" fill="none" xmlns="http://www.w3.org/2000/svg">
<path d="M13.1031 15H2.89693C1.85023 15 1 14.1225 1 13.0422V4.95776C1 3.87749 1.85023 3 2.89693 3H13.1031C14.1498 3 15 3.87749 15 4.95776V13.0422C15 14.1208 14.1498 15 13.1031 15ZM2.89693 4.11872C2.4481 4.11872 2.08396 4.49454 2.08396 4.95776V13.0422C2.08396 13.5055 2.4481 13.8813 2.89693 13.8813H13.1031C13.5519 13.8813 13.916 13.5055 13.916 13.0422V4.95776C13.916 4.49454 13.5519 4.11872 13.1031 4.11872H2.89693Z" fill="#409EFF"/>
<path d="M11.4084 4.42595C11.1086 4.42595 10.8664 4.18732 10.8664 3.89195V3.0025C10.8664 2.48686 10.4413 2.068 9.91802 2.068H6.07699C5.55367 2.068 5.12858 2.48686 5.12858 3.0025V3.89195C5.12858 4.18732 4.8864 4.42595 4.58664 4.42595C4.28687 4.42595 4.04469 4.18732 4.04469 3.89195V3.0025C4.04469 1.89779 4.95584 1 6.07699 1H9.91802C11.0392 1 11.9503 1.89779 11.9503 3.0025V3.89195C11.9503 4.18732 11.7081 4.42595 11.4084 4.42595ZM7.68758 9C6.78151 9 5.8873 8.92324 5.0185 8.77138C2.67628 8.36087 1.31295 7.54318 1.25706 7.5098C1.00303 7.35461 0.923429 7.02587 1.08093 6.77555C1.23843 6.52524 1.57207 6.44681 1.82611 6.60033C1.83627 6.60701 2.15466 6.79558 2.72878 7.02587C3.26395 7.24113 4.13784 7.5365 5.26407 7.73008C6.52748 7.94535 7.84508 7.9904 9.17962 7.86024C10.8512 7.69837 12.5566 7.26116 14.2485 6.56362C14.5245 6.45015 14.8429 6.57864 14.9581 6.85065C15.0733 7.12265 14.9429 7.43638 14.6668 7.54985C12.8615 8.29412 11.0375 8.75803 9.24397 8.92824C8.72235 8.97497 8.20243 9 7.68758 9Z" fill="#409EFF"/>
<path d="M9.4015 11H7.5985C7.26746 11 7 10.7766 7 10.5C7 10.2234 7.26746 10 7.5985 10H9.4015C9.73254 10 10 10.2234 10 10.5C10 10.7766 9.73254 11 9.4015 11Z" fill="#409EFF"/>
</svg>
