<svg width="16" height="16" viewBox="0 0 16 16" fill="none" xmlns="http://www.w3.org/2000/svg">
<path d="M8.0009 1C4.69271 1 2 3.50012 2 6.5754C2 8.81952 5.12211 12.4351 6.79857 14.3783L6.91844 14.5179C7.18324 14.8238 7.57686 15 7.99911 15C8.42135 15 8.81497 14.8238 9.07977 14.5179L9.20143 14.3783C10.8797 12.4351 14 8.81952 14 6.5754C14 3.34552 11.4773 1 8.0009 1ZM8.0009 14.5528C7.72536 14.5528 7.46772 14.4381 7.29417 14.2387L7.17251 14.099C5.53183 12.199 2.4795 8.66326 2.4795 6.5754C2.4795 3.7478 4.95572 1.44716 7.99911 1.44716C11.1982 1.44716 13.5187 3.60485 13.5187 6.5754C13.5187 8.66326 10.4664 12.199 8.8257 14.099L8.70404 14.2387C8.53407 14.4381 8.27643 14.5528 8.0009 14.5528Z" fill="#409EFF" stroke="#409EFF" stroke-width="0.5"/>
<path d="M11 7C11 5.34474 9.65526 4 8 4C6.34474 4 5 5.34474 5 7C5 8.65526 6.34474 10 8 10C9.65526 10 11 8.65526 11 7ZM5.70526 7C5.70526 5.73421 6.73421 4.70526 8 4.70526C9.26579 4.70526 10.2947 5.73421 10.2947 7C10.2947 8.26579 9.26579 9.29474 8 9.29474C6.73421 9.29474 5.70526 8.26579 5.70526 7Z" fill="#409EFF"/>
</svg>
