<svg xmlns="http://www.w3.org/2000/svg" width="13" height="14" viewBox="0 0 13 14" fill="none">
  <path d="M6.5 14C2.91001 14 0 11.16 0 7.65642C0 5.00514 1.66801 2.73284 4.03403 1.78618V1.78778C4.10449 1.76379 4.17986 1.751 4.25851 1.751C4.62881 1.751 4.93194 2.04523 4.93194 2.40662C4.93194 2.69126 4.74515 2.93592 4.48298 3.02547C2.63965 3.79143 1.34522 5.57601 1.34522 7.65642C1.34522 10.4356 3.65226 12.6872 6.5 12.6872C9.34774 12.6872 11.6548 10.434 11.6548 7.65642C11.6548 5.57761 10.362 3.79143 8.51701 3.02547C8.25485 2.93592 8.0697 2.69126 8.0697 2.40662C8.0697 2.04363 8.36955 1.751 8.74149 1.751C8.82014 1.751 8.89387 1.76379 8.96597 1.78778V1.78618C11.3336 2.73444 13 5.00514 13 7.65642C13 11.16 10.09 14 6.5 14ZM6.5 7.21987C6.12969 7.21987 5.82821 6.92564 5.82821 6.56265V0.655625C5.82821 0.294232 6.12969 0 6.5 0C6.87194 0 7.17179 0.294232 7.17179 0.655625V6.56105C7.17179 6.92564 6.87194 7.21987 6.5 7.21987Z" fill="#F75444"/>
</svg>