<svg width="32" height="32" viewBox="0 0 32 32" fill="none" xmlns="http://www.w3.org/2000/svg">
<path d="M16.7737 30C16.6645 30.0001 16.5554 29.9933 16.447 29.9796L4.34361 28.4699C3.69715 28.3884 3.10231 28.0711 2.67079 27.5776C2.23927 27.084 2.00074 26.4481 2 25.7893V6.21302C2.00046 5.55399 2.23886 4.91781 2.67041 4.424C3.10196 3.93018 3.69695 3.61272 4.34361 3.53126L16.4462 2.02034C16.8217 1.97347 17.2028 2.00782 17.5641 2.12111C17.9255 2.2344 18.259 2.42405 18.5424 2.6775C18.8259 2.93094 19.0528 3.24239 19.2083 3.59123C19.3637 3.94007 19.4441 4.31833 19.4441 4.70095V27.299C19.4441 27.6538 19.375 28.005 19.2408 28.3327C19.1065 28.6605 18.9098 28.9582 18.6617 29.209C18.4137 29.4599 18.1192 29.6588 17.7951 29.7945C17.4711 29.9302 17.1237 30 16.773 30H16.7737ZM16.6563 28.2635C16.7914 28.2804 16.9285 28.268 17.0586 28.2273C17.1886 28.1865 17.3086 28.1183 17.4106 28.0271C17.5126 27.9359 17.5943 27.8238 17.6502 27.6983C17.7061 27.5728 17.735 27.4367 17.735 27.299V4.70211C17.735 4.56443 17.7061 4.42832 17.6502 4.3028C17.5943 4.17728 17.5126 4.06521 17.4106 3.97402C17.3086 3.88283 17.1886 3.8146 17.0586 3.77384C16.9285 3.73308 16.7914 3.72073 16.6563 3.73761L4.55373 5.24853C4.32114 5.27783 4.10713 5.392 3.95188 5.56959C3.79663 5.74718 3.71083 5.97598 3.71059 6.21302V25.7881C3.71083 26.0251 3.79663 26.2539 3.95188 26.4315C4.10713 26.6091 4.32114 26.7233 4.55373 26.7526L16.6563 28.2635ZM23.2745 28.2232H21.9359C21.7092 28.2232 21.4917 28.1321 21.3314 27.9699C21.1711 27.8078 21.081 27.5879 21.081 27.3586C21.081 27.1293 21.1711 26.9094 21.3314 26.7472C21.4917 26.5851 21.7092 26.494 21.9359 26.494H23.273C23.8338 26.494 24.2902 25.9437 24.2902 25.267V21.2457C24.2902 21.0164 24.3802 20.7965 24.5406 20.6344C24.7009 20.4722 24.9183 20.3811 25.1451 20.3811C25.3718 20.3811 25.5893 20.4722 25.7496 20.6344C25.9099 20.7965 26 21.0164 26 21.2457V25.267C26.0015 26.8971 24.778 28.2232 23.2745 28.2232ZM25.1466 11.7103C24.9199 11.7103 24.7024 11.6192 24.5421 11.457C24.3818 11.2949 24.2917 11.075 24.2917 10.8457V6.95311C24.2917 6.27681 23.8357 5.72616 23.2745 5.72616H21.9359C21.7092 5.72616 21.4917 5.63507 21.3314 5.47293C21.1711 5.31079 21.081 5.09088 21.081 4.86157C21.081 4.63227 21.1711 4.41236 21.3314 4.25022C21.4917 4.08807 21.7092 3.99698 21.9359 3.99698H23.273C24.7765 3.99698 26 5.32307 26 6.95311V10.8457C25.9999 11.0747 25.91 11.2943 25.75 11.4564C25.59 11.6185 25.373 11.7098 25.1466 11.7103Z" fill="white"/>
<path d="M14.8846 19C14.65 19 14.425 18.895 14.2591 18.708C14.0932 18.5211 14 18.2675 14 18.0032V13.7695C14 13.5051 14.0932 13.2516 14.2591 13.0646C14.425 12.8777 14.65 12.7727 14.8846 12.7727C15.1193 12.7727 15.3443 12.8777 15.5102 13.0646C15.6761 13.2516 15.7693 13.5051 15.7693 13.7695V18.0032C15.7693 18.2675 15.6761 18.5211 15.5102 18.708C15.3443 18.895 15.1193 19 14.8846 19ZM28.3838 16.8832H22.2338C21.9992 16.8832 21.7742 16.7781 21.6083 16.5912C21.4424 16.4043 21.3492 16.1507 21.3492 15.8863C21.3492 15.622 21.4424 15.3684 21.6083 15.1815C21.7742 14.9945 21.9992 14.8895 22.2338 14.8895H28.0083L26.9538 13.7017C26.7879 13.5148 26.6947 13.2612 26.6947 12.9968C26.6947 12.7325 26.7879 12.4789 26.9538 12.292C27.1197 12.105 27.3447 12 27.5793 12C27.814 12 28.039 12.105 28.2049 12.292L29.5248 13.7788C29.7513 14.0327 29.9057 14.3567 29.9686 14.7097C30.0314 15.0627 29.9997 15.4287 29.8775 15.7614C29.7553 16.094 29.5482 16.3782 29.2823 16.578C29.0165 16.7777 28.704 16.8839 28.3846 16.8832H28.3838Z" fill="white"/>
</svg>
