<svg width="32" height="32" viewBox="0 0 32 32" fill="none" xmlns="http://www.w3.org/2000/svg">
<path d="M29.643 17.8323C29.543 16.2323 28.5436 14.8387 27.1443 14.2194L25.895 8.07742C25.4452 5.80645 23.2464 4 20.9975 4H11.0028C8.75399 4 6.55515 5.85806 6.10539 8.07742L4.80607 14.2194C3.40681 14.8903 2.40734 16.2839 2.30739 17.8323L2.00755 21.7548C1.9076 23.4581 2.80713 25.0065 4.30634 25.6258C4.65615 26.9677 5.85552 28 7.25478 28C8.5541 28 9.70349 27.1742 10.1033 25.9355H21.8971C22.3468 27.1742 23.4463 28 24.7456 28C26.1448 28 27.3442 27.0194 27.694 25.6258C29.1433 25.0065 30.0927 23.4581 29.9928 21.7548L29.643 17.8323ZM26.6945 24.0774C26.3447 24.1806 26.0449 24.4903 26.0449 24.9032C25.9949 25.6258 25.4452 26.1935 24.6956 26.1935C23.996 26.1935 23.4463 25.6258 23.3963 24.9548C23.3463 24.4903 22.9965 24.129 22.5467 24.129H9.40365C8.95389 24.129 8.60407 24.4903 8.5541 24.9548C8.50412 25.6774 7.90444 26.1935 7.25478 26.1935C6.55515 26.1935 5.95547 25.6258 5.90549 24.9032C5.90549 24.4903 5.60565 24.1806 5.25584 24.0774C4.25636 23.8194 3.65668 22.9419 3.70665 21.9097L4.00649 17.9355C4.05647 16.9032 4.85605 15.9742 5.85552 15.6645C6.20533 15.5613 6.40523 15.2516 6.4552 14.9419V14.7871V14.7355L7.75452 8.43871C8.05436 6.99355 9.5036 5.75484 10.9528 5.75484H20.9476C22.3968 5.75484 23.846 6.99355 24.1459 8.43871L25.4952 14.7355V14.9935C25.5451 15.3548 25.795 15.6129 26.0949 15.7161C27.0943 16.0258 27.8439 16.9548 27.9439 17.9871L28.2437 21.9613C28.3437 22.9419 27.694 23.871 26.6945 24.0774ZM9.40365 15.0452H22.5467C22.8466 15.0452 23.1464 14.9419 23.2963 14.7355C23.4962 14.529 23.5462 14.2194 23.4962 13.9097V13.8581L22.4468 9.2129C22.2969 8.49032 21.5972 7.87097 20.8976 7.87097H11.0528C10.3532 7.87097 9.65352 8.49032 9.5036 9.2129L8.45415 13.8581V13.9097C8.40418 14.2194 8.50412 14.529 8.65404 14.7355C8.80397 14.8903 9.10381 15.0452 9.40365 15.0452ZM11.1527 9.57419H20.8476L21.6472 13.2387H10.3032L11.1527 9.57419Z" fill="white"/>
<path d="M6.40039 20.2C6.40039 20.4561 6.45083 20.7096 6.54883 20.9462C6.64682 21.1828 6.79046 21.3978 6.97153 21.5789C7.15261 21.7599 7.36757 21.9036 7.60416 22.0016C7.84074 22.0996 8.09431 22.15 8.35039 22.15C8.60647 22.15 8.86004 22.0996 9.09662 22.0016C9.33321 21.9036 9.54817 21.7599 9.72925 21.5789C9.91032 21.3978 10.054 21.1828 10.152 20.9462C10.25 20.7096 10.3004 20.4561 10.3004 20.2C10.3004 19.6828 10.0949 19.1868 9.72925 18.8211C9.36355 18.4554 8.86756 18.25 8.35039 18.25C7.83322 18.25 7.33723 18.4554 6.97153 18.8211C6.60584 19.1868 6.40039 19.6828 6.40039 20.2Z" fill="white"/>
<path d="M21.6504 20.2508C21.6504 20.5069 21.7008 20.7604 21.7988 20.997C21.8968 21.2336 22.0405 21.4486 22.2215 21.6296C22.4026 21.8107 22.6176 21.9544 22.8542 22.0523C23.0907 22.1503 23.3443 22.2008 23.6004 22.2008C23.8565 22.2008 24.11 22.1503 24.3466 22.0523C24.5832 21.9544 24.7982 21.8107 24.9792 21.6296C25.1603 21.4486 25.304 21.2336 25.402 20.997C25.5 20.7604 25.5504 20.5069 25.5504 20.2508C25.5504 19.9947 25.5 19.7411 25.402 19.5045C25.304 19.268 25.1603 19.053 24.9792 18.8719C24.7982 18.6908 24.5832 18.5472 24.3466 18.4492C24.11 18.3512 23.8565 18.3008 23.6004 18.3008C23.3443 18.3008 23.0907 18.3512 22.8542 18.4492C22.6176 18.5472 22.4026 18.6908 22.2215 18.8719C22.0405 19.053 21.8968 19.268 21.7988 19.5045C21.7008 19.7411 21.6504 19.9947 21.6504 20.2508Z" fill="white"/>
</svg>
