<svg width="32" height="32" viewBox="0 0 32 32" fill="none" xmlns="http://www.w3.org/2000/svg">
<path d="M3.83872 2.02747C5.8479 1.97724 7.85709 2.01352 9.86906 2.00236C10.0814 4.47454 9.90539 6.96347 9.96407 9.44124C11.7748 9.49704 13.5996 9.31846 15.402 9.55285C15.4132 9.78444 15.4355 10.2532 15.4439 10.4876C17.101 9.87931 18.7134 9.14547 20.4124 8.65996C22.7094 14.5307 24.889 20.4461 27.1637 26.328C27.323 26.7968 27.5717 27.2599 27.5577 27.7678C26.5182 28.3175 25.378 28.6411 24.2938 29.0932C26.1968 29.0959 28.097 29.0904 30 29.0959L29.9553 30H2.12575C2.09501 29.8047 2.03074 29.4113 2 29.2159C2.59521 29.2104 3.19042 29.2048 3.78842 29.2048C3.82196 20.1447 3.72415 11.0847 3.83872 2.02747ZM4.60719 2.81991C4.6016 11.5758 4.60719 20.3345 4.60439 29.0904C6.15529 29.0959 7.70619 29.0932 9.25988 29.0932C9.26267 20.3345 9.25988 11.5786 9.25988 2.81991C7.70898 2.81712 6.15808 2.81712 4.60719 2.81991ZM15.5641 11.4056C17.7465 17.2735 19.9764 23.122 22.1952 28.976C23.6259 28.4263 25.0623 27.8933 26.493 27.3492C24.2798 21.498 22.0723 15.6468 19.8563 9.79839C18.4228 10.3285 17.0004 10.8894 15.5641 11.4056ZM9.96407 10.2588C9.96128 16.5369 9.96128 22.815 9.96407 29.0932C11.515 29.0904 13.0659 29.0959 14.6168 29.0904C14.614 22.8122 14.6196 16.5369 14.614 10.2588H9.96407ZM15.4299 13.4118C15.4355 18.6408 15.4327 23.867 15.4327 29.0932H21.3653C19.3896 23.867 17.4196 18.6352 15.4299 13.4118Z" fill="white" stroke="white" stroke-width="0.3"/>
<path d="M6.00277 5.00274C6.58243 5.00274 7.15932 5.00274 7.73898 5C7.73898 5.19968 7.74176 5.59903 7.74453 5.79871C7.16487 5.79871 6.58521 5.80144 6.00832 5.80144C6.00555 5.53612 6.00555 5.26806 6.00277 5.00274ZM6.00555 6.48253C6.58521 6.48253 7.1621 6.48527 7.74176 6.48527C7.74176 6.68494 7.74176 7.0843 7.73898 7.28397C7.15932 7.28397 6.57966 7.28397 6 7.28124C6.00277 7.08156 6.00555 6.68221 6.00555 6.48253ZM6.00555 8.87318C6.57689 8.87592 7.151 8.85951 7.72512 8.90053C7.73344 9.09474 7.75285 9.48042 7.76117 9.67462C7.17596 9.67736 6.59075 9.67736 6.00555 9.67736V8.87318ZM6.00277 10.4733H7.74176C7.73898 10.7387 7.73898 11.004 7.73898 11.272H6.00555C6.00555 11.004 6.00555 10.7387 6.00277 10.4733ZM6.00277 12.9816C6.00555 12.7135 6.00555 12.4482 6.00832 12.1829H7.73621C7.73898 12.4482 7.73898 12.7135 7.74176 12.9816H6.00277ZM11.4388 13.2059C12.0157 13.2059 12.5954 13.2086 13.1723 13.2086C13.1723 13.4083 13.1695 13.8077 13.1695 14.0046H11.4361C11.4361 13.8049 11.4361 13.4056 11.4388 13.2059ZM17.9344 13.6381C18.4724 13.4357 19.0133 13.2305 19.5541 13.0281C19.6484 13.277 19.7455 13.5287 19.8425 13.7776C19.3017 13.98 18.7636 14.1824 18.2228 14.3848L17.9344 13.6381ZM11.4361 14.8033H13.1695C13.1695 15.003 13.1723 15.4023 13.1723 15.602H11.4361V14.8033ZM18.514 15.1124C19.0521 14.9127 19.5901 14.713 20.1282 14.5106C20.2003 14.6994 20.3445 15.0741 20.4166 15.2601C19.8703 15.468 19.3211 15.6677 18.7664 15.8509C18.7054 15.6677 18.5778 15.2984 18.514 15.1124ZM19.0937 16.7235C19.6373 16.5211 20.1781 16.3187 20.7217 16.1217L20.9991 16.8657C20.4582 17.0681 19.9174 17.2733 19.3738 17.4702C19.3017 17.2842 19.163 16.9095 19.0937 16.7235ZM11.4361 16.5129H13.1723V17.3116H11.4361V16.5129ZM20.9408 21.3817C21.4789 21.182 22.0169 20.9796 22.555 20.7799C22.6271 20.9659 22.7713 21.3379 22.8435 21.5267C22.2998 21.7291 21.7562 21.9342 21.2126 22.1339C21.1461 21.9479 21.0102 21.5704 20.9408 21.3817ZM6.00832 21.6388C6.58521 21.6388 7.1621 21.6416 7.73898 21.6416C7.73898 21.8412 7.74176 22.2378 7.74176 22.4375H6.00277C6.00555 22.2378 6.00555 21.8385 6.00832 21.6388ZM21.5066 22.8724C22.0447 22.6673 22.5855 22.4649 23.1263 22.2625L23.4148 23.0065C22.8767 23.2116 22.3359 23.4168 21.7978 23.6219C21.7257 23.4332 21.5787 23.0584 21.5066 22.8724ZM6.00555 23.9201C6.58521 23.9201 7.16487 23.9201 7.74453 23.9228C7.74176 24.1225 7.73898 24.5218 7.73621 24.7215C7.15932 24.7215 6.58243 24.7188 6.00555 24.7188V23.9201ZM22.0946 24.4781C22.6327 24.2729 23.1735 24.0705 23.7143 23.8681C23.7864 24.0541 23.9307 24.4288 24 24.6148C23.4592 24.82 22.9183 25.0224 22.3775 25.2221C22.3054 25.0361 22.1639 24.6641 22.0946 24.4781ZM6.00277 26.2013H7.74176V26.9973C7.1621 26.9973 6.58521 27 6.00832 27C6.00555 26.8003 6.00555 26.401 6.00277 26.2013Z" fill="white" stroke="white" stroke-width="0.3"/>
</svg>
