<svg width="32" height="32" viewBox="0 0 32 32" fill="none" xmlns="http://www.w3.org/2000/svg">
<path d="M8 17C8 17 10.219 9.24157 19.3008 8.12079L19.0954 7L23 8.72284L19.8767 10.792L19.6703 9.71557C19.6703 9.71557 12.4794 9.62951 8.82192 16.4826L8 17Z" fill="white"/>
<path d="M26.6892 30H5.31142C5.2333 30 5.15425 29.9956 5.07676 29.9871C5.03786 29.9827 4.99928 29.9776 4.96163 29.9716C4.65953 29.9221 4.37468 29.8104 4.11367 29.64C3.41629 29.1842 3 28.386 3 27.5051V4.49487C3 3.11925 4.03681 2 5.3111 2H26.6892C26.8451 2 27.0014 2.01693 27.1532 2.05046C27.3019 2.08331 27.4481 2.13208 27.5877 2.1954C27.6564 2.22656 27.7245 2.26178 27.79 2.30039C27.8223 2.31935 27.8553 2.33967 27.887 2.36033C27.9497 2.40131 28.0118 2.44635 28.0711 2.49444C28.6527 2.9628 29 3.71089 29 4.49521V27.5055C29.0006 28.8807 27.9638 30 26.6892 30ZM5.31142 3.69327C4.90203 3.69327 4.56887 4.05293 4.56887 4.49487V27.5051C4.56887 27.7889 4.70251 28.0453 4.92618 28.1916C5.01997 28.2531 5.12536 28.291 5.23456 28.3027C5.25966 28.3054 5.28569 28.3067 5.31142 28.3067H26.6895C27.0989 28.3067 27.4321 27.9471 27.4321 27.5051V4.49487C27.4321 4.23851 27.3235 4.00382 27.1341 3.85143C27.1149 3.83619 27.0951 3.82163 27.0751 3.80842C27.0444 3.78825 27.0125 3.77059 26.9794 3.75559C26.9348 3.73527 26.8881 3.71969 26.8407 3.70919C26.7915 3.69835 26.7407 3.69294 26.6895 3.69294H5.31142V3.69327Z" fill="white"/>
<path d="M9.97791 25H8V19.8951C8 19.6295 8.22153 19.414 8.49448 19.414H9.48344C9.75639 19.414 9.97791 19.6295 9.97791 19.8951V25ZM14.6471 25H12.6692V17.3295C12.6692 17.0639 12.8907 16.8484 13.1637 16.8484H14.1526C14.4256 16.8484 14.6471 17.0639 14.6471 17.3295V25ZM19.3127 25H17.3348V15.726C17.3348 15.4604 17.5563 15.2449 17.8292 15.2449H18.8182C19.0911 15.2449 19.3127 15.4604 19.3127 15.726V25ZM24 25H22.0221V13.4811C22.0221 13.2155 22.2436 13 22.5166 13H23.5055C23.7785 13 24 13.2155 24 13.4811V25Z" fill="white"/>
</svg>
