<svg width="32" height="32" viewBox="0 0 32 32" fill="none" xmlns="http://www.w3.org/2000/svg">
<path d="M9.02294 20.1121H12.6245C13.2252 20.1121 13.6463 19.7055 13.6463 19.1347C13.6463 18.5653 13.2091 18.1574 12.6245 18.1574H9.02294C8.74799 18.1516 8.48108 18.2507 8.27607 18.4347C8.18311 18.5249 8.11048 18.6341 8.06307 18.7548C8.01565 18.8756 7.99456 19.0051 8.00119 19.1347C8.00119 19.7055 8.42223 20.1121 9.02294 20.1121ZM9.02294 8.9547H23.3005C23.9012 8.9547 24.3223 8.5468 24.3223 7.97735C24.3223 7.40656 23.8838 7 23.3005 7H9.02294C8.42223 7 8.00119 7.40656 8.00119 7.97735C8.00119 8.5468 8.42223 8.9547 9.02294 8.9547ZM9.02294 14.5415H13.9868C14.5876 14.5415 15.0099 14.1349 15.0099 13.5641C15.0099 12.9947 14.5715 12.5868 13.9868 12.5868H9.02294C8.42223 12.5868 8.00119 12.9947 8.00119 13.5641C8.00119 14.1349 8.42223 14.5415 9.02294 14.5415ZM24.5824 18.5976C24.5817 17.3493 24.0875 16.1523 23.2082 15.2695C22.329 14.3868 21.1368 13.8906 19.8934 13.8899C19.0763 13.8915 18.2737 14.1069 17.5648 14.5149C16.8559 14.9229 16.2651 15.5093 15.8508 16.2164C15.4364 16.9235 15.2128 17.7268 15.202 18.5471C15.1912 19.3674 15.3935 20.1764 15.789 20.8942L12.8525 27.4422L15.9177 27.0356L17.5241 29.9354L19.9913 24.673L22.6998 30L23.9656 26.9037L27 27.0356L23.8838 21.0571C24.3223 20.3409 24.5811 19.4928 24.5811 18.5976H24.5824ZM19.8759 21.2523C19.5236 21.2602 19.1733 21.1973 18.8455 21.0674C18.5177 20.9374 18.219 20.743 17.9671 20.4956C17.7152 20.2482 17.515 19.9527 17.3784 19.6265C17.2418 19.3004 17.1714 18.9501 17.1715 18.5962C17.1716 18.2424 17.2421 17.8922 17.3789 17.5661C17.5157 17.24 17.716 16.9446 17.968 16.6973C18.2201 16.45 18.5188 16.2557 18.8467 16.126C19.1746 15.9962 19.525 15.9335 19.8773 15.9415C20.5684 15.9572 21.226 16.2438 21.7094 16.7401C22.1927 17.2363 22.4633 17.9028 22.4633 18.5969C22.4633 19.291 22.1927 19.9575 21.7094 20.4538C21.226 20.9501 20.5684 21.2367 19.8773 21.2523H19.8759ZM17.4597 26.2872L16.8107 25.0971L15.5932 25.2761L17.0051 22.3118C17.5659 22.7448 18.2138 23.0503 18.9038 23.207L17.4597 26.2858V26.2872ZM23.1048 25.1133L22.555 26.2696L20.9634 23.1747C21.664 23.0075 22.3184 22.6845 22.8782 22.2297L24.3706 25.194L23.1061 25.1133H23.1048Z" fill="white"/>
<path d="M10.4094 28.0909H5.89933C5.64323 28.0902 5.39782 27.9894 5.21673 27.8106C5.03564 27.6317 4.93359 27.3893 4.93289 27.1364V4.86364C4.93289 4.33772 5.36818 3.90909 5.89933 3.90909H26.1007C26.6331 3.90909 27.0671 4.33903 27.0671 4.86364V13.1364C27.0671 13.6623 27.5024 14.0909 28.0336 14.0909C28.566 14.0909 29 13.661 29 13.1364V4.54545C28.9979 3.871 28.7257 3.22476 28.2428 2.74784C27.76 2.27093 27.1057 2.00208 26.4228 2H5.57718C4.89432 2.00208 4.24003 2.27093 3.75717 2.74784C3.27431 3.22476 3.00211 3.871 3 4.54545V27.4545C3 28.8548 4.15947 30 5.57718 30H10.4094C10.9419 30 11.3758 29.5701 11.3758 29.0455C11.3758 28.5195 10.9405 28.0909 10.4094 28.0909Z" fill="white"/>
</svg>
