<svg width="32" height="32" viewBox="0 0 32 32" fill="none" xmlns="http://www.w3.org/2000/svg">
<path d="M3.02439 8H28.9756C29.6585 8 30 8.33333 30 9C30 9.66667 29.6585 10 28.9756 10H3.02439C2.34146 10 2 9.66667 2 9C2 8.33333 2.34146 8 3.02439 8Z" fill="white"/>
<path d="M7.17774 16H15.0647C15.1875 16 15.3092 15.9755 15.4226 15.928C15.5361 15.8804 15.6392 15.8107 15.7261 15.7228C15.8129 15.6349 15.8818 15.5305 15.9288 15.4157C15.9758 15.3009 16 15.1778 16 15.0535V8.9457C16 8.82144 15.9758 8.6984 15.9288 8.58361C15.8818 8.46882 15.8129 8.36453 15.726 8.27671C15.6392 8.18888 15.536 8.11924 15.4226 8.07176C15.3091 8.02428 15.1875 7.9999 15.0647 8H2.9345C2.68665 8 2.44896 8.09964 2.27371 8.27699C2.09846 8.45434 2 8.69489 2 8.9457V11.9864C1.99989 12.137 2.03533 12.2855 2.10338 12.4194C2.17143 12.5534 2.27011 12.669 2.39122 12.7566L6.63446 15.8237C6.79296 15.9383 6.98291 16 7.17774 16Z" fill="white"/>
<path d="M9 2C9.26522 2 9.51957 2.11853 9.70711 2.3295C9.89464 2.54048 10 2.82663 10 3.125V8H8V3.125C8 2.82663 8.10536 2.54048 8.29289 2.3295C8.48043 2.11853 8.73478 2 9 2Z" fill="white"/>
<path d="M8.38697 2L29.4672 6.81955C29.6419 6.8595 29.7946 6.97201 29.8918 7.13233C29.9889 7.29265 30.0225 7.48766 29.9851 7.67444C29.9478 7.86124 29.8425 8.02453 29.6926 8.12838C29.5426 8.23224 29.3603 8.26815 29.1855 8.22822L8.10526 3.40867L8.38697 2ZM8 14.5532H10.021V30H8V14.5532ZM12.7156 14.5532H14.7365V30H12.7156V14.5532Z" fill="white"/>
<path d="M5.16667 28H16.8333C17.6111 28 18 28.3333 18 29C18 29.6667 17.6111 30 16.8333 30H5.16667C4.38889 30 4 29.6667 4 29C4 28.3333 4.38889 28 5.16667 28Z" fill="white"/>
<path d="M8.00022 17.9218L13.0317 16L14 17.1095L8.96853 19.0313L8.00022 17.9218ZM8.00022 26.8905L13.0317 24.9687L14 26.0782L8.96853 28L8.00022 26.8905ZM13.0315 23.5155L8 21.5937L8.96831 20.4841L13.9998 22.4059L13.0315 23.5155Z" fill="white"/>
<path d="M20.4369 8.09926C20.8714 7.89848 21.1954 8.00229 21.409 8.41069L25.8944 16.987C26.108 17.3954 25.9976 17.7 25.5631 17.9007C25.1286 18.1015 24.8046 17.9977 24.591 17.5893L20.1056 9.01302C19.892 8.60463 20.0024 8.30004 20.4369 8.09926Z" fill="white"/>
<path d="M24.4369 17.9007C24.0024 17.7 23.892 17.3954 24.1056 16.987L28.591 8.41069C28.8046 8.00229 29.1286 7.89848 29.5631 8.09926C29.9976 8.30004 30.108 8.60463 29.8944 9.01302L25.409 17.5893C25.1954 17.9977 24.8714 18.1015 24.4369 17.9007Z" fill="white"/>
</svg>
