<svg width="32" height="32" viewBox="0 0 32 32" fill="none" xmlns="http://www.w3.org/2000/svg">
<path d="M26.9917 8C27.7872 8 28.5537 8.30303 29.1178 8.84022C29.6818 9.37741 30 10.1074 30 10.865V25.135C30 25.8926 29.6818 26.6226 29.1178 27.1598C28.5537 27.697 27.7872 28 26.9917 28H5.00826C4.21281 28 3.44628 27.697 2.88223 27.1598C2.31818 26.6226 2 25.8926 2 25.135V10.8512C2 9.28099 3.34504 8 4.9938 8H26.9917ZM26.9917 8.95041H5.00826C3.96694 8.95041 3.09917 9.72176 3.0124 10.7135V25.1212C3.0124 26.1129 3.82231 26.9394 4.86364 27.022H26.9917C28.0331 27.022 28.9008 26.2507 28.9876 25.259V10.8512C28.9876 9.8595 28.1777 9.03306 27.1364 8.95041H26.9917Z" fill="white" stroke="white" stroke-width="0.5"/>
<path d="M8.58816 4C8.84777 4 9.06156 4.17362 9.10737 4.40511L9.12264 4.49191V10.4962C9.12264 10.7566 8.90885 10.9736 8.64925 10.9881C8.37437 11.017 8.13004 10.8289 8.08423 10.583L8.06896 10.4962V4.50638C8.06896 4.37617 8.13004 4.24596 8.22167 4.15915C8.31329 4.05787 8.45073 4 8.58816 4ZM25.4777 15.994C25.7526 15.994 25.9816 16.1966 25.9969 16.4426C26.0274 16.703 25.8289 16.9345 25.5693 16.9779L25.4777 16.9923H19.1403C18.8654 16.9923 18.6364 16.7898 18.6211 16.5438C18.5906 16.2834 18.7891 16.0519 19.0487 16.0085L19.1403 15.994H25.4777ZM23.3703 20.0017C23.6452 20.0017 23.8743 20.2043 23.8895 20.4502C23.9201 20.7106 23.7215 20.9421 23.4619 20.9855L23.3703 21H19.1403C18.8654 21 18.6364 20.7974 18.6211 20.5515C18.5906 20.2911 18.7891 20.0596 19.0487 20.0162L19.1403 20.0017H23.3703ZM24.424 4C24.6836 4 24.8974 4.17362 24.9432 4.40511L24.9585 4.49191V10.4962C24.9585 10.7566 24.7447 10.9736 24.4851 10.9881C24.2102 11.017 23.9659 10.8289 23.9201 10.583L23.9048 10.4962V4.50638C23.8895 4.23149 24.1339 4 24.424 4ZM10.6955 12.9991C12.0088 12.9991 13.2305 13.6647 13.8871 14.7498C14.5438 15.8349 14.5438 17.166 13.8871 18.2511C13.2305 19.3362 12.0088 20.0017 10.6955 20.0017C8.64925 20.0017 7 18.4391 7 16.5004C7.01527 14.5617 8.66452 12.9991 10.6955 12.9991ZM10.6955 13.9974C9.24481 13.9974 8.05369 15.1115 8.05369 16.5004C8.05369 17.8749 9.22954 19.0034 10.6955 19.0034C12.1615 19.0034 13.3374 17.8749 13.3374 16.5004C13.3374 15.1115 12.1615 13.9974 10.6955 13.9974Z" fill="white" stroke="white" stroke-width="0.5"/>
<path d="M10.5065 19C12.9942 19 15 21.4474 15 24.4474C15 24.6368 14.9088 24.8263 14.7786 24.9211C14.6353 25.0158 14.466 25.0158 14.3227 24.9211C14.1795 24.8263 14.1013 24.6368 14.1013 24.4474C14.1013 22.8842 13.411 21.4474 12.3039 20.6737C11.1838 19.9 9.81621 19.9 8.70912 20.6737C7.589 21.4474 6.91172 22.9 6.91172 24.4474C6.91172 24.7474 6.71635 25 6.45586 25C6.20839 25 6 24.7632 6 24.4474C6 22.9947 6.46889 21.6211 7.31548 20.5947C8.17511 19.5842 9.32127 19 10.5065 19Z" fill="white" stroke="white" stroke-width="0.5"/>
</svg>
