<svg width="32" height="32" viewBox="0 0 32 32" fill="none" xmlns="http://www.w3.org/2000/svg">
<path d="M22.8052 10H29.1948C29.6623 10 30 10.3841 30 10.9604C30 11.5366 29.6883 11.9207 29.1948 11.9207H22.8052C22.3377 11.9207 22 11.5366 22 10.9604C22 10.3841 22.3117 10 22.8052 10ZM22.8052 18.0396H29.1948C29.6623 18.0396 30 18.4238 30 19C30 19.5762 29.6883 19.9604 29.1948 19.9604H22.8052C22.3377 19.9604 22 19.5762 22 19C22 18.4238 22.3117 18.0396 22.8052 18.0396ZM27.2727 26.0793H29.0909C29.6364 26.0793 30 26.4634 30 27.0396C30 27.6159 29.6364 28 29.0909 28H27.2727C26.7273 28 26.3636 27.6159 26.3636 27.0396C26.3636 26.4634 26.7273 26.0793 27.2727 26.0793Z" fill="white"/>
<path d="M4.01972 30H26C26 23.9527 22.6748 18.8012 18.0251 16.8415C20.8994 15.1337 22.6466 11.718 21.7167 7.96645C21.0403 5.16676 18.7296 2.89902 15.8834 2.22709C10.5856 0.995229 5.90777 4.94279 5.90777 10.0102C5.90777 12.9219 7.51402 15.4696 9.85295 16.8695C5.76687 18.5493 2.72345 22.6928 2.01895 27.7603C1.84987 28.9641 2.83617 30 4.01972 30ZM10.6138 18.6893L10.6983 18.6613C11.0647 18.5213 11.3747 18.2693 11.6001 17.9333C11.8255 17.5974 11.9383 17.2054 11.9383 16.8415V16.9255C11.9383 16.5895 11.8537 16.2535 11.6846 15.9456C11.5156 15.6376 11.2619 15.3856 10.952 15.2176L10.8674 15.1617C9.00755 14.0418 7.90854 12.11 7.90854 10.0102C7.90854 6.70659 10.6138 4.01889 13.939 4.01889C17.2642 4.01889 19.9695 6.70659 19.9695 10.0102C19.9695 12.11 18.8705 14.0418 17.0106 15.1337L16.9261 15.1896C16.6443 15.3576 16.3907 15.6096 16.1934 15.9176C16.0525 16.2255 15.968 16.5615 15.968 16.8975V16.8135C15.968 17.2054 16.0807 17.5694 16.3061 17.9053C16.5316 18.2413 16.8415 18.4933 17.2079 18.6333L17.2924 18.6613C20.7585 20.1451 23.2666 23.7567 23.8583 27.9842H4.01972C4.63968 23.7567 7.1195 20.1451 10.6138 18.6893Z" fill="white"/>
</svg>
