<svg width="32" height="32" viewBox="0 0 32 32" fill="none" xmlns="http://www.w3.org/2000/svg">
<path d="M29.9175 24.0496C29.861 23.9064 29.7792 23.7751 29.6776 23.6677L26.3427 20.3445C25.9082 19.8852 25.2056 19.8852 24.7711 20.3445C24.3366 20.8039 24.3366 21.5467 24.7711 22.0061L26.0916 23.3247H21.1117C20.4966 23.3247 20 23.8497 20 24.5C20 25.1503 20.4966 25.6753 21.1117 25.6753H26.0916L24.7711 26.9939C24.3366 27.4533 24.3366 28.1961 24.7711 28.6555C25.2056 29.1148 25.9082 29.1148 26.3427 28.6555L29.6776 25.3323C29.7792 25.2249 29.861 25.0936 29.9175 24.9504C30.0275 24.6611 30.0275 24.3389 29.9175 24.0496Z" fill="white" stroke="#AAC1FF" stroke-width="0.7"/>
<path d="M18.1079 27.4791C17.4176 27.6035 16.7066 27.6686 16.0015 27.6686C9.56661 27.6686 4.33457 22.4342 4.33457 16.003C4.33457 9.57173 9.56661 4.33432 16.0015 4.33432C22.4364 4.33432 27.6684 9.56581 27.6684 16C27.6684 16.711 27.6032 17.4278 27.4758 18.124C27.3603 18.7579 27.778 19.3652 28.412 19.4807C29.0431 19.6022 29.6534 19.1786 29.7689 18.5446C29.923 17.7093 30 16.8532 30 16C30 8.28015 23.7192 2 15.9985 2C8.27785 2 2 8.28015 2 16C2 23.7198 8.28082 30 16.0015 30C16.8488 30 17.6961 29.923 18.5257 29.7719C19.1597 29.6564 19.5804 29.0491 19.4648 28.4151C19.3493 27.7812 18.7449 27.3546 18.1079 27.4791Z" fill="white" stroke="#AAC1FF" stroke-width="0.7"/>
<path d="M20.7945 16C21.4581 16 21.9939 15.464 21.9939 14.8C21.9939 14.136 21.4581 13.6 20.7945 13.6H19.5951V11.2C19.5951 10.536 19.0594 10 18.3957 10C17.7321 10 17.1963 10.536 17.1963 11.2V13.6H14.7976V11.2C14.7976 10.536 14.2618 10 13.5982 10C12.9346 10 12.3988 10.536 12.3988 11.2V13.6H11.1994C10.5358 13.6 10 14.136 10 14.8C10 15.464 10.5358 16 11.1994 16H14.7976V17.2H11.2055C10.5419 17.2 10.0061 17.736 10.0061 18.4C10.0061 19.064 10.5419 19.6 11.2055 19.6H14.8037V20.8C14.8037 21.464 15.3394 22 16.003 22C16.6667 22 17.2024 21.464 17.2024 20.8V19.6H20.8006C21.4642 19.6 22 19.064 22 18.4C22 17.736 21.4642 17.2 20.8006 17.2H17.1994V16H20.7945Z" fill="white" stroke="#AAC1FF" stroke-width="0.7"/>
</svg>
