<svg width="32" height="32" viewBox="0 0 32 32" fill="none" xmlns="http://www.w3.org/2000/svg">
<path d="M28.0574 19.9984H26.0022V3.94214C26.0022 2.86943 25.1326 2 24.0597 2H7.94347C6.87052 2 6.00089 2.86943 5.99777 3.94214V19.9984H3.94258C2.86962 19.9984 2 20.871 2 21.9437V28.0547C2 29.1274 2.86962 29.9969 3.94258 30H28.0574C29.1304 30 30 29.1306 30 28.0579V21.9437C30 20.8679 29.1304 19.9984 28.0574 19.9984ZM7.99978 4.97733C7.99978 4.71775 8.10301 4.46755 8.28757 4.28303C8.47213 4.09851 8.71925 3.99844 8.97889 3.99844H23.0493C23.5904 3.99844 24.0284 4.43628 24.0284 4.97733V19.9984H20.6312C20.2871 20.0016 19.9962 20.2549 19.9462 20.5989C19.6677 22.5254 18.0286 23.9578 16.0829 23.9828C14.034 24.1392 12.2415 22.6286 12.0476 20.5833C12.0007 20.2392 11.7066 19.9828 11.3625 19.9828H7.99978V4.96169V4.97733ZM28.0011 27.1978C27.9949 27.6357 27.6414 27.9922 27.2003 27.9984H4.82158C4.38052 28.0047 4.01765 27.6513 4.0114 27.2072V22.8038C4.01452 22.3597 4.37739 22 4.82158 22H10.3428C11.447 25.1243 14.8723 26.7631 17.9973 25.6622C19.7084 25.0586 21.0535 23.7138 21.6604 22H27.2034C27.6508 22 28.0136 22.3628 28.0136 22.81V27.2009H28.0011V27.1978Z" fill="white"/>
<path d="M17.4206 8.24706H21.2111C21.6456 8.24706 21.9969 7.88217 21.9969 7.43085C21.9969 6.97953 21.6456 6.61464 21.2111 6.61464H17.4206C16.9861 6.61464 16.6348 6.97953 16.6348 7.43085C16.6348 7.87897 16.9892 8.24706 17.4206 8.24706ZM10.7858 9.45058C10.3513 9.45058 10 9.81547 10 10.2668C10 10.7181 10.3513 11.083 10.7858 11.083H11.8952V12.565C11.8952 13.0163 12.2465 13.3812 12.681 13.3812C13.1156 13.3812 13.4669 13.0163 13.4669 12.565V11.083H14.5763C15.0108 11.083 15.3621 10.7181 15.3621 10.2668C15.3621 9.81547 15.0108 9.45058 14.5763 9.45058H13.4669V9.10169L14.9892 7.44045C15.282 7.11717 15.282 6.59864 14.9923 6.25615C14.8536 6.0929 14.6656 6.00328 14.4592 6.00008C14.2496 5.99688 14.0431 6.0897 13.8952 6.25295L12.681 7.57489L11.4823 6.25295C11.3374 6.0929 11.1433 6.00648 10.9368 6.00648C10.7273 6.00648 10.5331 6.0929 10.3914 6.25295C10.0986 6.57623 10.0986 7.09476 10.3883 7.43725L11.8983 9.10169V9.45378H10.7858V9.45058ZM21.2142 16.3676H10.7858C10.3513 16.3676 10 16.7325 10 17.1838C10 17.6351 10.3513 18 10.7858 18H21.2111C21.6456 18 21.9969 17.6351 21.9969 17.1838C22 16.7325 21.6456 16.3676 21.2142 16.3676ZM21.2142 11.5567H17.4237C16.9892 11.5567 16.6379 11.9216 16.6379 12.3729C16.6379 12.8243 16.9892 13.1891 17.4237 13.1891H21.2142C21.6487 13.1891 22 12.8243 22 12.3729C22 11.9216 21.6456 11.5567 21.2142 11.5567Z" fill="white"/>
</svg>
