<svg width="32" height="32" viewBox="0 0 32 32" fill="none" xmlns="http://www.w3.org/2000/svg">
<path d="M30.9961 28.235L30.9974 27.7399C31.0042 26.8581 31.0096 25.9458 30.8477 25.2128C30.2702 22.6022 29.1126 20.7163 27.2022 19.274C26.7388 18.9223 26.2415 18.6208 25.7181 18.3741L25.3943 18.2309L25.5508 18.1015C25.7073 17.9736 25.8692 17.8414 26.0014 17.6662C26.5546 16.9291 26.9782 16.2462 27.244 15.3018C27.5732 14.1321 27.4059 12.6036 27.07 11.701C26.2079 9.38387 24.3042 8 21.9822 8H21.8554L21.4506 8.02782L21.1903 8.07232C20.9655 8.10434 20.7432 8.15267 20.5251 8.21697C19.3824 8.58554 18.442 9.242 17.8065 10.1154C17.2457 10.8747 16.8583 11.7547 16.6732 12.6898C16.3588 14.2156 16.8216 15.7803 17.3114 16.6579C17.4652 16.9305 17.646 17.1711 17.82 17.4033L17.901 17.5118C17.9657 17.5953 18.2045 17.8943 18.4649 18.1405L18.5728 18.2448L18.2153 18.4033C17.7566 18.6203 17.2844 18.9082 16.8459 19.2378C15.1956 20.4602 13.9859 22.2131 13.4068 24.2211C13.3151 24.5327 13.2557 24.8387 13.1937 25.1641L13.1397 25.4423C12.9953 26.1697 12.998 27.0487 13.0007 27.8999V28.3769C12.998 28.8609 12.9953 29.3171 13.2247 29.6287C13.4675 29.9569 13.8777 29.9833 14.3135 29.9833H29.1612C29.253 29.9833 29.3541 29.9861 29.458 29.9917C29.5754 29.9958 29.6968 30 29.8142 30C30.1056 30 30.2999 29.9708 30.4483 29.9026C31.0096 29.6439 31.0042 29.1029 30.9974 28.4771L30.9961 28.235ZM18.4474 14.9694C18.299 14.5216 18.191 13.7733 18.3003 13.1933L18.3273 13.0542C18.3678 12.8345 18.4055 12.6273 18.4717 12.4437C18.9034 11.2615 19.6414 10.4659 20.7248 10.0139C20.9312 9.92768 21.1673 9.879 21.4183 9.82615L21.4911 9.81224L21.7421 9.7872L21.7556 9.58414L21.9471 9.58971V9.77886C24.0424 9.8178 25.0111 11.1224 25.455 12.2197C25.8166 13.1127 25.8328 14.3866 25.4901 15.2476C25.0314 16.4047 24.207 17.2114 23.1061 17.5814C22.9253 17.6412 22.7229 17.6718 22.5151 17.7024C22.4234 17.7163 22.329 17.7302 22.2318 17.7483C22.1422 17.7637 22.0515 17.7712 21.9606 17.7705C21.4952 17.7705 20.9514 17.6036 20.6276 17.4618C19.5591 16.9944 18.8467 16.1794 18.4474 14.9694ZM29.5201 28.1168L29.5187 28.2142H14.5051L14.5024 27.9124C14.4943 27.2211 14.4875 26.5049 14.6009 25.9319C15.1068 23.3616 16.3251 21.5508 18.4352 20.235C19.0653 19.8414 19.8262 19.6092 20.4185 19.452C20.8772 19.3282 21.3791 19.267 21.9053 19.267C23.0818 19.267 24.3608 19.58 25.3268 20.1057C27.5206 21.3004 28.8536 23.1794 29.4041 25.8484C29.539 26.4979 29.5295 27.3213 29.5201 28.1168Z" fill="white"/>
<path d="M3.68418 13.6531C3.68418 8.1702 8.07481 3.71067 13.473 3.71067C16.0328 3.71067 18.4541 4.70805 20.2903 6.51973L20.3791 6.60717L22 5.85572L21.8265 5.66718C20.7579 4.50444 19.4643 3.57851 18.0268 2.94747C16.5893 2.31643 15.039 1.99389 13.473 2.00009C7.14665 2.00009 2.00003 7.22746 2.00003 13.6531C1.99393 16.2627 2.85288 18.7985 4.43852 20.8519C6.02415 22.9053 8.24416 24.3569 10.7409 24.9727L10.8526 25L12.0632 23.4971L11.7565 23.4424C9.49188 23.0366 7.44074 21.8324 5.96417 20.0417C4.4876 18.2511 3.68023 15.9888 3.68418 13.6531Z" fill="white"/>
<path d="M12.1775 7.8848V13.3564L9.269 16.3794C9.18378 16.4671 9.11612 16.5714 9.06995 16.6864C9.02378 16.8014 9 16.9248 9 17.0495C9 17.1741 9.02378 17.2975 9.06995 17.4125C9.11612 17.5275 9.18378 17.6319 9.269 17.7195C9.3533 17.8084 9.45374 17.8789 9.56448 17.9271C9.67521 17.9752 9.79405 18 9.91407 18C10.0341 18 10.1529 17.9752 10.2637 17.9271C10.3744 17.8789 10.4748 17.8084 10.5591 17.7195L13.7331 14.4205C13.9036 14.2422 13.9995 14.0011 14 13.7497V7.8848C13.9842 7.64471 13.8813 7.41983 13.7121 7.25559C13.543 7.09135 13.3202 7 13.0888 7C12.8573 7 12.6345 7.09135 12.4654 7.25559C12.2963 7.41983 12.1934 7.64471 12.1775 7.8848Z" fill="white"/>
</svg>
