<svg width="32" height="32" viewBox="0 0 32 32" fill="none" xmlns="http://www.w3.org/2000/svg">
<path d="M23 5V7.33333H4V5H23ZM12.3125 10.8333V13.1667H4V10.8333H12.3125ZM8.75 16.6667V19H4V16.6667H8.75Z" fill="white"/>
<path d="M4.12 32C3.32418 32 2.55842 31.6659 1.97941 31.066C1.40039 30.466 1.05189 29.6456 1.0052 28.7726L1 28.5714V3.42857C0.999956 2.55405 1.30402 1.71255 1.84998 1.07627C2.39593 0.439992 3.14251 0.0570202 3.93696 0.00571469L4.12 5.3251e-09H23.88C24.6758 -4.87054e-05 25.4416 0.334086 26.0206 0.934039C26.5996 1.53399 26.9481 2.35441 26.9948 3.22743L27 3.42857V10.4217H24.92V3.42857C24.92 3.14865 24.8264 2.87847 24.6572 2.66929C24.4879 2.46011 24.2547 2.32646 24.0017 2.29371L23.88 2.28571H4.12C3.86527 2.28575 3.61941 2.38852 3.42905 2.57453C3.2387 2.76054 3.11708 3.01686 3.08728 3.29486L3.08 3.42857V28.5714C3.08003 28.8514 3.17355 29.1215 3.34282 29.3307C3.51209 29.5399 3.74534 29.6735 3.99832 29.7063L4.12 29.7143H12.44V32H4.12Z" fill="white"/>
<path d="M30.4773 19.8141C30.374 19.6764 30.2401 19.5646 30.0861 19.4876C29.9321 19.4107 29.7624 19.3706 29.5902 19.3706H19.6997L19.5223 18.5279C19.4705 18.2737 19.3311 18.0457 19.1285 17.8836C18.9259 17.7215 18.6729 17.6356 18.4135 17.6409H16.9721C16.678 17.6409 16.396 17.7577 16.188 17.9656C15.9801 18.1736 15.8633 18.4556 15.8633 18.7497C15.8633 19.0437 15.9801 19.3258 16.188 19.5337C16.396 19.7416 16.678 19.8585 16.9721 19.8585H17.5154L19.0899 27.4205C19.144 27.6726 19.2843 27.8981 19.4867 28.058C19.6891 28.2178 19.9408 28.3022 20.1987 28.2964H27.7607C28.0096 28.3056 28.2543 28.2308 28.4554 28.0839C28.6566 27.9371 28.8024 27.7268 28.8695 27.487L30.7101 20.7788C30.7489 20.6109 30.7481 20.4364 30.7076 20.2689C30.6672 20.1015 30.5883 19.9458 30.4773 19.8141ZM26.9069 26.0788H21.0968L20.1654 21.5882H28.1377L26.9069 26.0788Z" fill="white"/>
<path d="M19.3457 30.6581C19.3457 31.0139 19.4871 31.3551 19.7387 31.6067C19.9903 31.8584 20.3315 31.9997 20.6874 31.9997C21.0432 31.9997 21.3844 31.8584 21.636 31.6067C21.8876 31.3551 22.029 31.0139 22.029 30.6581C22.029 30.3022 21.8876 29.961 21.636 29.7094C21.3844 29.4578 21.0432 29.3164 20.6874 29.3164C20.3315 29.3164 19.9903 29.4578 19.7387 29.7094C19.4871 29.961 19.3457 30.3022 19.3457 30.6581Z" fill="white"/>
<path d="M25.7871 30.6581C25.7871 31.0139 25.9285 31.3551 26.1801 31.6067C26.4317 31.8584 26.7729 31.9997 27.1288 31.9997C27.4846 31.9997 27.8258 31.8584 28.0774 31.6067C28.3291 31.3551 28.4704 31.0139 28.4704 30.6581C28.4704 30.3022 28.3291 29.961 28.0774 29.7094C27.8258 29.4578 27.4846 29.3164 27.1288 29.3164C26.7729 29.3164 26.4317 29.4578 26.1801 29.7094C25.9285 29.961 25.7871 30.3022 25.7871 30.6581Z" fill="white"/>
</svg>
