<svg width="32" height="32" viewBox="0 0 32 32" fill="none" xmlns="http://www.w3.org/2000/svg">
<path d="M25.1432 15.0337C25.8825 15.0337 26.5507 15.4895 26.8467 16.1931L26.8556 16.2145L28.209 19.5397L29.2455 18.8892C29.4849 18.739 29.792 18.826 29.9316 19.0835C30.0691 19.3371 29.9927 19.6615 29.7618 19.8147L29.751 19.8216L29.0583 20.2563C29.3971 20.609 29.6088 21.0986 29.6137 21.6407L29.6138 21.66V23.8724C29.6138 24.894 28.8795 25.7337 27.9402 25.8298V26.5147C27.9402 27.3149 27.3684 27.9864 26.6302 27.9998L26.6078 28H26.3761C25.6346 28 25.0554 27.3364 25.0439 26.539L25.0437 26.5147V25.8389H19.5081V26.5147C19.5081 27.3149 18.9363 27.9864 18.198 27.9998L18.1756 28H17.9439C17.2024 28 16.6232 27.3364 16.6117 26.539L16.6115 26.5147V25.8298C15.6816 25.7346 14.9526 24.9107 14.9382 23.903L14.9379 23.8724V21.6601C14.9379 21.0711 15.1819 20.5427 15.5686 20.1823L14.9938 19.8216L14.983 19.8147C14.7521 19.6615 14.6757 19.3371 14.8132 19.0835C14.9512 18.829 15.2529 18.741 15.491 18.8841L15.4993 18.8892L16.3275 19.409L17.6038 16.2244C17.8899 15.5106 18.5562 15.0432 19.2976 15.0339L19.3201 15.0338L25.1432 15.0337ZM21.5678 2C23.3276 2 24.7574 3.48168 24.7858 5.32078L24.7862 5.37663V10.3887C24.7862 10.8736 24.4116 11.2666 23.9495 11.2666C23.4939 11.2666 23.1234 10.8847 23.1129 10.4094L23.1127 10.5V5.37663C23.1127 4.49045 22.4348 3.77038 21.5934 3.75606L21.5678 3.75585H5.21838C4.37373 3.75585 3.68741 4.46707 3.67376 5.34983L3.67357 5.37663V24.4207C3.67357 25.3069 4.35144 26.027 5.19284 26.0413L5.21838 26.0415H11.7007C12.1629 26.0415 12.5375 26.4346 12.5375 26.9194C12.5375 27.3974 12.1735 27.7861 11.7205 27.7974H5.21838C3.45869 27.7974 2.02884 26.3157 2.00042 24.4766L2 24.4208V5.37663C2 3.53042 3.41225 2.03028 5.16517 2.00044L5.21838 2H21.5678ZM18.5039 25.8389H17.6156V26.5147C17.6156 26.7665 17.7703 26.9503 17.9354 26.9565L17.9439 26.9567H18.1756C18.341 26.9567 18.4985 26.7771 18.5037 26.5277L18.5039 26.5147V25.8389ZM26.9361 25.8389H26.0478V26.5147C26.0478 26.7665 26.2025 26.9503 26.3675 26.9565L26.3761 26.9567H26.6078C26.7731 26.9567 26.9307 26.7771 26.9359 26.5277L26.9361 26.5147V25.8389ZM27.9166 20.774H16.635C16.2446 20.8512 15.9481 21.2117 15.9422 21.6468L15.9421 21.66V23.8724C15.9421 24.3652 16.3149 24.7656 16.7777 24.7736L16.7917 24.7737H27.76C28.2246 24.7737 28.602 24.3782 28.6095 23.8873L28.6096 23.8724V21.66C28.6096 21.219 28.311 20.852 27.9166 20.774ZM18.4781 22.1922C18.9047 22.1922 19.2505 22.555 19.2505 23.0026C19.2505 23.4501 18.9047 23.8129 18.4781 23.8129C18.0516 23.8129 17.7057 23.4501 17.7057 23.0026C17.7057 22.555 18.0516 22.1922 18.4781 22.1922ZM26.0735 22.1922C26.5001 22.1922 26.846 22.555 26.846 23.0026C26.846 23.4501 26.5001 23.8129 26.0735 23.8129C25.647 23.8129 25.3011 23.4501 25.3011 23.0026C25.3011 22.555 25.6469 22.1922 26.0735 22.1922ZM25.1432 16.0826H19.3201C18.9803 16.0826 18.6733 16.2928 18.5383 16.6167L18.5335 16.6283L17.305 19.6935H19.9769L20.802 18.0828L20.8081 18.0713C20.9432 17.8227 21.2458 17.7298 21.4904 17.8642C21.7359 17.9992 21.831 18.3127 21.7059 18.5684L21.7014 18.5773L21.1296 19.6935H23.3884L24.2135 18.0828L24.2196 18.0713C24.3547 17.8227 24.6573 17.7298 24.9019 17.8642C25.1474 17.9992 25.2425 18.3127 25.1174 18.5684L25.1129 18.5773L24.5411 19.6935H27.1775L25.9281 16.6238C25.7982 16.3047 25.5023 16.0944 25.1713 16.0831L25.159 16.0828L25.1432 16.0826ZM14.1963 15.6398C14.6584 15.6398 15.0331 16.0328 15.0331 16.5177C15.0331 16.9956 14.6691 17.3844 14.216 17.3954L14.1963 17.3956H6.4414C5.97927 17.3956 5.60462 17.0026 5.60462 16.5177C5.60462 16.0397 5.96864 15.651 6.42168 15.64L6.4414 15.6398L14.1963 15.6398ZM23.6413 13.4805C23.9181 13.4805 24.1425 13.7073 24.1425 13.987C24.1425 14.2628 23.9244 14.487 23.6531 14.4934L23.6413 14.4935H20.846C20.5692 14.4935 20.3448 14.2667 20.3448 13.987C20.3448 13.7113 20.5629 13.487 20.8342 13.4806L20.846 13.4805H23.6413ZM18.5 8.787C18.9621 8.787 19.3368 9.18005 19.3368 9.66489C19.3368 10.1428 18.9727 10.5316 18.5197 10.5426L18.5 10.5428H6.44137C5.97924 10.5428 5.60459 10.1498 5.60459 9.66489C5.60459 9.18698 5.96862 8.79824 6.42165 8.78723L6.44137 8.787H18.5Z" fill="white"/>
</svg>
