<svg width="32" height="32" viewBox="0 0 32 32" fill="none" xmlns="http://www.w3.org/2000/svg">
<path d="M16.9999 3.99998H28.9997C29.552 3.99998 29.9995 4.4478 29.9995 5.00001C29.9995 5.55223 29.552 5.99975 28.9997 6.00004H16.9999C16.6426 6.00004 16.3123 5.80959 16.1335 5.50018C16.0458 5.34809 15.9996 5.17561 15.9996 5.00005C15.9996 4.82449 16.0458 4.65201 16.1335 4.49992C16.2213 4.3479 16.3476 4.22166 16.4997 4.13391C16.6518 4.04615 16.8243 3.99996 16.9999 3.99998ZM16.9999 20.0001H28.9997C29.552 20.0001 29.9995 20.4478 29.9995 21.0001C29.9995 21.5523 29.552 21.9998 28.9997 22.0001H16.9999C16.4477 21.9998 16.0001 21.5523 16.0001 21.0001C16.0001 20.4478 16.4476 20.0001 16.9999 20.0001ZM16.9999 10.0001H28.9997C29.552 10.0001 29.9995 10.4478 29.9995 11C29.9995 11.5523 29.552 11.9998 28.9997 12.0001H16.9999C16.4477 11.9998 16.0001 11.5523 16.0001 11C16.0001 10.4478 16.4476 10.0001 16.9999 10.0001ZM16.9999 26H28.9997C29.1753 25.9999 29.3478 26.0461 29.4999 26.1338C29.6519 26.2215 29.7782 26.3478 29.866 26.4998C29.9538 26.6518 30 26.8243 30 26.9999C30 27.1755 29.9537 27.3479 29.8659 27.4999C29.7781 27.652 29.6519 27.7782 29.4998 27.866C29.3478 27.9538 29.1753 28.0001 28.9997 28.0001H16.9999C16.6426 28.0001 16.3123 27.8094 16.1335 27.4999C16.0458 27.3479 15.9996 27.1754 15.9996 26.9999C15.9996 26.8244 16.0458 26.6519 16.1335 26.4999C16.2213 26.3479 16.3476 26.2216 16.4997 26.1339C16.6518 26.0461 16.8243 26 16.9999 26ZM3.99997 3.99998V12H11.9999V3.99998H3.99997ZM3.99997 2H11.9999C12.5303 2.00002 13.039 2.21074 13.4141 2.5858C13.7891 2.96087 13.9999 3.46956 13.9999 3.99998V12C13.9999 12.2626 13.9481 12.5227 13.8476 12.7654C13.7471 13.008 13.5997 13.2285 13.414 13.4141C13.2283 13.5999 13.0078 13.7472 12.7652 13.8477C12.5226 13.9483 12.2625 14 11.9999 14H3.99997C3.46956 13.9999 2.9609 13.7892 2.58584 13.4141C2.21079 13.0391 2.00006 12.5304 2 12V3.99998C2.00005 3.46956 2.21072 2.96085 2.5857 2.5857C2.96084 2.21071 3.46954 2.00004 3.99997 2ZM3.99997 20.0001V28.0001H11.9999V20.0001H3.99997ZM3.99997 18H11.9999C12.2626 18 12.5226 18.0518 12.7653 18.1523C13.0079 18.2528 13.2284 18.4001 13.4141 18.5858C13.5998 18.7715 13.7471 18.992 13.8476 19.2346C13.9481 19.4773 13.9999 19.7374 13.9999 20V28C13.9999 28.2626 13.9481 28.5227 13.8476 28.7653C13.747 29.008 13.5997 29.2284 13.414 29.4141C13.2283 29.5998 13.0079 29.7472 12.7652 29.8477C12.5226 29.9483 12.2625 30 11.9999 30H3.99997C3.46957 29.9999 2.96091 29.7892 2.58586 29.4141C2.21081 29.0391 2.00008 28.5304 2 28V20.0001C1.99999 19.4696 2.21066 18.9609 2.5857 18.5857C2.96084 18.2107 3.46954 18.0001 3.99997 18Z" fill="white"/>
</svg>
