<svg width="32" height="32" viewBox="0 0 32 32" fill="none" xmlns="http://www.w3.org/2000/svg">
<path d="M15.2603 30H8.24022C5.90168 30 4 28.0991 4 25.7615V6.23853C4 3.90092 5.90168 2 8.24022 2H22.7598C25.0983 2 27 3.90092 27 6.23853V16.3505C27 16.7743 26.6531 17.1211 26.229 17.1211C25.805 17.1211 25.4581 16.7743 25.4581 16.3505V6.23853C25.4581 4.74862 24.2503 3.54128 22.7598 3.54128H8.24022C6.74972 3.54128 5.5419 4.74862 5.5419 6.23853V25.7615C5.5419 27.2514 6.74972 28.4587 8.24022 28.4587H15.2603C15.6844 28.4587 16.0313 28.8055 16.0313 29.2294C16.0313 29.6532 15.6844 30 15.2603 30Z" fill="white" stroke="white" stroke-width="0.3"/>
<path d="M14.0256 15.3094V14.0281H11.5128C10.9872 14.0281 10.7179 13.8378 10.7179 13.4573C10.7179 13.0767 10.9744 12.861 11.5128 12.8229H13.2308L10.2821 8.34473C10.2308 8.34473 10.1795 8.29399 10.141 8.20518C10.0385 8.06564 10 7.87534 10 7.63431C10 7.30447 10.2179 7.0888 10.641 7C10.9744 7.05074 11.2564 7.21566 11.5 7.49476L14.7949 12.3916L18.0897 7.49476C18.2821 7.21566 18.5641 7.05074 18.9487 7C19.3333 7.10149 19.5513 7.30447 19.5897 7.63431C19.5897 7.77386 19.5128 7.96415 19.3718 8.20518C19.3205 8.25593 19.2949 8.30667 19.2949 8.34473L16.3462 12.8229H18.0641C18.5385 12.8737 18.8077 13.0894 18.859 13.4573C18.8077 13.8378 18.5513 14.0281 18.0641 14.0281H15.5385V15.3094H18.0513C18.5256 15.3602 18.7949 15.5758 18.8462 15.9437C18.7949 16.3243 18.5385 16.5146 18.0513 16.5146H15.5385V19.3563C15.4872 19.8257 15.2308 20.0667 14.7436 20.0667C14.2179 20.0667 13.9487 19.8257 13.9487 19.3563V16.5146H11.4359C10.9103 16.5146 10.641 16.3243 10.641 15.9437C10.641 15.5632 10.8974 15.3475 11.4359 15.3094H14.0256ZM21.3718 25.5091V26.524L19.6795 24.4942C19.641 24.4562 19.641 24.4181 19.6026 24.38H19.6154V24.3673L19.6026 24.3166C19.6026 24.2659 19.6154 24.1897 19.6538 24.1517L21.3462 22.2868V23.5301H21.641C24.1538 23.5301 24.9103 25.23 25.1282 26.3844C24.0897 25.1031 22.7051 25.0017 22.0769 25.0017H21.7308L21.3462 25.0397V25.5345H21.3718V25.5091ZM22.3718 18.8616C19.2564 18.8616 16.7436 21.3607 16.7436 24.4308C16.7436 27.5008 19.2692 30 22.3718 30C25.4744 30 28 27.5008 28 24.4308C28 21.3607 25.4872 18.8616 22.3718 18.8616Z" fill="white"/>
</svg>
