<svg width="32" height="32" viewBox="0 0 32 32" fill="none" xmlns="http://www.w3.org/2000/svg">
<g clip-path="url(#clip0_7169_150)">
<path d="M30.9737 19.9997H29.8804C29.507 14.5997 26.1404 9.39971 21.6004 7.41305L20.7804 7.05305C20.7751 6.60565 20.5937 6.17837 20.2754 5.86387C19.9572 5.54937 19.5278 5.37302 19.0804 5.37305H12.8937C12.4428 5.37305 12.0104 5.55215 11.6916 5.87097C11.3728 6.18978 11.1937 6.62218 11.1937 7.07305V7.10638L10.527 7.40638C5.96036 9.39305 2.58702 14.593 2.21369 19.9997H1.00036C0.866759 19.9997 0.734508 20.0264 0.611411 20.0783C0.488314 20.1302 0.376867 20.2063 0.283651 20.302C0.190435 20.3977 0.117341 20.5111 0.0686836 20.6355C0.0200264 20.7599 -0.00320693 20.8928 0.000355643 21.0264V23.2197C0.000634382 23.387 0.0428921 23.5516 0.123258 23.6984C0.203624 23.8451 0.319529 23.9694 0.460356 24.0597C4.82702 26.8464 11.347 27.393 16.047 27.393C20.747 27.393 27.2137 26.8264 31.5137 24.113C31.6502 24.0302 31.7654 23.9165 31.8499 23.781C31.9344 23.6455 31.986 23.4921 32.0004 23.333V21.0264C32.0031 20.8908 31.9784 20.7561 31.9277 20.6303C31.8771 20.5045 31.8016 20.3902 31.7057 20.2944C31.6098 20.1985 31.4956 20.123 31.3698 20.0723C31.244 20.0217 31.1093 19.997 30.9737 19.9997ZM30.0004 22.733C26.107 24.953 20.3204 25.3997 16.0737 25.3997C12.547 25.4264 6.18036 25.0597 2.00036 22.6664V21.9997H3.18036C3.44557 21.9997 3.69993 21.8944 3.88746 21.7068C4.075 21.5193 4.18036 21.2649 4.18036 20.9997C4.18036 16.0997 7.18702 11.0864 11.1937 9.26638V18.0597C11.1949 18.2351 11.2416 18.4072 11.3293 18.5591C11.4169 18.711 11.5425 18.8375 11.6937 18.9264C11.8478 19.0116 12.021 19.0563 12.197 19.0563C12.3731 19.0563 12.5463 19.0116 12.7004 18.9264C12.8516 18.8375 12.9771 18.711 13.0648 18.5591C13.1524 18.4072 13.1991 18.2351 13.2004 18.0597V7.39305H18.7804V18.0597C18.7816 18.2359 18.829 18.4086 18.9179 18.5607C19.0069 18.7128 19.1341 18.8389 19.287 18.9264C19.4399 19.0116 19.612 19.0564 19.787 19.0564C19.962 19.0564 20.1342 19.0116 20.287 18.9264C20.4382 18.8375 20.5638 18.711 20.6514 18.5591C20.7391 18.4072 20.7858 18.2351 20.787 18.0597V9.23971C24.8404 11.0197 27.9004 16.0797 27.9004 21.0197C27.9004 21.2849 28.0057 21.5393 28.1932 21.7268C28.3808 21.9144 28.6351 22.0197 28.9004 22.0197H30.0004V22.733Z" fill="white"/>
</g>
<defs>
<clipPath id="clip0_7169_150">
<rect width="32" height="32" fill="white"/>
</clipPath>
</defs>
</svg>
