<svg width="32" height="32" viewBox="0 0 32 32" fill="none" xmlns="http://www.w3.org/2000/svg">
<path d="M2.93333 21.0469V28.132C2.93333 28.3797 3.03167 28.6173 3.2067 28.7925C3.38173 28.9676 3.61913 29.066 3.86667 29.066H28.1333C28.3809 29.066 28.6183 28.9676 28.7933 28.7925C28.9683 28.6173 29.0667 28.3797 29.0667 28.132V3.94521C29.0667 3.6975 28.9683 3.45994 28.7933 3.28479C28.6183 3.10963 28.3809 3.01123 28.1333 3.01123H23.8246L17.7127 8.51238C17.6457 8.57289 17.5626 8.61266 17.4734 8.62687C17.3843 8.64109 17.293 8.62913 17.2105 8.59246C17.128 8.55579 17.058 8.49598 17.0088 8.42026C16.9596 8.34455 16.9334 8.25618 16.9333 8.16587V2.93418L14.1333 2.99208V10.7731L10.7299 14.1788C10.6647 14.2441 10.5815 14.2886 10.491 14.3066C10.4005 14.3246 10.3067 14.3154 10.2214 14.28C10.1362 14.2447 10.0633 14.1848 10.012 14.1081C9.96073 14.0313 9.93335 13.941 9.93333 13.8487V8.14812H7.13333V16.8439L2.93333 21.0469ZM17.8667 7.11748L23.3337 2.19727C23.4193 2.12004 23.5306 2.07728 23.6459 2.07725H28.1333C28.6284 2.07725 29.1032 2.27405 29.4533 2.62436C29.8033 2.97467 30 3.4498 30 3.94521V28.132C30 28.6275 29.8033 29.1026 29.4533 29.4529C29.1032 29.8032 28.6284 30 28.1333 30H3.86667C3.3716 30 2.8968 29.8032 2.54673 29.4529C2.19667 29.1026 2 28.6275 2 28.132V20.8535C2.00003 20.7297 2.04921 20.6109 2.13673 20.5234L6.2 16.4573V8.14812C6.2 7.90042 6.29833 7.66285 6.47337 7.4877C6.6484 7.31254 6.8858 7.21414 7.13333 7.21414H9.93333C10.1809 7.21414 10.4183 7.31254 10.5933 7.4877C10.7683 7.66285 10.8667 7.90042 10.8667 8.14812V12.7214L13.2 10.3864V2.99208C13.1999 2.74766 13.2957 2.51295 13.4666 2.33834C13.6375 2.16372 13.87 2.06311 14.1142 2.0581L16.9142 2.0002C17.0384 1.99765 17.1618 2.01992 17.2773 2.06572C17.3927 2.11151 17.4979 2.17991 17.5866 2.26689C17.6753 2.35387 17.7457 2.4577 17.7938 2.57228C17.8419 2.68686 17.8667 2.8099 17.8667 2.93418V7.11748Z" fill="white" stroke="white" stroke-width="0.5"/>
<path d="M6.8 20.8571V25.1429H9.2V20.8571H6.8ZM6.8 20H9.2C9.41217 20 9.61566 20.0903 9.76569 20.2511C9.91571 20.4118 10 20.6298 10 20.8571V25.1429C10 25.3702 9.91571 25.5882 9.76569 25.7489C9.61566 25.9097 9.41217 26 9.2 26H6.8C6.58783 26 6.38434 25.9097 6.23431 25.7489C6.08429 25.5882 6 25.3702 6 25.1429V20.8571C6 20.6298 6.08429 20.4118 6.23431 20.2511C6.38434 20.0903 6.58783 20 6.8 20Z" fill="white"/>
<path d="M22.9231 12.875V17.25H25.2308V12.875H22.9231ZM22.9231 12H25.2308C25.4348 12 25.6304 12.0922 25.7747 12.2563C25.919 12.4204 26 12.6429 26 12.875V17.25C26 17.4821 25.919 17.7046 25.7747 17.8687C25.6304 18.0328 25.4348 18.125 25.2308 18.125H22.9231C22.7191 18.125 22.5234 18.0328 22.3791 17.8687C22.2349 17.7046 22.1538 17.4821 22.1538 17.25V12.875C22.1538 12.6429 22.2349 12.4204 22.3791 12.2563C22.5234 12.0922 22.7191 12 22.9231 12ZM14.7692 20.75V25.125H17.0769V20.75H14.7692ZM14.7692 19.875H17.0769C17.2809 19.875 17.4766 19.9672 17.6209 20.1313C17.7651 20.2954 17.8462 20.5179 17.8462 20.75V25.125C17.8462 25.3571 17.7651 25.5796 17.6209 25.7437C17.4766 25.9078 17.2809 26 17.0769 26H14.7692C14.5652 26 14.3696 25.9078 14.2253 25.7437C14.081 25.5796 14 25.3571 14 25.125V20.75C14 20.5179 14.081 20.2954 14.2253 20.1313C14.3696 19.9672 14.5652 19.875 14.7692 19.875Z" fill="white"/>
<path d="M22.8 20.8571V25.1429H25.2V20.8571H22.8ZM22.8 20H25.2C25.4122 20 25.6157 20.0903 25.7657 20.2511C25.9157 20.4118 26 20.6298 26 20.8571V25.1429C26 25.3702 25.9157 25.5882 25.7657 25.7489C25.6157 25.9097 25.4122 26 25.2 26H22.8C22.5878 26 22.3843 25.9097 22.2343 25.7489C22.0843 25.5882 22 25.3702 22 25.1429V20.8571C22 20.6298 22.0843 20.4118 22.2343 20.2511C22.3843 20.0903 22.5878 20 22.8 20Z" fill="white"/>
</svg>
