<svg width="32" height="32" viewBox="0 0 32 32" fill="none" xmlns="http://www.w3.org/2000/svg">
<path d="M22 6V8.16667H6V6H22ZM13 11.4167V13.5833H6V11.4167H13ZM10 16.8333V19H6V16.8333H10Z" fill="white"/>
<path d="M5.76 30C5.05601 30 4.37861 29.7077 3.8664 29.1827C3.35419 28.6578 3.0459 27.9399 3.0046 27.176L3 27V5C2.99996 4.23479 3.26894 3.49849 3.7519 2.94174C4.23486 2.38499 4.8953 2.04989 5.59808 2.005L5.76 2H23.24C23.944 1.99996 24.6214 2.29233 25.1336 2.81728C25.6458 3.34224 25.9541 4.06011 25.9954 4.824L26 5V11.119H24.16V5C24.16 4.75507 24.0772 4.51866 23.9275 4.33563C23.7778 4.15259 23.5714 4.03566 23.3476 4.007L23.24 4H5.76C5.53466 4.00003 5.31717 4.08996 5.14878 4.25272C4.98039 4.41547 4.8728 4.63975 4.84644 4.883L4.84 5V27C4.84003 27.2449 4.92276 27.4813 5.0725 27.6644C5.22224 27.8474 5.42857 27.9643 5.65236 27.993L5.76 28H13.12V30H5.76Z" fill="white"/>
<path d="M21 14C18.8783 14 16.8434 14.8429 15.3431 16.3431C13.8429 17.8434 13 19.8783 13 22C13 24.1217 13.8429 26.1566 15.3431 27.6569C16.8434 29.1571 18.8783 30 21 30C23.1217 30 25.1566 29.1571 26.6569 27.6569C28.1571 26.1566 29 24.1217 29 22C29 19.8783 28.1571 17.8434 26.6569 16.3431C25.1566 14.8429 23.1217 14 21 14ZM21 15.7778C22.6502 15.7778 24.2329 16.4333 25.3998 17.6002C26.5667 18.7671 27.2222 20.3498 27.2222 22C27.2222 23.6502 26.5667 25.2329 25.3998 26.3998C24.2329 27.5667 22.6502 28.2222 21 28.2222C19.3498 28.2222 17.7671 27.5667 16.6002 26.3998C15.4333 25.2329 14.7778 23.6502 14.7778 22C14.7778 20.3498 15.4333 18.7671 16.6002 17.6002C17.7671 16.4333 19.3498 15.7778 21 15.7778Z" fill="white"/>
<path d="M20.286 18.1686L20.3683 18.235L21.5 19.2686L22.6317 18.235C22.7892 18.0915 23.0005 18.0082 23.2228 18.002C23.4451 17.9958 23.6616 18.0672 23.8284 18.2016C23.9952 18.336 24.0997 18.5234 24.1208 18.7258C24.1419 18.9281 24.0779 19.1302 23.9419 19.291L23.8693 19.3662L22.7376 20.4007H24.1257C24.3488 20.4009 24.5634 20.479 24.7256 20.619C24.8878 20.7589 24.9854 20.9503 24.9985 21.1538C25.0116 21.3574 24.9391 21.5578 24.7959 21.7142C24.6528 21.8706 24.4496 21.971 24.2281 21.9951L24.1257 22.0007H22.3752V22.8008H24.1257C24.3488 22.801 24.5634 22.8791 24.7256 23.019C24.8878 23.159 24.9854 23.3503 24.9985 23.5539C25.0116 23.7575 24.9391 23.9579 24.7959 24.1143C24.6528 24.2706 24.4496 24.3711 24.2281 24.3952L24.1257 24.4008H22.3752V25.2009C22.375 25.4048 22.2896 25.6009 22.1364 25.7492C21.9833 25.8974 21.774 25.9867 21.5513 25.9986C21.3286 26.0106 21.1093 25.9443 20.9382 25.8135C20.7672 25.6826 20.6572 25.4969 20.6309 25.2945L20.6248 25.2009V24.4008H18.8743C18.6512 24.4006 18.4366 24.3225 18.2744 24.1825C18.1122 24.0426 18.0146 23.8512 18.0015 23.6477C17.9884 23.4441 18.0609 23.2437 18.2041 23.0873C18.3472 22.9309 18.5503 22.8304 18.7719 22.8064L18.8743 22.8008H20.6248V22.0007H18.8743C18.6512 22.0005 18.4366 21.9224 18.2744 21.7824C18.1122 21.6425 18.0146 21.4511 18.0015 21.2476C17.9884 21.044 18.0609 20.8436 18.2041 20.6872C18.3472 20.5308 18.5503 20.4304 18.7719 20.4063L18.8743 20.4007H20.2615L19.1307 19.3662C18.9797 19.2284 18.8889 19.0449 18.8755 18.8502C18.8622 18.6555 18.9271 18.4631 19.058 18.3091C19.189 18.155 19.377 18.0501 19.5867 18.0139C19.7964 17.9777 20.0134 18.0128 20.1968 18.1126L20.286 18.1686Z" fill="white"/>
</svg>
