<svg width="32" height="32" viewBox="0 0 32 32" fill="none" xmlns="http://www.w3.org/2000/svg">
<path d="M5 6.28687V17.1347C5 21.5495 7.20025 25.4592 10.8302 27.3511L15.7801 30L21.0601 27.2255C24.69 25.4592 27 21.4236 27 16.8828V6.28775L16.0004 2L5 6.28687ZM25.3489 16.9443C25.3489 20.7178 23.4792 24.0881 20.4402 25.5701L15.7658 27.9963L11.4421 25.7043C8.52051 24.2214 6.6497 20.8525 6.6497 17.2129V7.50908L15.9996 3.8701L25.3495 7.50908V16.9434L25.3489 16.9443Z" fill="white"/>
<path d="M14.7599 18.4847L14.9993 18.5525V25H16.9997V23.7203H18.3328V21.7999H16.9997V18.5384L17.2568 18.4805C19.4126 17.9941 21 16.044 21 13.7998C21 11.1607 18.7492 9 16 9C13.2508 9 11 11.1607 11 13.7998V13.8967C11.0447 16.0552 12.5718 17.8667 14.7603 18.485L14.7599 18.4847ZM18.9995 13.7998C18.9995 15.3848 17.6501 16.6802 15.999 16.6802C14.3479 16.6802 12.9985 15.3848 12.9985 13.7998C12.9985 12.2148 14.3479 10.9194 15.999 10.9194C17.6501 10.9194 18.9995 12.2148 18.9995 13.7998Z" fill="white"/>
</svg>
