<svg width="28" height="28" viewBox="0 0 28 28" fill="none" xmlns="http://www.w3.org/2000/svg">
<g clip-path="url(#clip0_7169_142)">
<path d="M1.47722 26.2696V0.905589C1.47722 0.41201 1.88885 0 2.38181 0H16.915C17.408 0 17.818 0.41201 17.818 0.905589V4.1176L25.8655 6.34078C26.2755 6.42402 26.5219 6.75279 26.5219 7.1648V26.188H27.0971C27.5892 26.188 28 26.6 28 27.0944C28 27.588 27.5892 28 27.0971 28H0.902931C0.663987 27.9978 0.435455 27.9016 0.266567 27.7321C0.0976785 27.5625 0.0019488 27.3332 0 27.0936C0 26.5992 0.410801 26.1872 0.902931 26.1872H1.47805V26.2704L1.47722 26.2696ZM17.7358 26.2696H24.7153V7.90559L17.7358 6.01201V26.2712V26.2696ZM3.20258 26.2696H16.0121V1.81118H3.20258V26.2696ZM7.96455 6.75196H5.91221C5.67326 6.75001 5.44464 6.654 5.2756 6.48461C5.10656 6.31523 5.01062 6.08602 5.00845 5.84637C5.00845 5.35196 5.41925 4.93995 5.91221 4.93995H7.96455C8.45751 4.93995 8.86831 5.35196 8.86831 5.84637C8.78532 6.34078 8.37535 6.75196 7.96455 6.75196ZM13.2203 6.75196H11.1671C10.9283 6.74979 10.6999 6.65368 10.5311 6.48432C10.3622 6.31496 10.2664 6.08588 10.2642 5.84637C10.2642 5.35196 10.6742 4.93995 11.1671 4.93995H13.2203C13.7124 4.93995 14.1232 5.35196 14.1232 5.84637C14.1232 6.34078 13.7124 6.75196 13.2203 6.75196ZM7.96455 10.8696H5.91221C5.67326 10.8676 5.44464 10.7716 5.2756 10.6022C5.10656 10.4328 5.01062 10.2036 5.00845 9.96397C5.00845 9.46956 5.41925 9.05838 5.91221 9.05838H7.96455C8.45751 9.05838 8.86831 9.46956 8.86831 9.96397C8.78532 10.4584 8.37535 10.8696 7.96455 10.8696ZM13.2203 10.8696H11.1671C10.9283 10.8674 10.6999 10.7713 10.5311 10.6019C10.3622 10.4326 10.2664 10.2035 10.2642 9.96397C10.2642 9.46956 10.6742 9.05838 11.1671 9.05838H13.2203C13.7124 9.05838 14.1232 9.46956 14.1232 9.96397C14.1232 10.4584 13.7124 10.8696 13.2203 10.8696ZM7.96455 15.0696H5.91221C5.6734 15.0676 5.44491 14.9717 5.27589 14.8025C5.10687 14.6333 5.01083 14.4043 5.00845 14.1648C5.00845 13.6704 5.41925 13.2592 5.91221 13.2592H7.96455C8.45751 13.2592 8.86831 13.6704 8.86831 14.1648C8.86831 14.6592 8.37535 15.0704 7.96455 15.0704V15.0696ZM13.2203 15.0696H11.1671C10.9283 15.0674 10.6999 14.9713 10.5311 14.8019C10.3622 14.6326 10.2664 14.4035 10.2642 14.164C10.2642 13.6696 10.6742 13.2584 11.1671 13.2584H13.2203C13.7124 13.2584 14.1232 13.6696 14.1232 14.164C14.1232 14.6584 13.7124 15.0696 13.2203 15.0696ZM7.96455 19.2696H5.91221C5.67326 19.2676 5.44464 19.1716 5.2756 19.0022C5.10656 18.8328 5.01062 18.6036 5.00845 18.364C5.00845 17.8696 5.41925 17.4584 5.91221 17.4584H7.96455C8.45751 17.4584 8.86831 17.8696 8.86831 18.364C8.78532 18.8584 8.37535 19.2696 7.96455 19.2696ZM13.2203 19.2696H11.1671C10.9283 19.2674 10.6999 19.1713 10.5311 19.0019C10.3622 18.8326 10.2664 18.6035 10.2642 18.364C10.2642 17.8696 10.6742 17.4584 11.1671 17.4584H13.2203C13.7124 17.4584 14.1232 17.8696 14.1232 18.364C14.1232 18.8584 13.7124 19.2696 13.2203 19.2696ZM7.96455 23.3872H5.91221C5.67326 23.3852 5.44464 23.2892 5.2756 23.1198C5.10656 22.9504 5.01062 22.7212 5.00845 22.4816C5.00845 21.9872 5.41925 21.576 5.91221 21.576H7.96455C8.45751 21.576 8.86831 21.9872 8.86831 22.4816C8.86831 22.976 8.37535 23.3872 7.96455 23.3872ZM13.2203 23.3872H11.1671C10.9283 23.385 10.6999 23.2889 10.5311 23.1195C10.3622 22.9502 10.2664 22.7211 10.2642 22.4816C10.2642 21.9872 10.6742 21.576 11.1671 21.576H13.2203C13.7124 21.576 14.1232 21.9872 14.1232 22.4816C14.1232 22.976 13.7124 23.3872 13.2203 23.3872Z" fill="white"/>
</g>
<defs>
<clipPath id="clip0_7169_142">
<rect width="28" height="28" fill="white"/>
</clipPath>
</defs>
</svg>
