<svg width="32" height="32" viewBox="0 0 32 32" fill="none" xmlns="http://www.w3.org/2000/svg">
<path d="M6.63636 9.33333H12.3636C12.7136 9.33333 13 9.03333 13 8.66667C13 8.3 12.7136 8 12.3636 8H6.63636C6.28636 8 6 8.3 6 8.66667C6 9.03333 6.28636 9.33333 6.63636 9.33333ZM7.90909 14.6667H6.63636C6.28636 14.6667 6 14.9667 6 15.3333C6 15.7 6.28636 16 6.63636 16H7.90909C8.25909 16 8.54545 15.7 8.54545 15.3333C8.54545 14.9667 8.25909 14.6667 7.90909 14.6667Z" fill="white" stroke="white" stroke-width="0.5"/>
<path d="M29.9301 18.87V18.8C29.8951 18.485 29.8602 18.135 29.7903 17.785C29.7203 17.505 29.6504 17.19 29.5106 16.77C29.4757 16.63 29.4057 16.49 29.3708 16.35C29.3009 16.21 29.2659 16.035 29.196 15.895C29.0911 15.58 28.9164 15.265 28.7765 14.985C28.6017 14.635 28.1823 14.495 27.8327 14.67C27.4831 14.845 27.3433 15.265 27.5181 15.615C27.6579 15.86 27.7978 16.14 27.8677 16.385C27.9026 16.525 27.9725 16.665 28.0075 16.805C28.0774 16.945 28.1124 17.12 28.1473 17.225C28.2522 17.505 28.3221 17.785 28.3571 18.065C28.427 18.345 28.4619 18.59 28.4969 18.905C28.4969 19.08 28.4969 19.22 28.5318 19.395V19.85C28.5318 20.2 28.5318 20.48 28.4969 20.76C28.4619 21.075 28.427 21.355 28.3571 21.635C28.2871 21.95 28.2172 22.23 28.1473 22.475C28.0424 22.79 27.9376 23.07 27.8327 23.35C27.7628 23.56 27.6929 23.735 27.588 23.945L27.5181 24.085C27.4831 24.155 27.4482 24.225 27.4132 24.26C27.3084 24.435 27.2035 24.61 27.0986 24.75C27.0287 24.855 26.9238 24.96 26.8539 25.1C26.7491 25.24 26.6442 25.345 26.5743 25.485C26.4345 25.66 26.2247 25.905 26.0499 26.08C25.8752 26.255 25.7004 26.395 25.5256 26.57L25.4207 26.64C25.211 26.815 24.9663 26.99 24.7566 27.13C24.6517 27.2 24.5818 27.235 24.4769 27.305C24.3371 27.41 24.1973 27.48 24.0574 27.55C23.8127 27.69 23.5331 27.795 23.2884 27.9C23.1486 27.935 23.0087 28.005 22.8689 28.04C22.7291 28.11 22.5543 28.145 22.4494 28.18C22.1698 28.285 21.8901 28.355 21.6105 28.39C21.3308 28.46 21.0861 28.495 20.7715 28.53C20.5968 28.53 20.422 28.53 20.2472 28.565H19.4432C19.2684 28.565 19.0936 28.565 18.9189 28.53C18.6042 28.495 18.3246 28.46 18.0449 28.39C17.7303 28.32 17.4507 28.25 17.206 28.18C16.8914 28.075 16.6117 27.97 16.3321 27.865C16.1223 27.795 15.9476 27.725 15.7378 27.62L15.633 27.55L15.4232 27.445C15.2484 27.34 15.0737 27.235 14.9338 27.13C14.829 27.06 14.6891 26.955 14.5843 26.885C14.4444 26.78 14.3396 26.675 14.1997 26.605C14.025 26.465 13.7803 26.255 13.6055 26.08C13.3958 25.87 13.221 25.695 13.0811 25.52L12.5568 24.75C12.382 24.505 12.2422 24.295 12.1373 24.085C11.9975 23.84 11.8577 23.56 11.7878 23.315C11.7528 23.175 11.6829 23.035 11.6479 22.895C11.578 22.755 11.5431 22.58 11.5081 22.475C11.4032 22.195 11.3333 21.915 11.2984 21.635C11.2285 21.355 11.1935 21.075 11.1586 20.76C11.0886 20.445 11.0886 20.165 11.0886 19.85C11.0886 19.535 11.0886 19.255 11.1236 18.975C11.1586 18.66 11.1935 18.38 11.2634 18.1C11.3333 17.82 11.4032 17.505 11.4732 17.295C11.4732 17.26 11.5081 17.225 11.5081 17.19C11.5431 17.015 11.613 16.84 11.6829 16.665C11.7179 16.56 11.7528 16.49 11.7878 16.385C11.8577 16.175 11.9276 16 12.0325 15.825L12.1024 15.685C12.1723 15.545 12.2772 15.44 12.3471 15.3C12.417 15.195 12.4869 15.055 12.5568 14.95C12.5568 14.915 12.5918 14.915 12.5918 14.88C12.6617 14.74 12.7665 14.6 12.8714 14.46C12.9413 14.39 12.9763 14.285 13.0462 14.215C13.186 14.04 13.3958 13.795 13.5705 13.62C13.7803 13.41 13.9551 13.235 14.1298 13.095L14.1648 13.06C14.3745 12.885 14.6192 12.71 14.8639 12.535C15.1086 12.36 15.3184 12.22 15.5281 12.115C15.8077 11.975 16.0524 11.835 16.2971 11.765C16.5768 11.66 16.8215 11.555 17.171 11.45C17.4157 11.345 17.6954 11.31 17.975 11.24C18.2547 11.17 18.5343 11.135 18.8489 11.1H19.8277C20.1423 11.1 20.422 11.1 20.7016 11.135C21.0162 11.17 21.2959 11.205 21.5755 11.275C21.8901 11.345 22.1698 11.415 22.4145 11.485C22.7291 11.59 22.9738 11.695 23.2534 11.8C23.4632 11.87 23.6729 11.975 23.9176 12.08C24.0574 12.185 24.1973 12.255 24.372 12.255C24.7566 12.255 25.0712 11.94 25.0712 11.555V6.2C25.0712 3.89 23.1835 2 20.8764 2H6.19476C3.88764 2 2 3.89 2 6.2V25.8C2 28.11 3.88764 30 6.19476 30H19.8277C20.0025 30 20.1423 30 20.3171 29.965C20.4919 29.965 20.6667 29.965 20.8764 29.93C21.191 29.895 21.5406 29.86 21.8901 29.79C22.1698 29.72 22.4844 29.65 22.9039 29.51C23.0437 29.475 23.1835 29.405 23.3233 29.37C23.4632 29.3 23.638 29.265 23.7778 29.195C24.0924 29.09 24.407 28.915 24.6866 28.775C24.8964 28.67 25.0712 28.565 25.2459 28.46C25.3508 28.39 25.4207 28.355 25.4906 28.285C25.5256 28.285 25.5256 28.25 25.5605 28.25C25.8052 28.075 26.0849 27.9 26.3296 27.655L26.4345 27.585C26.6442 27.41 26.8539 27.235 27.0637 27.025C27.3084 26.78 27.5181 26.535 27.6929 26.325L27.7278 26.29C27.7978 26.185 27.9026 26.045 27.9725 25.94C28.0774 25.8 28.1823 25.695 28.2871 25.555C28.427 25.345 28.5668 25.1 28.6717 24.925L28.7765 24.75C28.7765 24.75 28.7765 24.715 28.8115 24.715L28.8814 24.54C28.9863 24.295 29.1261 24.085 29.231 23.805C29.3358 23.525 29.4407 23.245 29.5456 22.93C29.6504 22.615 29.7553 22.265 29.8252 21.915C29.8951 21.565 29.9301 21.215 29.965 20.9C30 20.55 30 20.2 30 19.85C30 19.675 30 19.5 29.965 19.325C29.9301 19.185 29.9301 19.045 29.9301 18.87ZM3.39825 25.8V6.2C3.39825 4.66 4.65668 3.4 6.19476 3.4H20.8764C22.4145 3.4 23.6729 4.66 23.6729 6.2V10.47C23.3933 10.365 23.1486 10.26 22.8689 10.19C22.5543 10.085 22.2047 9.98 21.8552 9.91C21.5056 9.84 21.1561 9.805 20.8414 9.77C20.4919 9.735 20.1423 9.735 19.8277 9.735C19.5131 9.735 19.1286 9.735 18.779 9.77C18.4644 9.805 18.1149 9.84 17.7653 9.91C17.4157 9.98 17.1011 10.05 16.7865 10.19C16.4719 10.295 16.1923 10.4 15.8777 10.505C15.563 10.61 15.2484 10.785 14.9688 10.925C14.6542 11.1 14.3745 11.275 14.0949 11.485C13.8502 11.66 13.6055 11.835 13.3258 12.045C13.0462 12.255 12.8365 12.465 12.5918 12.71C12.3471 12.955 12.1373 13.2 11.9625 13.41L11.9276 13.445C11.8577 13.515 11.8227 13.585 11.7528 13.69C11.613 13.865 11.5081 14.04 11.3683 14.215C11.2634 14.355 11.1935 14.495 11.1236 14.635C11.0537 14.74 10.9838 14.88 10.9139 14.985C10.8789 15.02 10.8789 15.055 10.8439 15.09L10.774 15.265C10.6692 15.51 10.5293 15.72 10.4245 16L10.3196 16.21C10.2497 16.42 10.1448 16.63 10.0749 16.91C9.97004 17.225 9.90012 17.54 9.83021 17.855C9.7603 18.205 9.72534 18.555 9.69039 18.87C9.65543 19.22 9.65543 19.57 9.65543 19.885C9.65543 20.2 9.65543 20.55 9.69039 20.935C9.72534 21.25 9.7603 21.6 9.83021 21.95C9.90012 22.23 9.97004 22.58 10.1099 22.965C10.1448 23.105 10.2147 23.245 10.2497 23.385C10.3196 23.525 10.3546 23.7 10.4245 23.84C10.5293 24.155 10.7041 24.47 10.8439 24.75C11.0187 25.065 11.1935 25.345 11.4032 25.625L11.9276 26.36C12.1373 26.64 12.382 26.885 12.5918 27.13C12.8365 27.375 13.0811 27.585 13.2909 27.76L13.3258 27.795C13.4307 27.865 13.5705 27.97 13.6754 28.04C13.8152 28.145 13.9201 28.25 14.0599 28.355C14.2347 28.46 14.4095 28.565 14.5493 28.67H6.19476C4.65668 28.6 3.39825 27.34 3.39825 25.8Z" fill="white" stroke="white" stroke-width="0.5"/>
<path d="M15.6224 17.8402C15.7522 17.5799 15.8496 17.3521 16.0118 17.1568L16.0442 17.1243C16.1416 16.9615 16.2714 16.8314 16.4012 16.6686C16.4661 16.6036 16.4985 16.5385 16.5634 16.4734C16.6932 16.3107 16.8879 16.1805 17.115 16.0178C17.3422 15.8876 17.6342 15.7249 17.8614 15.5947C18.1209 15.4645 18.3805 15.3994 18.6401 15.3343C19.1917 15.2367 19.7758 15.2367 20.3274 15.3343C20.587 15.3994 20.8466 15.4645 21.1062 15.5947C21.4307 15.7574 21.8201 15.5947 21.9499 15.2692C22.0796 14.9438 21.9499 14.5533 21.6254 14.4231C21.2684 14.2604 20.944 14.1627 20.587 14.0976C19.8407 13.9675 19.1268 13.9675 18.3805 14.0976C18.0236 14.1627 17.6667 14.2929 17.3097 14.4556C17.0177 14.5858 16.7257 14.7811 16.4336 14.9438C16.0767 15.1716 15.7847 15.3994 15.5575 15.6598C15.5251 15.7249 15.4602 15.7574 15.4277 15.8225C15.2655 15.9852 15.1032 16.213 14.941 16.4408C14.7139 16.7663 14.5516 17.0592 14.4218 17.3521C14.2596 17.7101 14.1622 18.0355 14.0973 18.3935C14.0324 18.7515 14 19.142 14 19.5C14 19.858 14.0324 20.2485 14.0973 20.6065C14.1622 20.9645 14.292 21.2899 14.4543 21.6805C14.5841 21.9734 14.7788 22.2663 14.941 22.5592C15.1681 22.9172 15.3953 23.2101 15.6549 23.4379C15.7198 23.4704 15.7522 23.5355 15.8171 23.568C15.9794 23.7308 16.2065 23.8935 16.4336 24.0562C16.7581 24.284 17.0501 24.4467 17.3422 24.5769C17.6991 24.7396 18.0236 24.8373 18.3805 24.9024C18.7375 24.9675 19.1268 25 19.4838 25C19.8732 25 20.2625 24.9349 20.6195 24.8698C20.9764 24.8047 21.3009 24.6746 21.6903 24.5118C21.9823 24.3817 22.2743 24.1864 22.5664 24.0237C22.9233 23.7959 23.2153 23.568 23.4425 23.3077C23.4749 23.2426 23.5398 23.2101 23.5723 23.145C23.7345 22.9822 23.8968 22.7544 24.059 22.5266C24.2861 22.2012 24.4484 21.9083 24.5782 21.6154C24.7404 21.2574 24.8378 20.932 24.9027 20.574C24.9676 20.216 25 19.8254 25 19.4675C25 19.1095 24.9676 18.7189 24.9027 18.3609C24.8378 18.003 24.4808 17.7751 24.1239 17.8402C23.767 17.9053 23.5398 18.2633 23.6047 18.6213C23.6696 18.9142 23.7021 19.1746 23.7021 19.4675C23.7021 19.7604 23.6696 20.0207 23.6047 20.3136C23.5398 20.574 23.4749 20.8343 23.3451 21.0947C23.2153 21.355 23.118 21.5828 22.9558 21.7781L22.9233 21.8107C22.826 21.9734 22.6962 22.1035 22.5664 22.2663C22.5015 22.3314 22.469 22.3965 22.4041 22.4615C22.2743 22.6243 22.0796 22.7544 21.8525 22.9172C21.6254 23.0473 21.3333 23.2101 21.1062 23.3402C20.8466 23.4704 20.587 23.5355 20.3274 23.6006C20.0678 23.6006 19.7434 23.6657 19.4838 23.6657C19.1917 23.6657 18.9322 23.6331 18.6401 23.568C18.3805 23.503 18.1209 23.4379 17.8614 23.3077C17.6018 23.1775 17.3746 23.0799 17.1799 22.9172L17.1475 22.8846C16.9853 22.787 16.8555 22.6568 16.6932 22.5266C16.6283 22.4615 16.5634 22.429 16.4985 22.3639C16.3363 22.2337 16.2065 22.0385 16.0442 21.8107C15.9145 21.5828 15.7522 21.2899 15.6224 21.0621C15.4926 20.8018 15.4277 20.5414 15.3628 20.2811C15.2979 19.9882 15.2655 19.7278 15.2655 19.4349C15.2655 19.142 15.2979 18.8817 15.3628 18.5888C15.4277 18.3609 15.5251 18.1006 15.6224 17.8402Z" fill="white" stroke="white" stroke-width="0.5"/>
<path d="M19.2286 17.8857C18.0029 17.8857 17 18.8114 17 19.9429C17 21.0743 18.0029 22 19.2286 22C20.4543 22 21.4571 21.0743 21.4571 19.9429C21.4571 19.6343 21.3829 19.3257 21.2343 19.0514L29.7771 11.1657C30.0743 10.8914 30.0743 10.48 29.7771 10.2057C29.48 9.93143 29.0343 9.93143 28.7371 10.2057L20.1943 18.0914C19.8971 17.9543 19.5629 17.8857 19.2286 17.8857ZM19.2286 20.6286C18.82 20.6286 18.4857 20.32 18.4857 19.9429C18.4857 19.5657 18.82 19.2571 19.2286 19.2571C19.4143 19.2571 19.5629 19.3257 19.7114 19.4286C19.7114 19.4629 19.7486 19.4629 19.7486 19.4971C19.7486 19.5314 19.7857 19.5314 19.8229 19.5314C19.9343 19.6343 20.0086 19.8057 20.0086 19.9771C19.9714 20.32 19.6371 20.6286 19.2286 20.6286Z" fill="white" stroke="white" stroke-width="0.5"/>
</svg>
