<svg width="32" height="32" viewBox="0 0 32 32" fill="none" xmlns="http://www.w3.org/2000/svg">
<path d="M23 5V7.33333H4V5H23ZM12.3125 10.8333V13.1667H4V10.8333H12.3125ZM8.75 16.6667V19H4V16.6667H8.75Z" fill="white"/>
<path d="M4.12 32C3.32418 32 2.55842 31.6659 1.97941 31.066C1.40039 30.466 1.05189 29.6456 1.0052 28.7726L1 28.5714V3.42857C0.999956 2.55405 1.30402 1.71255 1.84998 1.07627C2.39593 0.439992 3.14251 0.0570202 3.93696 0.00571469L4.12 5.3251e-09H23.88C24.6758 -4.87054e-05 25.4416 0.334086 26.0206 0.934039C26.5996 1.53399 26.9481 2.35441 26.9948 3.22743L27 3.42857V10.4217H24.92V3.42857C24.92 3.14865 24.8264 2.87847 24.6572 2.66929C24.4879 2.46011 24.2547 2.32646 24.0017 2.29371L23.88 2.28571H4.12C3.86527 2.28575 3.61941 2.38852 3.42905 2.57453C3.2387 2.76054 3.11708 3.01686 3.08728 3.29486L3.08 3.42857V28.5714C3.08003 28.8514 3.17355 29.1215 3.34282 29.3307C3.51209 29.5399 3.74534 29.6735 3.99832 29.7063L4.12 29.7143H12.44V32H4.12Z" fill="white"/>
<path d="M22 14C19.6131 14 17.3239 14.9482 15.636 16.636C13.9482 18.3239 13 20.6131 13 23C13 25.3869 13.9482 27.6761 15.636 29.364C17.3239 31.0518 19.6131 32 22 32C24.3869 32 26.6761 31.0518 28.364 29.364C30.0518 27.6761 31 25.3869 31 23C31 20.6131 30.0518 18.3239 28.364 16.636C26.6761 14.9482 24.3869 14 22 14ZM22 16C23.8565 16 25.637 16.7375 26.9497 18.0503C28.2625 19.363 29 21.1435 29 23C29 24.8565 28.2625 26.637 26.9497 27.9497C25.637 29.2625 23.8565 30 22 30C20.1435 30 18.363 29.2625 17.0503 27.9497C15.7375 26.637 15 24.8565 15 23C15 21.1435 15.7375 19.363 17.0503 18.0503C18.363 16.7375 20.1435 16 22 16Z" fill="white"/>
<g clip-path="url(#clip0_3402_3768)">
<path d="M18.4062 23.444L24.6121 23.444L22.0487 26.2426C21.8905 26.4153 21.8905 26.6977 22.0487 26.8705C22.2069 27.0432 22.4655 27.0432 22.6237 26.8705L25.8813 23.3139C26.0396 23.1412 26.0396 22.8588 25.8813 22.6861L22.6237 19.1295C22.4655 18.9568 22.2069 18.9568 22.0487 19.1295C21.8905 19.3023 21.8905 19.5847 22.0487 19.7574L24.6121 22.557L18.4062 22.557C18.1822 22.557 18 22.7569 18 23.0005C18 23.245 18.1831 23.444 18.4062 23.444Z" fill="white" stroke="white"/>
</g>
<defs>
<clipPath id="clip0_3402_3768">
<rect width="10" height="10" fill="white" transform="translate(27 28) rotate(180)"/>
</clipPath>
</defs>
</svg>
