<svg width="32" height="32" viewBox="0 0 32 32" fill="none" xmlns="http://www.w3.org/2000/svg">
<path d="M17.2503 11.5979H14.7497C13.7589 11.597 12.8081 11.994 12.1053 12.7021C11.4026 13.4101 11.0051 14.3715 11 15.3758V19.4282C11.0016 19.7271 11.1055 20.0161 11.2939 20.2459C11.4823 20.4758 11.7436 20.6323 12.0331 20.6886L12.6307 20.798L12.9029 24.7954C12.9398 25.1223 13.0925 25.4245 13.3325 25.646C13.5725 25.8675 13.8837 25.9933 14.2082 26H17.9022C18.6088 26 19.1517 25.4533 19.0971 24.795L19.3696 20.7976L19.9669 20.6883C20.2563 20.6315 20.5173 20.475 20.7056 20.2452C20.894 20.0154 20.998 19.7266 21 19.4279V15.3758C20.9949 14.3715 20.5974 13.4101 19.8947 12.7021C19.1919 11.994 18.2411 11.597 17.2503 11.5979ZM19.4221 19.1556L18.4995 19.3196C18.1197 19.429 17.8475 19.7027 17.8475 20.0851L17.575 24.3569H14.5318H14.5336L14.2611 20.0851C14.2617 19.899 14.1959 19.719 14.0758 19.5783C13.9557 19.4376 13.7894 19.3457 13.6077 19.3196L12.685 19.1556V15.3744C12.685 14.2244 13.6624 13.2399 14.8044 13.2399H17.3046C18.4452 13.2399 19.4225 14.224 19.4225 15.3744L19.4221 19.1556ZM16.0536 10.558C16.7899 10.5534 17.5084 10.3279 18.1185 9.90984C18.7285 9.49182 19.2028 8.90003 19.4815 8.20913C19.7601 7.51823 19.8307 6.75916 19.6843 6.02765C19.5379 5.29614 19.181 4.62497 18.6588 4.09877C18.1365 3.57258 17.4722 3.21495 16.7497 3.07097C16.0272 2.927 15.2787 3.00313 14.5988 3.28977C13.9189 3.57642 13.338 4.06073 12.9293 4.68162C12.5206 5.30252 12.3025 6.03219 12.3024 6.7786C12.3073 7.78342 12.7048 8.74535 13.4078 9.45372C14.1109 10.1621 15.0623 10.5592 16.0536 10.558ZM16.0536 4.64269C16.6124 4.64269 17.1484 4.86772 17.5436 5.26828C17.9387 5.66884 18.1607 6.21212 18.1607 6.7786C18.1607 7.34508 17.9387 7.88836 17.5436 8.28892C17.1484 8.68948 16.6124 8.91452 16.0536 8.91452C14.913 8.91452 13.936 7.93039 13.936 6.7786C13.936 5.62681 14.913 4.64269 16.0536 4.64269Z" fill="white"/>
<path d="M26.2527 11.8079H24.6356C23.1264 11.8079 21.8872 13.0693 21.8872 14.6039V17.3444C21.8872 17.8916 22.2638 18.3293 22.8023 18.4387H22.9645L23.0715 20.9597C23.1056 21.2434 23.2389 21.505 23.4467 21.6962C23.6545 21.8874 23.9228 21.9953 24.2023 22H26.6821C27.2748 22 27.7608 21.5076 27.8147 20.9057L27.9751 18.4398L28.0846 18.3844C28.6216 18.2749 29 17.8372 29 17.2901V14.6039C29.0011 13.0693 27.7619 11.8079 26.2527 11.8079ZM27.3839 16.9056L27.0073 16.9603C26.6293 17.0697 26.3594 17.344 26.3594 17.7263L26.1985 20.3582H24.6894L24.5275 17.7282C24.5289 17.5417 24.4641 17.3611 24.3451 17.2199C24.2261 17.0787 24.0611 16.9865 23.8806 16.9603L23.5026 16.9052V14.6039V14.5495C23.5066 14.4015 23.5391 14.2556 23.5981 14.1204C23.6572 13.9852 23.7417 13.8631 23.8469 13.7613C23.9521 13.6595 24.0758 13.5799 24.2111 13.527C24.3463 13.4741 24.4905 13.4489 24.6352 13.453H26.3041C26.5965 13.4593 26.8744 13.5842 27.0768 13.8C27.2792 14.0159 27.3895 14.3052 27.3835 14.6042L27.3839 16.9056ZM25.444 11.5901C26.9531 11.5901 28.1923 10.3288 28.1923 8.79415C28.1923 7.25956 26.9531 6 25.444 6C23.9348 6 22.6942 7.25956 22.6942 8.79415C22.6994 9.53697 22.9913 10.2476 23.5063 10.7713C24.0213 11.295 24.7178 11.5893 25.444 11.5901ZM24.3118 8.7398C24.3157 8.59175 24.3481 8.44594 24.4071 8.3107C24.4662 8.17546 24.5507 8.05344 24.6558 7.95162C24.7609 7.84979 24.8847 7.77015 25.0199 7.71725C25.1551 7.66435 25.2992 7.63922 25.444 7.6433H25.4957C25.6404 7.64633 25.7832 7.67851 25.9158 7.738C26.0484 7.79748 26.1682 7.8831 26.2685 7.98998C26.3687 8.09685 26.4474 8.22288 26.5 8.36086C26.5526 8.49885 26.5781 8.64608 26.5751 8.79415V8.84705C26.5713 8.99511 26.5391 9.14097 26.4802 9.27628C26.4213 9.41159 26.3369 9.53371 26.2319 9.63567C26.1268 9.73763 26.0032 9.81742 25.868 9.8705C25.7328 9.92357 25.5887 9.94889 25.444 9.94501C24.7975 9.94501 24.3114 9.45257 24.3114 8.79415C24.3111 8.77592 24.3111 8.75804 24.3118 8.7398ZM6.60264 11.8984H4.89845C3.30658 11.8984 2 13.1061 2 14.5791V17.2054C2 17.7318 2.39761 18.1538 2.96639 18.2567H3.1372L3.24988 20.6751C3.30658 21.2001 3.81831 21.6724 4.44378 21.6724H7.05552C7.67957 21.6724 8.19272 21.1982 8.24978 20.6215L8.41916 18.2567L8.53328 18.2045C9.1017 18.0988 9.49931 17.6782 9.49931 17.1533V14.5791C9.49931 13.1076 8.19023 11.8984 6.60264 11.8984ZM7.85074 16.7863L7.45171 16.8385C7.05552 16.9443 6.7706 17.2065 6.7706 17.5749L6.60121 20.0973H5.01078L4.83997 17.5746C4.83997 17.2062 4.55469 16.8917 4.15743 16.8381L3.75982 16.7859V14.5791C3.75982 13.9484 4.27119 13.4745 4.95372 13.4745H6.65684C7.33938 13.4745 7.8511 13.9488 7.8511 14.5791L7.85074 16.7863ZM5.806 11.6883C7.39608 11.6883 8.70409 10.479 8.70409 9.00901C8.70409 7.53897 7.39608 6.32829 5.806 6.32829C4.21591 6.32829 2.90755 7.53569 2.90755 9.00901C2.90755 10.4823 4.21591 11.6883 5.806 11.6883ZM5.806 7.90411C6.43147 7.90411 6.99847 8.37831 6.99847 9.00755C6.99847 9.63678 6.4871 10.1124 5.806 10.1124C5.12489 10.1124 4.61174 9.63824 4.61174 9.00901C4.61174 8.37977 5.12346 7.90411 5.806 7.90411Z" fill="#F8F8F8"/>
<path d="M16.0262 30C7.5998 30 1 26.7133 1 22.5271C1 21.7798 1.21393 21.0841 1.59117 20.3871C1.69499 20.215 1.86448 20.0876 2.06437 20.0315C2.26427 19.9753 2.47918 19.9948 2.66439 20.0858C3.03949 20.2859 3.20136 20.7346 2.98707 21.0834C2.71716 21.5807 2.55921 22.0291 2.55921 22.5264C2.55921 25.7659 8.67588 28.5047 15.9745 28.5047C23.2732 28.5047 29.3913 25.7656 29.3913 22.5264C29.3913 22.1263 29.2843 21.7288 29.1214 21.3304C29.0419 21.1496 29.0364 20.9469 29.1062 20.7625C29.1759 20.578 29.3156 20.4252 29.4979 20.3341C29.691 20.2594 29.9059 20.2536 30.1032 20.3177C30.3004 20.3817 30.4668 20.5114 30.5718 20.683C30.8389 21.2801 30.9997 21.879 30.9997 22.5264C31.0525 26.7119 24.4516 30 16.0262 30Z" fill="#F8F8F8"/>
</svg>
