<svg width="32" height="32" viewBox="0 0 32 32" fill="none" xmlns="http://www.w3.org/2000/svg">
<path d="M30 21.8422V21.9729C30 22.5187 29.8534 23.0555 29.574 23.5316C29.2947 24.0077 28.892 24.4073 28.4047 24.6919L23.1313 27.7729C22.8858 27.9163 22.6047 27.9946 22.317 27.9997C22.0293 28.0049 21.7453 27.9367 21.4943 27.8022C21.2434 27.6676 21.0344 27.4716 20.8889 27.2343C20.7434 26.997 20.6667 26.7269 20.6667 26.4519V11.1656C20.6667 10.6199 20.8133 10.0833 21.0925 9.60728C21.3718 9.13129 21.7742 8.73182 22.2613 8.44718L27.692 5.27444H18C17.8232 5.27444 17.6536 5.34158 17.5286 5.46108C17.4036 5.58059 17.3333 5.74267 17.3333 5.91167V13.5488C17.3333 13.7178 17.2631 13.8799 17.1381 13.9994C17.013 14.1189 16.8435 14.186 16.6667 14.186C16.4899 14.186 16.3203 14.1189 16.1953 13.9994C16.0702 13.8799 16 13.7178 16 13.5488V5.91167C16 5.40466 16.2107 4.91842 16.5858 4.55991C16.9609 4.20141 17.4696 4 18 4H28C28.5304 4 29.0391 4.20141 29.4142 4.55991C29.7893 4.91842 30 5.40466 30 5.91167V21.8422ZM28.6667 21.8422V6.19842L22.9567 9.53491C22.6644 9.70574 22.4229 9.94547 22.2554 10.2311C22.0879 10.5168 21.9999 10.8387 22 11.1662V26.4519C22.0001 26.5005 22.0137 26.5481 22.0393 26.59C22.065 26.6319 22.1019 26.6666 22.1462 26.6903C22.1905 26.7141 22.2406 26.7263 22.2914 26.7254C22.3422 26.7246 22.3919 26.7109 22.4353 26.6858L27.7093 23.6042C28.0017 23.4334 28.2433 23.1937 28.411 22.9081C28.5786 22.6224 28.6667 22.3004 28.6667 21.9729V21.8422ZM23.9893 15.4604C24.0769 15.4604 24.1636 15.4769 24.2445 15.509C24.3253 15.541 24.3988 15.5879 24.4607 15.6471C24.5226 15.7063 24.5717 15.7765 24.6053 15.8538C24.6388 15.9311 24.656 16.014 24.656 16.0977V16.7349C24.656 16.9039 24.5858 17.066 24.4607 17.1855C24.3357 17.305 24.1661 17.3721 23.9893 17.3721C23.8125 17.3721 23.643 17.305 23.5179 17.1855C23.3929 17.066 23.3227 16.9039 23.3227 16.7349V16.0977C23.3227 16.014 23.3399 15.9311 23.3734 15.8538C23.4069 15.7765 23.456 15.7063 23.5179 15.6471C23.5798 15.5879 23.6533 15.541 23.7342 15.509C23.8151 15.4769 23.9018 15.4604 23.9893 15.4604Z" fill="white"/>
<path d="M8.90324 10.0649C9.21735 10.0649 9.52838 9.99939 9.81858 9.87212C10.1088 9.74485 10.3725 9.55832 10.5946 9.32316C10.8167 9.088 10.9928 8.80882 11.1131 8.50157C11.2333 8.19432 11.2951 7.86501 11.2951 7.53245C11.2951 7.19988 11.2333 6.87057 11.1131 6.56332C10.9928 6.25607 10.8167 5.9769 10.5946 5.74174C10.3725 5.50658 10.1088 5.32004 9.81858 5.19277C9.52838 5.0655 9.21735 5 8.90324 5C8.26888 5 7.6605 5.26681 7.21193 5.74174C6.76337 6.21666 6.51137 6.8608 6.51137 7.53245C6.51137 8.20409 6.76337 8.84823 7.21193 9.32316C7.6605 9.79808 8.26888 10.0649 8.90324 10.0649ZM8.90324 8.79867C8.74618 8.7987 8.59064 8.76596 8.44552 8.70234C8.3004 8.63872 8.16854 8.54545 8.05747 8.42787C7.9464 8.31029 7.85829 8.17069 7.79818 8.01705C7.73806 7.86342 7.70712 7.69875 7.70712 7.53245C7.70712 7.36615 7.73806 7.20148 7.79818 7.04784C7.85829 6.8942 7.9464 6.75461 8.05747 6.63702C8.16854 6.51944 8.3004 6.42618 8.44552 6.36255C8.59064 6.29893 8.74618 6.2662 8.90324 6.26622C9.2204 6.26627 9.52454 6.3997 9.74878 6.63716C9.97303 6.87462 10.099 7.19666 10.099 7.53245C10.099 7.86824 9.97303 8.19028 9.74878 8.42773C9.52454 8.66519 9.2204 8.79862 8.90324 8.79867ZM16.678 15.3368C16.7746 15.4691 16.8184 15.6361 16.8001 15.8021C16.7817 15.9681 16.7027 16.12 16.58 16.2251C16.4598 16.328 16.3061 16.3765 16.1524 16.36C15.9986 16.3435 15.8572 16.2634 15.759 16.1371L14.6898 14.7613C14.4163 14.4094 14.0932 14.1042 13.7318 13.8566L12.3721 12.9253C11.9086 12.6081 11.3214 13.0671 11.4715 13.6293L13.0466 19.5173C13.2397 20.2388 13.6027 20.8967 14.1014 21.4293L15.997 23.4539C16.057 23.5181 16.104 23.5946 16.1351 23.6787C16.1663 23.7628 16.1809 23.8527 16.178 23.943C16.1751 24.0333 16.1549 24.122 16.1185 24.2037C16.0822 24.2854 16.0304 24.3584 15.9665 24.4182C15.6675 24.6974 15.213 24.6746 14.9409 24.3663L12.4833 21.5793C12.3042 21.3764 12.1692 21.1343 12.088 20.8702L11.688 19.5679C11.6575 19.4684 11.6041 19.3784 11.5327 19.3061C11.4613 19.2337 11.374 19.1812 11.2788 19.1533C11.1835 19.1254 11.0832 19.1229 10.9868 19.1461C10.8904 19.1693 10.801 19.2174 10.7265 19.2862L7.88311 21.9072C7.7542 22.0262 7.65089 22.173 7.58012 22.3378C7.50936 22.5026 7.4728 22.6816 7.4729 22.8626V25.1178C7.4729 25.2808 7.41173 25.4372 7.30284 25.5525C7.19395 25.6677 7.04627 25.7325 6.89227 25.7325C6.73828 25.7325 6.5906 25.6677 6.48171 25.5525C6.37282 25.4372 6.31164 25.2808 6.31164 25.1178V22.3238C6.31157 22.0565 6.36479 21.7922 6.46783 21.5481C6.57088 21.3041 6.72142 21.0858 6.90961 20.9076L9.0934 18.8411C9.35891 18.5898 9.54778 18.2606 9.63595 17.8953C9.72412 17.53 9.70761 17.1451 9.58852 16.7898L8.95228 14.8924C8.91714 14.7878 8.85665 14.6948 8.77686 14.6228C8.69708 14.5508 8.60081 14.5022 8.49771 14.482C8.39461 14.4618 8.28831 14.4707 8.18946 14.5077C8.09061 14.5447 8.0027 14.6086 7.93453 14.6929L7.04715 15.7914C6.41498 16.5743 5.62666 17.199 4.73898 17.6204L4.07165 17.937C3.77865 18.0763 3.43302 17.9611 3.26858 17.6686C3.19928 17.5452 3.17856 17.3979 3.21088 17.2585C3.24321 17.1191 3.326 16.9988 3.44139 16.9234L5.07983 15.8534C5.34672 15.6791 5.58604 15.4614 5.78902 15.2083L7.91361 12.5594C8.24832 12.142 8.67955 11.8238 9.16516 11.6356L9.99035 11.3159C10.4418 11.1411 10.9246 11.0755 11.4031 11.1239C11.8817 11.1723 12.3439 11.3335 12.756 11.5958L14.2126 12.5233C14.7229 12.8478 15.1715 13.2704 15.5353 13.7692L16.678 15.3368ZM13.0549 14.9012L13.0819 14.9202C13.3401 15.0969 13.571 15.3147 13.7665 15.566L14.8357 16.9418C15.1345 17.326 15.5646 17.5697 16.0323 17.6198C16.5 17.6698 16.9675 17.5221 17.3328 17.2089C17.6982 16.8956 17.9333 16.4434 17.9878 15.949C18.0424 15.4545 17.912 14.9571 17.6246 14.5632L16.4825 12.9956C16.0275 12.372 15.4666 11.8438 14.8285 11.4381L13.3719 10.5106C12.8069 10.1511 12.173 9.92999 11.5168 9.8636C10.8606 9.79721 10.1986 9.88719 9.57955 10.1269L8.75435 10.4467C8.07458 10.71 7.47092 11.1554 7.0023 11.7395L4.87712 14.389C4.75528 14.5411 4.61161 14.6718 4.45136 14.7765L2.81292 15.8465C2.43062 16.0964 2.15637 16.4953 2.04932 16.9573C1.94227 17.4193 2.011 17.9074 2.24067 18.3162C2.47011 18.7244 2.83325 19.0291 3.26103 19.1724C3.68881 19.3156 4.15138 19.2874 4.56079 19.0931L5.22812 18.7765C6.27721 18.2785 7.2089 17.5403 7.95606 16.6151L8.17133 16.3485L8.46135 17.214C8.50111 17.3324 8.50671 17.4606 8.47743 17.5824C8.44814 17.7041 8.3853 17.8139 8.2969 17.8978L6.11312 19.9649C5.79934 20.2618 5.5483 20.6255 5.37642 21.0322C5.20455 21.439 5.1157 21.8795 5.11571 22.3251V25.119C5.11571 25.6179 5.30288 26.0963 5.63605 26.4491C5.96922 26.8018 6.4211 27 6.89227 27C7.36345 27 7.81533 26.8018 8.1485 26.4491C8.48167 26.0963 8.66884 25.6179 8.66884 25.119V22.8639L10.8299 20.8708L10.9501 21.2627C11.0853 21.703 11.31 22.1065 11.6085 22.4448L14.0667 25.2317C14.4101 25.621 14.8833 25.8532 15.3858 25.8789C15.8883 25.9045 16.3804 25.7216 16.7576 25.3691C16.9436 25.1952 17.0941 24.9829 17.1999 24.7453C17.3057 24.5076 17.3646 24.2496 17.3729 23.987C17.3811 23.7244 17.3387 23.4627 17.2481 23.2181C17.1575 22.9735 17.0207 22.7511 16.8461 22.5644L14.9505 20.5391C14.5943 20.1587 14.335 19.6888 14.1971 19.1735L13.0549 14.9025V14.9012Z" fill="white"/>
<path d="M16.4615 22.6H20.1538C20.2347 22.6 20.3147 22.5819 20.3893 22.5467C20.464 22.5115 20.5318 22.46 20.589 22.395C20.6461 22.33 20.6915 22.2528 20.7224 22.1679C20.7533 22.083 20.7692 21.9919 20.7692 21.9V19.1C20.7692 19.0081 20.7533 18.917 20.7224 18.8321C20.6915 18.7472 20.6461 18.67 20.589 18.605C20.5318 18.54 20.464 18.4885 20.3893 18.4533C20.3147 18.4181 20.2347 18.4 20.1538 18.4H14.6154M14 17H20.1538C20.6435 17 21.1131 17.2212 21.4593 17.6151C21.8055 18.0089 22 18.543 22 19.1V21.9C22 22.457 21.8055 22.9911 21.4593 23.3849C21.1131 23.7788 20.6435 24 20.1538 24H17.6923" fill="white"/>
<path d="M16.5 16H18.5C18.8333 16 19 16.2222 19 16.6667V17.3333C19 17.7778 18.8333 18 18.5 18H16.5C16.1667 18 16 17.7778 16 17.3333V16.6667C16 16.2222 16.1667 16 16.5 16Z" fill="white"/>
<path d="M16 16H18V17H16V16Z" fill="white"/>
</svg>
