<svg width="32" height="32" viewBox="0 0 32 32" fill="none" xmlns="http://www.w3.org/2000/svg">
<path d="M2 6.91892C2 6.14477 2.32084 5.40233 2.89195 4.85493C3.46306 4.30753 4.23765 4 5.04532 4H26.9547C27.7624 4 28.5369 4.30753 29.108 4.85493C29.6792 5.40233 30 6.14477 30 6.91892V25.0811C30 25.8552 29.6792 26.5977 29.108 27.1451C28.5369 27.6925 27.7624 28 26.9547 28H5.04532C4.23765 28 3.46306 27.6925 2.89195 27.1451C2.32084 26.5977 2 25.8552 2 25.0811V6.91892ZM5.04532 5.2973C4.59661 5.2973 4.16629 5.46815 3.849 5.77226C3.53172 6.07637 3.35347 6.48884 3.35347 6.91892V25.0811C3.35347 25.5112 3.53172 25.9236 3.849 26.2277C4.16629 26.5319 4.59661 26.7027 5.04532 26.7027H26.9547C27.4034 26.7027 27.8337 26.5319 28.151 26.2277C28.4683 25.9236 28.6465 25.5112 28.6465 25.0811V6.91892C28.6465 6.48884 28.4683 6.07637 28.151 5.77226C27.8337 5.46815 27.4034 5.2973 26.9547 5.2973H5.04532ZM13.2508 9.48649C12.7842 9.48649 12.3222 9.57457 11.8911 9.74571C11.4601 9.91685 11.0684 10.1677 10.7385 10.4839C10.4086 10.8001 10.1469 11.1755 9.96833 11.5887C9.78978 12.0019 9.69789 12.4447 9.69789 12.8919C9.69789 13.3391 9.78978 13.7819 9.96833 14.1951C10.1469 14.6082 10.4086 14.9837 10.7385 15.2999C11.0684 15.6161 11.4601 15.8669 11.8911 16.0381C12.3222 16.2092 12.7842 16.2973 13.2508 16.2973C14.193 16.2973 15.0967 15.9385 15.763 15.2999C16.4293 14.6612 16.8036 13.7951 16.8036 12.8919C16.8036 11.9887 16.4293 11.1225 15.763 10.4839C15.0967 9.84527 14.193 9.48649 13.2508 9.48649ZM8.34441 12.8919C8.34454 12.0698 8.56951 11.2621 8.99688 10.5493C9.42425 9.83658 10.0391 9.24365 10.7801 8.82968C11.5211 8.4157 12.3624 8.19515 13.2201 8.19001C14.0777 8.18486 14.9218 8.39531 15.6682 8.80037C16.4145 9.20542 17.0371 9.79093 17.4737 10.4985C17.9103 11.2061 18.1458 12.011 18.1567 12.8331C18.1676 13.6551 17.9534 14.4655 17.5356 15.1834C17.1178 15.9014 16.511 16.5018 15.7755 16.9249C16.942 17.3996 17.9369 18.193 18.6362 19.206C19.3355 20.219 19.7082 21.4069 19.708 22.6216C19.708 22.7068 19.6905 22.7912 19.6564 22.8698C19.6224 22.9485 19.5726 23.0201 19.5097 23.0803C19.4469 23.1405 19.3723 23.1883 19.2902 23.2209C19.2081 23.2535 19.1201 23.2703 19.0312 23.2703H7.47029C7.29081 23.2703 7.11868 23.2019 6.99177 23.0803C6.86485 22.9586 6.79355 22.7937 6.79355 22.6216C6.79349 21.407 7.16632 20.2192 7.86557 19.2062C8.56483 18.1932 9.55961 17.3998 10.726 16.9249C9.99932 16.5071 9.39801 15.916 8.98063 15.2092C8.56326 14.5024 8.34406 13.7041 8.34441 12.8919ZM24.1067 8.59459C24.2862 8.59459 24.4584 8.66293 24.5853 8.78458C24.7122 8.90622 24.7835 9.07121 24.7835 9.24324V10.9492C24.7835 11.1212 24.7122 11.2862 24.5853 11.4079C24.4584 11.5295 24.2862 11.5978 24.1067 11.5978C23.9273 11.5978 23.7551 11.5295 23.6282 11.4079C23.5013 11.2862 23.43 11.1212 23.43 10.9492V9.24324C23.43 9.07121 23.5013 8.90622 23.6282 8.78458C23.7551 8.66293 23.9273 8.59459 24.1067 8.59459ZM24.1067 14.5659C24.2862 14.5659 24.4584 14.6343 24.5853 14.7559C24.7122 14.8776 24.7835 15.0426 24.7835 15.2146V16.9205C24.7835 17.0926 24.7122 17.2576 24.5853 17.3792C24.4584 17.5008 24.2862 17.5692 24.1067 17.5692C23.9273 17.5692 23.7551 17.5008 23.6282 17.3792C23.5013 17.2576 23.43 17.0926 23.43 16.9205V15.2146C23.43 15.0426 23.5013 14.8776 23.6282 14.7559C23.7551 14.6343 23.9273 14.5659 24.1067 14.5659ZM13.2508 17.7297C12.0144 17.7297 10.8201 18.1599 9.88968 18.9404C8.95928 19.7208 8.35608 20.7984 8.19215 21.973H18.3094C18.1454 20.7984 17.5422 19.7208 16.6118 18.9404C15.6814 18.1599 14.4871 17.7297 13.2508 17.7297ZM24.1067 20.5373C24.2862 20.5373 24.4584 20.6056 24.5853 20.7273C24.7122 20.8489 24.7835 21.0139 24.7835 21.1859V22.8919C24.7835 23.0639 24.7122 23.2289 24.5853 23.3506C24.4584 23.4722 24.2862 23.5405 24.1067 23.5405C23.9273 23.5405 23.7551 23.4722 23.6282 23.3506C23.5013 23.2289 23.43 23.0639 23.43 22.8919V21.1859C23.43 21.0139 23.5013 20.8489 23.6282 20.7273C23.7551 20.6056 23.9273 20.5373 24.1067 20.5373Z" fill="white"/>
</svg>
