<svg width="32" height="32" viewBox="0 0 32 32" fill="none" xmlns="http://www.w3.org/2000/svg">
<path d="M14.25 30H5.5C3.56917 30 2 28.4308 2 26.5V5.5C2 3.56917 3.56917 2 5.5 2H24.75C26.6808 2 28.25 3.56917 28.25 5.5V12.5C28.25 12.9842 27.8592 13.375 27.375 13.375C26.8908 13.375 26.5 12.9842 26.5 12.5V5.5C26.5 5.03333 26.3133 4.59 25.9867 4.26333C25.66 3.93667 25.2167 3.75 24.75 3.75H5.5C5.03333 3.75 4.59 3.93667 4.26333 4.26333C3.93667 4.59 3.75 5.03333 3.75 5.5V26.5058C3.75 26.969 3.93357 27.4132 4.2605 27.7412C4.58743 28.0692 5.03105 28.2543 5.49417 28.2558L14.0225 28.2792C14.3492 28.1917 14.6992 28.3025 14.9208 28.5592C15.0275 28.6872 15.0955 28.8429 15.1171 29.0081C15.1386 29.1733 15.1126 29.3413 15.0423 29.4923C14.972 29.6434 14.8602 29.7713 14.7199 29.8612C14.5796 29.9511 14.4166 29.9992 14.25 30ZM22.125 14.25C26.4767 14.25 30 17.7733 30 22.125C30 26.4767 26.4767 30 22.125 30C17.7733 30 14.25 26.4767 14.25 22.125C14.25 17.7733 17.7733 14.25 22.125 14.25ZM22.125 28.25C25.5083 28.25 28.25 25.5083 28.25 22.125C28.25 18.7417 25.5083 16 22.125 16C18.7417 16 16 18.7417 16 22.125C16 25.5083 18.7417 28.25 22.125 28.25ZM23.28 20.8242L25.625 21.2967L23.9917 23.1283L24.2892 25.625L22.125 24.5575L19.9608 25.625L20.2583 23.1283L18.625 21.2967L20.97 20.8242L22.125 18.625L23.28 20.8242ZM22.125 9C22.6092 9 23 9.39083 23 9.875C23 10.3592 22.6092 10.75 22.125 10.75H8.125C7.64083 10.75 7.25 10.3592 7.25 9.875C7.25 9.39083 7.64083 9 8.125 9H22.125ZM13.375 14.25C13.8592 14.25 14.25 14.6408 14.25 15.125C14.25 15.6092 13.8592 16 13.375 16H8.125C7.64083 16 7.25 15.6092 7.25 15.125C7.25 14.6408 7.64083 14.25 8.125 14.25H13.375ZM7.25 20.375C7.25 19.8908 7.64083 19.5 8.125 19.5H9.875C10.3592 19.5 10.75 19.8908 10.75 20.375C10.75 20.8592 10.3592 21.25 9.875 21.25H8.125C7.64083 21.25 7.25 20.8592 7.25 20.375Z" fill="white"/>
</svg>
