<svg width="32" height="32" viewBox="0 0 32 32" fill="none" xmlns="http://www.w3.org/2000/svg">
<path d="M23 5V7.33333H4V5H23ZM12.3125 10.8333V13.1667H4V10.8333H12.3125ZM8.75 16.6667V19H4V16.6667H8.75Z" fill="white"/>
<path d="M4.12 32C3.32418 32 2.55842 31.6659 1.97941 31.066C1.40039 30.466 1.05189 29.6456 1.0052 28.7726L1 28.5714V3.42857C0.999956 2.55405 1.30402 1.71255 1.84998 1.07627C2.39593 0.439992 3.14251 0.0570202 3.93696 0.00571469L4.12 5.3251e-09H23.88C24.6758 -4.87054e-05 25.4416 0.334086 26.0206 0.934039C26.5996 1.53399 26.9481 2.35441 26.9948 3.22743L27 3.42857V10.4217H24.92V3.42857C24.92 3.14865 24.8264 2.87847 24.6572 2.66929C24.4879 2.46011 24.2547 2.32646 24.0017 2.29371L23.88 2.28571H4.12C3.86527 2.28575 3.61941 2.38852 3.42905 2.57453C3.2387 2.76054 3.11708 3.01686 3.08728 3.29486L3.08 3.42857V28.5714C3.08003 28.8514 3.17355 29.1215 3.34282 29.3307C3.51209 29.5399 3.74534 29.6735 3.99832 29.7063L4.12 29.7143H12.44V32H4.12Z" fill="white"/>
<path d="M22 14C19.6131 14 17.3239 14.9482 15.636 16.636C13.9482 18.3239 13 20.6131 13 23C13 25.3869 13.9482 27.6761 15.636 29.364C17.3239 31.0518 19.6131 32 22 32C24.3869 32 26.6761 31.0518 28.364 29.364C30.0518 27.6761 31 25.3869 31 23C31 20.6131 30.0518 18.3239 28.364 16.636C26.6761 14.9482 24.3869 14 22 14ZM22 16C23.8565 16 25.637 16.7375 26.9497 18.0503C28.2625 19.363 29 21.1435 29 23C29 24.8565 28.2625 26.637 26.9497 27.9497C25.637 29.2625 23.8565 30 22 30C20.1435 30 18.363 29.2625 17.0503 27.9497C15.7375 26.637 15 24.8565 15 23C15 21.1435 15.7375 19.363 17.0503 18.0503C18.363 16.7375 20.1435 16 22 16Z" fill="white"/>
<path d="M20.3092 20.7163L17.6898 20.904L17.5616 20.9236C17.429 20.9553 17.3082 21.0206 17.2125 21.1125C17.1168 21.2044 17.0499 21.3193 17.0191 21.4445C16.9883 21.5697 16.9948 21.7005 17.0379 21.8225C17.081 21.9445 17.1591 22.053 17.2635 22.1361L19.2656 23.7351L18.6469 26.1336L18.626 26.254C18.6171 26.3823 18.6459 26.5105 18.7094 26.6244C18.7728 26.7384 18.8685 26.8337 18.9858 26.9C19.1032 26.9662 19.2377 27.0008 19.3746 27C19.5116 26.9992 19.6456 26.9629 19.762 26.8953L21.9997 25.5987L24.2374 26.8953L24.3522 26.9499C24.4793 26.9975 24.618 27.0113 24.7529 26.9899C24.8879 26.9684 25.0139 26.9124 25.1173 26.8281C25.2206 26.7438 25.2972 26.6344 25.3387 26.5118C25.3802 26.3893 25.385 26.2585 25.3525 26.1336L24.7323 23.7351L26.736 22.1361L26.8269 22.0507C26.9147 21.9519 26.9718 21.8322 26.9919 21.7049C27.012 21.5776 26.9944 21.4475 26.9409 21.329C26.8875 21.2105 26.8003 21.1081 26.6889 21.0331C26.5775 20.9582 26.4463 20.9135 26.3096 20.904L23.6888 20.7163L22.6899 18.4341C22.6338 18.3057 22.5383 18.1958 22.4155 18.1186C22.2927 18.0413 22.1483 18 22.0005 18C21.8527 18 21.7082 18.0413 21.5854 18.1186C21.4627 18.1958 21.3671 18.3057 21.311 18.4341L20.3092 20.7163Z" fill="white"/>
</svg>
