<svg width="28" height="28" viewBox="0 0 28 28" fill="none" xmlns="http://www.w3.org/2000/svg">
<path d="M17.4568 0C17.9041 0 18.2726 0.340243 18.3168 0.77592L18.321 0.864439V2.14312C20.6309 2.98618 22.6444 4.48568 24.1141 6.45746C25.5839 8.42924 26.446 10.7875 26.5945 13.2425L26.6055 13.4631L27.5223 13.9223C27.7857 14.0537 27.962 14.3096 27.9945 14.598L28 14.6955V17.4617C28 17.8095 27.7919 18.1235 27.4711 18.2583C26.6761 18.593 25.881 18.898 25.0859 19.174L25.1896 19.1988C24.5815 21.702 23.1523 23.9291 21.1304 25.5244C19.1085 27.1198 16.6104 27.9913 14.0351 27.9999C11.4599 28.0085 8.95603 27.1537 6.92348 25.5718C4.89093 23.99 3.44694 21.7725 2.82212 19.2735L2.78756 19.1297C2.0259 18.8625 1.27265 18.5719 0.528889 18.2583C0.38685 18.1986 0.263363 18.1019 0.171222 17.9784C0.0790814 17.8549 0.0216365 17.7089 0.0048393 17.5557L0 17.4617V14.6955C0 14.4009 0.150025 14.1284 0.393383 13.9707L0.477728 13.9223L1.39378 13.4631L1.40553 13.2418C1.55405 10.7868 2.41612 8.42855 3.88589 6.45677C5.35565 4.48498 7.36912 2.98549 9.67901 2.14243V0.864439C9.67901 0.417006 10.0192 0.0484084 10.4547 0.00414913L10.5432 0H17.4568ZM4.77245 19.7632L4.83882 19.9436C5.54268 21.8038 6.79587 23.4056 8.43179 24.5361C10.0677 25.6666 12.0089 26.2724 13.9972 26.2727C18.1952 26.2727 21.8573 23.6068 23.2206 19.7652C20.1503 20.6497 17.0765 21.0923 14 21.0923C10.9214 21.0923 7.84553 20.649 4.77245 19.7632ZM16.5926 1.72888H11.4074V12.6208C11.4075 12.8348 11.3282 13.0413 11.1849 13.2002C11.0417 13.3591 10.8445 13.4592 10.6317 13.4811L10.5432 13.4852C10.3293 13.4853 10.1229 13.4061 9.96402 13.2627C9.80514 13.1194 9.70507 12.9222 9.68316 12.7093L9.67901 12.6208V4.0027C7.72828 4.84715 6.06709 6.24393 4.90008 8.02099C3.73307 9.79804 3.11121 11.8777 3.11111 14.0039C3.11111 14.2985 2.96109 14.571 2.71773 14.7287L2.63338 14.7771L1.7284 15.23V16.8822L2.14943 17.0502C5.94775 18.5315 9.73847 19.3005 13.5264 19.36L14 19.3634C17.9456 19.3634 21.8939 18.5937 25.8506 17.0502L26.2716 16.8822V15.23L25.3666 14.7771C25.2379 14.7127 25.1273 14.6172 25.0448 14.4992C24.9624 14.3812 24.9107 14.2445 24.8944 14.1014L24.8889 14.0039C24.8889 9.59666 22.2479 5.70046 18.3217 4.0027L18.321 12.6208C18.322 12.8431 18.2374 13.0572 18.0847 13.2188C17.932 13.3803 17.723 13.4767 17.5011 13.4881C17.2792 13.4995 17.0614 13.425 16.893 13.2799C16.7246 13.1349 16.6185 12.9306 16.5967 12.7093L16.5926 12.6208V1.72888Z" fill="white"/>
</svg>
