<svg width="16" height="16" viewBox="0 0 16 16" fill="none" xmlns="http://www.w3.org/2000/svg">
<g clip-path="url(#clip0_3105_24049)">
<mask id="mask0_3105_24049" style="mask-type:luminance" maskUnits="userSpaceOnUse" x="0" y="0" width="16" height="16">
<path d="M16 0H0V16H16V0Z" fill="white"/>
</mask>
<g mask="url(#mask0_3105_24049)">
<path fill-rule="evenodd" clip-rule="evenodd" d="M3.99545 11.9167H12.8467C13.1497 11.906 13.402 11.8026 13.6038 11.6067C13.8056 11.4108 13.9122 11.1662 13.9236 10.8729V4.08773C13.9124 3.79406 13.8058 3.54945 13.6038 3.35389C13.4017 3.15834 13.1493 3.055 12.8467 3.04387H3.15437C2.85136 3.05465 2.59908 3.158 2.3973 3.35389C2.1955 3.54979 2.08889 3.79441 2.07745 4.08773V13.4011L3.99545 11.9167ZM4.36538 12.9606L1.875 14.8855C1.69555 15.016 1.50756 15.035 1.31117 14.9424C1.1149 14.8498 1.01118 14.6948 1 14.4773V4.08773C1.01118 3.50038 1.22151 3.00837 1.63114 2.61171C2.04064 2.21504 2.54821 2.01114 3.15385 2H12.8462C13.452 2.01078 13.9598 2.21469 14.3688 2.61171C14.778 3.00872 14.9886 3.50073 15 4.08773V10.8729C14.9888 11.4602 14.7785 11.9522 14.3688 12.3489C13.9594 12.7456 13.4518 12.9494 12.8462 12.9606H4.36538ZM8 8.05129C7.75299 8.05129 7.54817 7.97248 7.38555 7.81486C7.22294 7.65723 7.14169 7.45872 7.14169 7.21933C7.14169 6.97994 7.22294 6.78143 7.38555 6.6238C7.54817 6.46618 7.75299 6.38737 8 6.38737C8.24701 6.38737 8.45183 6.46618 8.61445 6.6238C8.77707 6.78143 8.85831 6.97994 8.85831 7.21933C8.85831 7.45872 8.77707 7.65723 8.61445 7.81486C8.45183 7.97248 8.24701 8.05129 8 8.05129ZM11.2308 8.05129C10.9837 8.05129 10.7789 7.97248 10.6163 7.81486C10.4537 7.65723 10.3725 7.45872 10.3725 7.21933C10.3725 6.97994 10.4537 6.78143 10.6163 6.6238C10.7789 6.46618 10.9837 6.38737 11.2308 6.38737C11.4778 6.38737 11.6826 6.46618 11.8453 6.6238C12.0079 6.78143 12.0891 6.97994 12.0891 7.21933C12.0891 7.45872 12.0079 7.65723 11.8453 7.81486C11.6826 7.97248 11.4778 8.05129 11.2308 8.05129ZM4.76923 8.05129C4.52222 8.05129 4.3174 7.97248 4.15478 7.81486C3.99217 7.65723 3.91092 7.45872 3.91092 7.21933C3.91092 6.97994 3.99217 6.78143 4.15478 6.6238C4.3174 6.46618 4.52222 6.38737 4.76923 6.38737C5.01624 6.38737 5.22107 6.46618 5.38368 6.6238C5.5463 6.78143 5.62754 6.97994 5.62754 7.21933C5.62754 7.45872 5.5463 7.65723 5.38368 7.81486C5.22107 7.97248 5.01624 8.05129 4.76923 8.05129Z" fill="#409EFF"/>
</g>
</g>
<defs>
<clipPath id="clip0_3105_24049">
<rect width="16" height="16" fill="white"/>
</clipPath>
</defs>
</svg>
