<svg width="14" height="14" viewBox="0 0 14 14" fill="none" xmlns="http://www.w3.org/2000/svg">
<g clip-path="url(#clip0_3038_3332)">
<path d="M5.62191 10.0625C5.54635 10.0626 5.47255 10.0368 5.41038 9.98858C5.3482 9.94035 5.3006 9.87199 5.27392 9.7926C5.24724 9.71321 5.24276 9.62657 5.26107 9.54425C5.27938 9.46193 5.3196 9.38783 5.37639 9.33184L7.81448 6.92598L5.51112 4.66903C5.43687 4.59629 5.3914 4.49341 5.3847 4.38302C5.37801 4.27263 5.41065 4.16378 5.47543 4.08041C5.54021 3.99704 5.63183 3.94598 5.73014 3.93846C5.82845 3.93095 5.92539 3.96759 5.99964 4.04033L8.62272 6.6106C8.66261 6.64968 8.6946 6.69788 8.71655 6.75197C8.7385 6.80605 8.74991 6.86479 8.75 6.92423C8.75009 6.98367 8.73887 7.04244 8.71709 7.09662C8.69531 7.15079 8.66347 7.19912 8.6237 7.23835L5.8673 9.95864C5.79951 10.0257 5.71225 10.0626 5.62191 10.0625Z" fill="white"/>
<path d="M7.00292 14H6.95826C5.10147 13.9886 3.32525 13.2402 2.02035 11.9194C0.71545 10.5986 -0.0112451 8.81367 0.000131595 6.95717C0.0115083 5.10067 0.760024 3.32473 2.08102 2.02004C3.40201 0.715338 5.18726 -0.0112434 7.04405 0.000131574C8.65922 0.0109925 10.221 0.579756 11.4648 1.61007C12.7086 2.64039 13.5579 4.06892 13.8689 5.65365C14.18 7.23839 13.9335 8.8819 13.1714 10.3058C12.4093 11.7296 11.1783 12.8463 9.68698 13.4667C8.83645 13.8204 7.9241 14.0017 7.00292 14ZM7.0009 0.885614C3.64645 0.885614 0.906487 3.6035 0.886508 6.96229C0.881554 7.76523 1.03483 8.56129 1.33758 9.305C1.64033 10.0487 2.08663 10.7255 2.65099 11.2968C3.21535 11.868 3.88673 12.3226 4.62678 12.6344C5.36683 12.9462 6.16107 13.1092 6.96413 13.1142H7.00292C8.61808 13.1139 10.1675 12.4748 11.313 11.3363C12.4585 10.1978 13.107 8.65237 13.1168 7.03749C13.1376 3.66611 10.4113 0.906429 7.03918 0.885614H7.0009Z" fill="white"/>
</g>
<defs>
<clipPath id="clip0_3038_3332">
<rect width="14" height="14" fill="white"/>
</clipPath>
</defs>
</svg>
