<svg width="12" height="14" viewBox="0 0 12 14" fill="none" xmlns="http://www.w3.org/2000/svg">
<path d="M6 1.74998C8.94567 1.74998 11.3333 4.257 11.3333 7.34992V11.1999H11.5C11.6326 11.1999 11.7598 11.2552 11.8536 11.3536C11.9473 11.4521 12 11.5856 12 11.7249C12 11.8641 11.9473 11.9976 11.8536 12.0961C11.7598 12.1945 11.6326 12.2499 11.5 12.2499L8.47267 12.2502C8.27329 12.7672 7.93144 13.21 7.49091 13.5217C7.05038 13.8335 6.53124 14 6 14C5.46876 14 4.94962 13.8335 4.50909 13.5217C4.06856 13.21 3.72671 12.7672 3.52733 12.2502L0.5 12.2499C0.367392 12.2499 0.240215 12.1945 0.146447 12.0961C0.0526785 11.9976 0 11.8641 0 11.7249C0 11.5856 0.0526785 11.4521 0.146447 11.3536C0.240215 11.2552 0.367392 11.1999 0.5 11.1999H0.666667V7.34992C0.666667 4.257 3.05433 1.74998 6 1.74998ZM7.33333 12.2502H4.66667C4.8218 12.4676 5.0231 12.6441 5.25455 12.7656C5.48601 12.887 5.74125 12.9501 6 12.9499C6.25875 12.9501 6.51399 12.887 6.74545 12.7656C6.97691 12.6441 7.1782 12.4676 7.33333 12.2502ZM6 2.79997C3.641 2.79997 1.72233 4.7792 1.668 7.24247L1.66667 7.34992V11.1999H10.3333V7.34992C10.3333 4.83694 8.39333 2.79997 6 2.79997ZM6.53 4.5552C6.55447 4.49122 6.5907 4.43292 6.63662 4.38365C6.68255 4.33437 6.73727 4.29507 6.79766 4.268C6.85805 4.24092 6.92292 4.22661 6.98858 4.22586C7.05424 4.22511 7.1194 4.23796 7.18033 4.26365C7.76697 4.51117 8.26963 4.93737 8.62363 5.48739C8.97762 6.03741 9.16675 6.68608 9.16667 7.34992C9.16667 7.48915 9.11399 7.62269 9.02022 7.72114C8.92645 7.8196 8.79928 7.87491 8.66667 7.87491C8.53406 7.87491 8.40688 7.8196 8.31311 7.72114C8.21935 7.62269 8.16667 7.48915 8.16667 7.34992C8.16672 6.89565 8.03728 6.45177 7.79503 6.0754C7.55277 5.69902 7.20878 5.40739 6.80733 5.23804C6.68433 5.18609 6.58601 5.08497 6.53401 4.95691C6.482 4.82886 6.48056 4.68437 6.53 4.5552ZM7.04167 0C7.387 0 7.66667 0.235197 7.66667 0.524994C7.66667 0.814791 7.38667 1.04999 7.04167 1.04999H4.95833C4.613 1.04999 4.33333 0.814791 4.33333 0.524994C4.33333 0.235197 4.61333 0 4.95833 0H7.04167Z" fill="#666666"/>
</svg>
