<svg width="22" height="22" viewBox="0 0 22 22" fill="none" xmlns="http://www.w3.org/2000/svg">
<circle cx="11" cy="11" r="10" stroke="#666666" stroke-width="0.5"/>
<g clip-path="url(#clip0_4438_128)">
<path d="M10.9985 12.2089C8.7076 12.2089 6.92578 10.4271 6.92578 8.1362C6.92578 5.90893 8.7076 4.06348 10.9985 4.06348C13.2894 4.06348 15.0712 5.84529 15.0712 8.1362C15.0712 10.4271 13.2894 12.2089 10.9985 12.2089ZM10.9985 11.3817C12.7803 11.3817 14.244 9.91802 14.244 8.1362C14.244 6.35439 12.7803 4.89075 10.9985 4.89075C9.21669 4.89075 7.75305 6.35439 7.75305 8.1362C7.75305 9.91802 9.21669 11.3817 10.9985 11.3817Z" fill="#666666"/>
<path d="M10.9996 12.3364C8.6451 12.3364 6.86328 10.4909 6.86328 8.2C6.86328 5.90909 8.6451 4 10.9996 4C13.3542 4 15.136 5.84545 15.136 8.13636C15.136 10.4273 13.3542 12.3364 10.9996 12.3364ZM10.9996 4.19091C8.77237 4.19091 7.05419 5.90909 7.05419 8.13636C7.05419 10.3636 8.77237 12.0818 10.9996 12.0818C13.2269 12.0818 14.9451 10.3636 14.9451 8.13636C14.9451 5.90909 13.2269 4.19091 10.9996 4.19091ZM10.9996 11.5091C9.15419 11.5091 7.62692 9.98182 7.62692 8.13636C7.62692 6.29091 9.15419 4.82727 10.9996 4.82727C12.8451 4.82727 14.3724 6.35455 14.3724 8.2C14.3724 10.0455 12.8451 11.5091 10.9996 11.5091ZM10.9996 5.01818C9.28146 5.01818 7.81783 6.41818 7.81783 8.2C7.81783 9.98182 9.21783 11.3818 10.9996 11.3818C12.7178 11.3818 14.1815 9.98182 14.1815 8.2C14.1815 6.41818 12.7178 5.01818 10.9996 5.01818Z" fill="#666666"/>
<path d="M4.50781 17.9362C4.50781 14.3726 7.43509 11.4453 10.9987 11.4453C14.5624 11.4453 17.4896 14.3726 17.4896 17.9362H16.6624C16.6624 14.7544 14.1169 12.2726 10.9987 12.2726C7.88054 12.2726 5.33509 14.818 5.33509 17.9362H4.50781Z" fill="#666666"/>
<path d="M17.6192 18.0002H16.601V17.9365C16.601 14.8184 14.1192 12.3365 11.001 12.3365C7.88281 12.3365 5.40099 14.8184 5.40099 17.9365V18.0002H4.38281V17.9365C4.38281 14.3093 7.31009 11.3184 11.001 11.3184C14.6919 11.3184 17.6192 14.2456 17.6192 17.9365V18.0002ZM16.7919 17.8093H17.4283C17.3646 14.3093 14.501 11.5093 11.001 11.5093C7.50099 11.5093 4.63736 14.3093 4.57372 17.8093H5.21009C5.27372 14.6275 7.75554 12.1456 11.001 12.1456C14.2464 12.1456 16.7283 14.6275 16.7919 17.8093Z" fill="#666666"/>
</g>
<defs>
<clipPath id="clip0_4438_128">
<rect width="14" height="14" fill="white" transform="translate(4 4)"/>
</clipPath>
</defs>
</svg>
