<svg width="16" height="16" xmlns="http://www.w3.org/2000/svg">
<path d="M11.4026 5H14.5974C14.8312 5 15 5.19207 15 5.48018C15 5.76829 14.8442 5.96037 14.5974 5.96037H11.4026C11.1688 5.96037 11 5.76829 11 5.48018C11 5.19207 11.1558 5 11.4026 5ZM11.4026 9.01982H14.5974C14.8312 9.01982 15 9.21189 15 9.5C15 9.78811 14.8442 9.98018 14.5974 9.98018H11.4026C11.1688 9.98018 11 9.78811 11 9.5C11 9.21189 11.1558 9.01982 11.4026 9.01982ZM13.6364 13.0396H14.5455C14.8182 13.0396 15 13.2317 15 13.5198C15 13.8079 14.8182 14 14.5455 14H13.6364C13.3636 14 13.1818 13.8079 13.1818 13.5198C13.1818 13.2317 13.3636 13.0396 13.6364 13.0396Z" />
<path d="M2.00986 15H13C13 11.9763 11.3374 9.40062 9.01255 8.42073C10.4497 7.56683 11.3233 5.85902 10.8583 3.98323C10.5202 2.58338 9.3648 1.44951 7.94172 1.11355C5.29281 0.497615 2.95389 2.47139 2.95389 5.00511C2.95389 6.46095 3.75701 7.73481 4.92647 8.43473C2.88344 9.27464 1.36172 11.3464 1.00948 13.8801C0.924936 14.4821 1.41808 15 2.00986 15ZM5.3069 9.34463L5.34917 9.33063C5.53234 9.26064 5.68733 9.13465 5.80005 8.96667C5.91277 8.79869 5.96913 8.60271 5.96913 8.42073V8.46273C5.96913 8.29475 5.92686 8.12677 5.84232 7.97278C5.75778 7.8188 5.63097 7.69281 5.47598 7.60882L5.43371 7.58083C4.50378 7.02089 3.95427 6.055 3.95427 5.00511C3.95427 3.3533 5.3069 2.00945 6.96951 2.00945C8.63212 2.00945 9.98476 3.3533 9.98476 5.00511C9.98476 6.055 9.43525 7.02089 8.50531 7.56683L8.46305 7.59482C8.32215 7.67882 8.19534 7.8048 8.09671 7.95878C8.02626 8.11277 7.98399 8.28075 7.98399 8.44873V8.40673C7.98399 8.60271 8.04035 8.78469 8.15307 8.95267C8.26579 9.12065 8.42077 9.24664 8.60394 9.31663L8.64621 9.33063C10.3793 10.0725 11.6333 11.8783 11.9292 13.9921H2.00986C2.31984 11.8783 3.55975 10.0725 5.3069 9.34463Z" />
</svg>
