<svg width="16" height="16" viewBox="0 0 16 16" fill="none" xmlns="http://www.w3.org/2000/svg">
<g clip-path="url(#clip0_3105_31405)">
<path d="M12.9639 9.36175C14.1025 8.61685 14.7906 7.23107 14.5103 5.70352C14.2692 4.38962 13.2601 3.29463 11.9831 2.95537C11.1479 2.73283 10.3534 2.82795 9.66699 3.13128C9.81066 3.43825 9.92409 3.76136 9.98801 4.10416C10.3161 3.94442 10.6779 3.84749 11.0663 3.84749C12.6553 3.84749 13.9021 5.3517 13.4924 7.0264C13.3345 7.67083 12.8876 8.20396 12.3361 8.56294L12.5258 8.43914C12.3892 8.5289 12.2722 8.6509 12.1889 8.80528C12.1085 8.95388 12.0664 9.12056 12.0665 9.28995V9.41021C12.0665 9.59509 12.1162 9.78361 12.2208 9.95055C12.3255 10.1193 12.4709 10.2449 12.6358 10.3239L12.5294 10.2718C13.8489 10.9108 14.7693 12.3092 15.0087 13.9857H11.0663C11.1071 14.3178 11.1337 14.6553 11.1337 14.9999H14.991C15.594 14.9999 16.0799 14.4614 15.9894 13.8583C15.6791 11.8174 14.5458 10.1264 12.9639 9.36175Z" fill="#4A87C5"/>
<path d="M1.02682 15H12.1667C12.1667 11.9704 10.4814 9.39919 8.12857 8.42415C9.59015 7.56765 10.4724 5.86005 9.99786 3.98252C9.64242 2.57566 8.46961 1.44135 7.02976 1.11225C4.35038 0.49994 1.97046 2.47659 1.97046 4.99996C1.97046 6.4599 2.77698 7.72513 3.96966 8.42414C1.91269 9.27711 0.366457 11.3511 0.00919116 13.8834C-0.0738401 14.4762 0.416937 15 1.02682 15ZM4.36661 9.34612L4.4063 9.33018C4.58494 9.25584 4.74369 9.13199 4.85918 8.96207C4.97469 8.79223 5.0288 8.59932 5.0288 8.40999V8.45071C5.0288 8.28256 4.98546 8.11272 4.89524 7.95695C4.80501 7.80126 4.67873 7.67734 4.53083 7.59241L4.49107 7.56942C3.55107 7.01905 2.98991 6.06 2.98991 5.00531C2.98991 3.35069 4.36115 2.00582 6.04824 2.00582C7.73527 2.00582 9.10651 3.35069 9.10651 5.00531C9.10651 6.06 8.54541 7.01912 7.60534 7.56942L7.56565 7.59241C7.41948 7.67913 7.29141 7.80124 7.20119 7.95695C7.11096 8.11272 7.06762 8.28256 7.06762 8.45071V8.4082C7.06762 8.59753 7.12181 8.79046 7.23723 8.96037C7.34814 9.12392 7.50563 9.25189 7.6901 9.32838L7.72987 9.34431C9.49989 10.077 10.7665 11.8801 11.0732 13.9984H1.02317C1.32997 11.8819 2.59659 10.0788 4.36661 9.34612Z" fill="#409EFF"/>
</g>
<defs>
<clipPath id="clip0_3105_31405">
<rect width="16" height="16" fill="white"/>
</clipPath>
</defs>
</svg>
