<svg width="16" height="16" viewBox="0 0 16 16" fill="none" xmlns="http://www.w3.org/2000/svg">
<path d="M14.4423 11.0923L12.5219 9.56616C11.931 9.07382 11.0937 9.1231 10.5521 9.66457L9.66578 10.4523C8.77926 9.91082 7.99134 9.32007 7.30279 8.63076C6.61423 7.94145 6.02239 7.15389 5.48078 6.26839L6.31784 5.4314C6.85961 4.88977 6.9089 4.05293 6.41643 3.46218L4.8891 1.54147L4.79051 1.44306C4.2489 0.852313 3.31325 0.852313 2.72234 1.44306L1.39218 2.77287C0.161083 4.05293 1.93395 7.45067 5.23337 10.7483C8.53279 14.0459 11.9796 15.8684 13.26 14.5883L14.5902 13.2585C14.6395 13.2585 14.6395 13.2092 14.6888 13.1601C15.1809 12.5201 15.0825 11.5847 14.4423 11.0923ZM13.9007 12.5693L12.5219 13.9477C11.8817 14.5877 8.77927 13.0124 5.92318 10.1078C3.06709 7.20317 1.44195 4.15071 2.08215 3.51068L3.41231 2.18087C3.60933 1.9839 3.90478 1.9839 4.1018 2.18087C4.10831 2.18074 4.11477 2.18193 4.12081 2.18436C4.12685 2.18679 4.13234 2.19042 4.13694 2.19502C4.14154 2.19962 4.14517 2.20511 4.1476 2.21114C4.15003 2.21718 4.15122 2.22365 4.15109 2.23015L5.72616 4.15071C5.87388 4.34768 5.87388 4.59377 5.67702 4.79074L4.54435 5.92311C4.39662 6.0708 4.34733 6.31689 4.44592 6.51386C5.02636 7.58013 5.75596 8.55819 6.61267 9.41848C7.47315 10.275 8.45147 11.0044 9.51805 11.5847C9.71492 11.6831 9.96107 11.6339 10.109 11.4863L11.2415 10.4025C11.3892 10.2056 11.6846 10.2056 11.8817 10.3533L13.8021 11.8794C14.0484 12.0277 14.0484 12.3724 13.9007 12.5693Z" fill="#409EFF"/>
</svg>
