<svg width="22" height="22" viewBox="0 0 22 22" fill="none" xmlns="http://www.w3.org/2000/svg">
<path d="M14.8636 3.28027H7.13559C6.59159 3.28027 6.18359 3.72027 6.18359 4.23227V17.7443C6.18359 18.2883 6.62359 18.6963 7.13559 18.6963H14.8556C15.3996 18.6963 15.8316 18.2563 15.8316 17.7443V4.23227C15.8156 3.71227 15.3996 3.28027 14.8636 3.28027ZM10.9996 17.7683C10.4556 17.7683 10.0476 17.3283 10.0476 16.8163C10.0476 16.2723 10.4876 15.8643 10.9996 15.8643C11.5436 15.8643 11.9756 16.3043 11.9756 16.8163C11.9516 17.3363 11.5436 17.7683 10.9996 17.7683ZM14.8636 14.8643H7.13559V5.20827H14.8556V14.8643H14.8636Z" fill="#666666"/>
<circle cx="11" cy="11" r="10" stroke="#666666" stroke-width="0.5"/>
</svg>
