<svg width="16" height="16" xmlns="http://www.w3.org/2000/svg">
<path d="M1.46667 10.5234V14.066C1.46667 14.1899 1.51583 14.3087 1.60335 14.3962C1.69087 14.4838 1.80957 14.533 1.93333 14.533H14.0667C14.1904 14.533 14.3091 14.4838 14.3967 14.3962C14.4842 14.3087 14.5333 14.1899 14.5333 14.066V1.97261C14.5333 1.84875 14.4842 1.72997 14.3967 1.64239C14.3091 1.55482 14.1904 1.50562 14.0667 1.50562H11.9123L8.85633 4.25619C8.82283 4.28644 8.78129 4.30633 8.73672 4.31344C8.69216 4.32054 8.6465 4.31457 8.60526 4.29623C8.56402 4.2779 8.52898 4.24799 8.50438 4.21013C8.47978 4.17227 8.46668 4.12809 8.46667 4.08293V1.46709L7.06667 1.49604V5.38654L5.36497 7.08942C5.33233 7.12206 5.29076 7.14429 5.24551 7.1533C5.20025 7.1623 5.15334 7.15768 5.11071 7.14001C5.06808 7.12234 5.03165 7.09242 5.00601 7.05403C4.98037 7.01564 4.96668 6.97051 4.96667 6.92434V4.07406H3.56667V8.42197L1.46667 10.5234ZM8.93333 3.55874L11.6668 1.09863C11.7097 1.06002 11.7653 1.03864 11.8229 1.03862H14.0667C14.3142 1.03862 14.5516 1.13703 14.7266 1.31218C14.9017 1.48734 15 1.7249 15 1.97261V14.066C15 14.3137 14.9017 14.5513 14.7266 14.7264C14.5516 14.9016 14.3142 15 14.0667 15H1.93333C1.6858 15 1.4484 14.9016 1.27337 14.7264C1.09833 14.5513 1 14.3137 1 14.066V10.4268C1.00001 10.3648 1.02461 10.3055 1.06837 10.2617L3.1 8.22864V4.07406C3.1 3.95021 3.14917 3.83143 3.23668 3.74385C3.3242 3.65627 3.4429 3.60707 3.56667 3.60707H4.96667C5.09043 3.60707 5.20913 3.65627 5.29665 3.74385C5.38417 3.83143 5.43333 3.95021 5.43333 4.07406V6.36068L6.6 5.1932V1.49604C6.59997 1.37383 6.64783 1.25648 6.73328 1.16917C6.81874 1.08186 6.935 1.03156 7.0571 1.02905L8.4571 1.0001C8.51918 0.998824 8.5809 1.00996 8.63863 1.03286C8.69635 1.05576 8.74893 1.08995 8.79328 1.13345C8.83764 1.17694 8.87287 1.22885 8.89692 1.28614C8.92097 1.34343 8.93335 1.40495 8.93333 1.46709V3.55874Z" />
<path d="M3.4 10.4286V12.5714H4.6V10.4286H3.4ZM3.4 10H4.6C4.70609 10 4.80783 10.0452 4.88284 10.1255C4.95786 10.2059 5 10.3149 5 10.4286V12.5714C5 12.6851 4.95786 12.7941 4.88284 12.8745C4.80783 12.9548 4.70609 13 4.6 13H3.4C3.29391 13 3.19217 12.9548 3.11716 12.8745C3.04214 12.7941 3 12.6851 3 12.5714V10.4286C3 10.3149 3.04214 10.2059 3.11716 10.1255C3.19217 10.0452 3.29391 10 3.4 10Z" />
<path d="M11.4615 6.4375V8.625H12.6154V6.4375H11.4615ZM11.4615 6H12.6154C12.7174 6 12.8152 6.04609 12.8873 6.12814C12.9595 6.21019 13 6.32147 13 6.4375V8.625C13 8.74103 12.9595 8.85231 12.8873 8.93436C12.8152 9.01641 12.7174 9.0625 12.6154 9.0625H11.4615C11.3595 9.0625 11.2617 9.01641 11.1896 8.93436C11.1174 8.85231 11.0769 8.74103 11.0769 8.625V6.4375C11.0769 6.32147 11.1174 6.21019 11.1896 6.12814C11.2617 6.04609 11.3595 6 11.4615 6ZM7.38462 10.375V12.5625H8.53846V10.375H7.38462ZM7.38462 9.9375H8.53846C8.64047 9.9375 8.7383 9.98359 8.81043 10.0656C8.88256 10.1477 8.92308 10.259 8.92308 10.375V12.5625C8.92308 12.6785 8.88256 12.7898 8.81043 12.8719C8.7383 12.9539 8.64047 13 8.53846 13H7.38462C7.28261 13 7.18478 12.9539 7.11265 12.8719C7.04052 12.7898 7 12.6785 7 12.5625V10.375C7 10.259 7.04052 10.1477 7.11265 10.0656C7.18478 9.98359 7.28261 9.9375 7.38462 9.9375Z" />
<path d="M11.4 10.4286V12.5714H12.6V10.4286H11.4ZM11.4 10H12.6C12.7061 10 12.8078 10.0452 12.8828 10.1255C12.9579 10.2059 13 10.3149 13 10.4286V12.5714C13 12.6851 12.9579 12.7941 12.8828 12.8745C12.8078 12.9548 12.7061 13 12.6 13H11.4C11.2939 13 11.1922 12.9548 11.1172 12.8745C11.0421 12.7941 11 12.6851 11 12.5714V10.4286C11 10.3149 11.0421 10.2059 11.1172 10.1255C11.1922 10.0452 11.2939 10 11.4 10Z" />
</svg>
