<svg width="16" height="16"  xmlns="http://www.w3.org/2000/svg">
<path d="M1.5122 4H14.4878C14.8293 4 15 4.16667 15 4.5C15 4.83333 14.8293 5 14.4878 5H1.5122C1.17073 5 1 4.83333 1 4.5C1 4.16667 1.17073 4 1.5122 4Z" />
<path d="M3.58887 8H7.53236C7.59377 8 7.65458 7.98776 7.71132 7.96398C7.76805 7.94019 7.81961 7.90533 7.86303 7.86139C7.90646 7.81744 7.9409 7.76527 7.9644 7.70785C7.9879 7.65044 8 7.5889 8 7.52675V4.47285C8 4.41072 7.9879 4.3492 7.96439 4.29181C7.94089 4.23441 7.90644 4.18227 7.86301 4.13835C7.81958 4.09444 7.76802 4.05962 7.71129 4.03588C7.65455 4.01214 7.59375 3.99995 7.53236 4H1.46725C1.34333 4 1.22448 4.04982 1.13685 4.1385C1.04923 4.22717 1 4.34744 1 4.47285V5.99319C0.999944 6.0685 1.01767 6.14274 1.05169 6.20972C1.08571 6.27671 1.13506 6.3345 1.19561 6.37828L3.31723 7.91184C3.39648 7.96916 3.49145 7.99999 3.58887 8Z" />
<path d="M4.5 1C4.63261 1 4.75979 1.05926 4.85355 1.16475C4.94732 1.27024 5 1.41332 5 1.5625V4H4V1.5625C4 1.41332 4.05268 1.27024 4.14645 1.16475C4.24021 1.05926 4.36739 1 4.5 1Z" />
<path d="M4.19348 1L14.7336 3.40978C14.821 3.42975 14.8973 3.48601 14.9459 3.56617C14.9944 3.64633 15.0112 3.74383 14.9926 3.83722C14.9739 3.93062 14.9213 4.01227 14.8463 4.06419C14.7713 4.11612 14.6801 4.13407 14.5928 4.11411L4.05263 1.70433L4.19348 1ZM4 7.27659H5.01048V15H4V7.27659ZM6.35778 7.27659H7.36825V15H6.35778V7.27659Z" />
<path d="M2.58333 14H8.41667C8.80555 14 9 14.1667 9 14.5C9 14.8333 8.80555 15 8.41667 15H2.58333C2.19444 15 2 14.8333 2 14.5C2 14.1667 2.19444 14 2.58333 14Z" />
<path d="M4.00011 8.9609L6.51585 8L7 8.55477L4.48426 9.51567L4.00011 8.9609ZM4.00011 13.4452L6.51585 12.4843L7 13.0391L4.48426 14L4.00011 13.4452ZM6.51574 11.7577L4 10.7968L4.48415 10.2421L6.99989 11.203L6.51574 11.7577Z" />
<path d="M10.2184 4.04963C10.4357 3.94924 10.5977 4.00115 10.7045 4.20534L12.9472 8.49349C13.054 8.69769 12.9988 8.84998 12.7816 8.95037C12.5643 9.05076 12.4023 8.99885 12.2955 8.79466L10.0528 4.50651C9.946 4.30231 10.0012 4.15002 10.2184 4.04963Z" />
<path d="M12.2184 8.95037C12.0012 8.84998 11.946 8.69769 12.0528 8.49349L14.2955 4.20534C14.4023 4.00115 14.5643 3.94924 14.7816 4.04963C14.9988 4.15002 15.054 4.30231 14.9472 4.50651L12.7045 8.79466C12.5977 8.99885 12.4357 9.05076 12.2184 8.95037Z" />
</svg>
