<svg width="16" height="16" xmlns="http://www.w3.org/2000/svg">
<path d="M14.0287 9.99922H13.0011V1.97107C13.0011 1.43471 12.5663 1 12.0298 1H3.97174C3.43526 1 3.00045 1.43471 2.99888 1.97107V9.99922H1.97129C1.43481 9.99922 1 10.4355 1 10.9719V14.0274C1 14.5637 1.43481 14.9984 1.97129 15H14.0287C14.5652 15 15 14.5653 15 14.0289V10.9719C15 10.4339 14.5652 9.99922 14.0287 9.99922ZM3.99989 2.48866C3.99989 2.35887 4.0515 2.23378 4.14378 2.14152C4.23606 2.04926 4.35962 1.99922 4.48944 1.99922H11.5246C11.7952 1.99922 12.0142 2.21814 12.0142 2.48866V9.99922H10.3156C10.1436 10.0008 9.9981 10.1274 9.97308 10.2995C9.83387 11.2627 9.0143 11.9789 8.04145 11.9914C7.01698 12.0696 6.12077 11.3143 6.0238 10.2916C6.00034 10.1196 5.85331 9.9914 5.68126 9.9914H3.99989V2.48084V2.48866ZM14.0006 13.5989C13.9974 13.8178 13.8207 13.9961 13.6002 13.9992H2.41079C2.19026 14.0023 2.00883 13.8256 2.0057 13.6036V11.4019C2.00726 11.1798 2.18869 11 2.41079 11H5.17138C5.7235 12.5622 7.43615 13.3815 8.99866 12.8311C9.85421 12.5293 10.5268 11.8569 10.8302 11H13.6017C13.8254 11 14.0068 11.1814 14.0068 11.405V13.6005H14.0006V13.5989Z" />
<path d="M8.71032 4.12353H10.6055C10.8228 4.12353 10.9985 3.94108 10.9985 3.71543C10.9985 3.48977 10.8228 3.30732 10.6055 3.30732H8.71032C8.49307 3.30732 8.31741 3.48977 8.31741 3.71543C8.31741 3.93948 8.49461 4.12353 8.71032 4.12353ZM5.39291 4.72529C5.17565 4.72529 5 4.90774 5 5.13339C5 5.35905 5.17565 5.5415 5.39291 5.5415H5.94761V6.28249C5.94761 6.50815 6.12327 6.6906 6.34052 6.6906C6.55778 6.6906 6.73344 6.50815 6.73344 6.28249V5.5415H7.28814C7.50539 5.5415 7.68105 5.35905 7.68105 5.13339C7.68105 4.90774 7.50539 4.72529 7.28814 4.72529H6.73344V4.55084L7.49461 3.72023C7.64099 3.55859 7.64099 3.29932 7.49615 3.12807C7.42681 3.04645 7.33282 3.00164 7.22958 3.00004C7.12481 2.99844 7.02157 3.04485 6.94761 3.12647L6.34052 3.78744L5.74114 3.12647C5.66872 3.04645 5.57165 3.00324 5.46841 3.00324C5.36364 3.00324 5.26656 3.04645 5.19569 3.12647C5.04931 3.28811 5.04931 3.54738 5.19414 3.71863L5.94915 4.55084V4.72689H5.39291V4.72529ZM10.6071 8.18379H5.39291C5.17565 8.18379 5 8.36624 5 8.59189C5 8.81755 5.17565 9 5.39291 9H10.6055C10.8228 9 10.9985 8.81755 10.9985 8.59189C11 8.36624 10.8228 8.18379 10.6071 8.18379ZM10.6071 5.77836H8.71186C8.49461 5.77836 8.31895 5.96081 8.31895 6.18647C8.31895 6.41213 8.49461 6.59457 8.71186 6.59457H10.6071C10.8243 6.59457 11 6.41213 11 6.18647C11 5.96081 10.8228 5.77836 10.6071 5.77836Z" />
</svg>
