<svg width="32" height="32" viewBox="0 0 32 32" fill="none" xmlns="http://www.w3.org/2000/svg">
<path d="M20.2596 15.5151C22.3894 14.0968 23.7894 11.6675 23.7894 8.90635C23.7894 4.54579 20.2894 1 16 1C11.7106 1 8.21064 4.54579 8.21064 8.90635C8.21064 11.6675 9.61064 14.0968 11.7404 15.5151C6.09574 17.3408 2 22.6972 2 29.0193C2 29.5624 2.43191 30 2.96808 30C3.50426 30 3.93617 29.5624 3.93617 29.0193C3.93617 22.2747 9.34255 16.7976 16 16.7976C22.6574 16.7976 28.0638 22.2747 28.0638 29.0193C28.0638 29.5624 28.4957 30 29.0319 30C29.5681 30 30 29.5624 30 29.0193C30 22.6972 25.9043 17.3408 20.2596 15.5151ZM16 2.97659C19.2319 2.97659 21.8532 5.63215 21.8532 8.90635C21.8532 12.1805 19.2319 14.8361 16 14.8361C12.7681 14.8361 10.1468 12.1805 10.1468 8.90635C10.1468 5.63215 12.7681 2.97659 16 2.97659Z" fill="white"/>
<path d="M17.5175 19.5231C17.4106 19.2 17.1298 19 16.8223 19H15.2045C14.9103 19 14.6429 19.2 14.5092 19.5231L12.0625 26.0462C11.9421 26.3692 11.9956 26.7538 12.2229 27.0154L15.4719 30.7538C15.6189 30.9231 15.8061 31 16.0067 31C16.2072 31 16.4078 30.9077 16.5415 30.7538L19.7771 27.0154C20.0044 26.7538 20.0579 26.3846 19.9375 26.0462L17.5175 19.5231ZM18.3598 26.2L16.0201 28.8923L13.6803 26.2L15.7125 20.7385H16.3276L18.3598 26.2Z" fill="white"/>
</svg>
