<svg width="32" height="32" viewBox="0 0 32 32" fill="none" xmlns="http://www.w3.org/2000/svg">
<path d="M26.1159 1H5.93687C4.32946 1 3 2.28897 3 3.84514V28.1567C3 29.7129 4.32946 31 5.93687 31H11.9797C12.4229 31 12.8116 30.6237 12.8116 30.1946C12.814 30.0952 12.7955 29.9964 12.7573 29.9041C12.719 29.8119 12.6618 29.7281 12.5891 29.6579C12.5164 29.5877 12.4297 29.5325 12.3343 29.4957C12.2389 29.4589 12.1368 29.4413 12.0341 29.4438H5.93687C5.59981 29.4404 5.27755 29.3093 5.03919 29.0785C4.80084 28.8477 4.66537 28.5358 4.66183 28.2094V3.84514C4.66183 3.14702 5.27214 2.61074 5.93687 2.61074H26.0596C26.7787 2.61074 27.3346 3.20159 27.3346 3.84514V15.9181C27.3346 16.3472 27.7233 16.7235 28.1665 16.7235C28.6097 16.7235 28.9984 16.3472 28.9984 15.9181V3.84514C29.0528 2.28897 27.7233 1 26.1159 1Z" fill="white"/>
<path d="M7.8332 8.58653H21.1898C21.6367 8.58653 22.025 8.21585 22.025 7.79327C22.025 7.37068 21.6347 7 21.1898 7H7.8332C7.38831 7 7 7.37068 7 7.79327C7 8.21585 7.39026 8.58653 7.8332 8.58653ZM7.8332 13.3962H15.0686C15.5135 13.3962 15.9038 13.0255 15.9038 12.6048C15.9038 12.1803 15.5135 11.8115 15.0686 11.8115H7.8332C7.38831 11.8115 7 12.1822 7 12.6048C7 13.0273 7.39026 13.3962 7.8332 13.3962ZM28.1462 18.8415H16.294L15.9038 17.4663C15.8535 17.2945 15.7437 17.1438 15.5922 17.0386C15.4406 16.9333 15.2562 16.8796 15.0686 16.8862H13.8451C13.3983 16.8862 13.01 17.2569 13.01 17.6794C13.01 18.102 13.4003 18.4708 13.8451 18.4708H14.4013L14.7915 19.8461L16.5165 26.4536C16.6277 26.8242 16.9614 27.0355 17.3497 27.0355H26.4232C26.8115 27.0355 27.1452 26.7705 27.2564 26.4536L28.9814 19.8461C29.0075 19.7272 29.0061 19.6043 28.9775 19.4859C28.9489 19.3676 28.8936 19.2565 28.8155 19.1603C28.7401 19.059 28.6396 18.9769 28.5229 18.9213C28.4061 18.8657 28.2768 18.8383 28.1462 18.8415ZM25.7539 25.449H18.019L16.6823 20.4262H27.0905L25.7539 25.449ZM17.3497 27.2987C16.8351 27.3045 16.3433 27.5012 15.9794 27.8469C15.6155 28.1925 15.4084 28.6596 15.4023 29.1484C15.4023 30.153 16.294 31 17.3497 31C18.4073 31 19.299 30.153 19.299 29.1484C19.3006 28.905 19.2512 28.6636 19.1538 28.4384C19.0563 28.2132 18.9128 28.0086 18.7314 27.8365C18.5501 27.6644 18.3345 27.5283 18.0973 27.436C17.8601 27.3436 17.606 27.297 17.3497 27.2987ZM17.3497 29.4135C17.1838 29.4135 17.0726 29.3078 17.0726 29.1484C17.0726 28.9909 17.1838 28.8852 17.3497 28.8852C17.5175 28.8852 17.6287 28.9909 17.6287 29.1484C17.6287 29.3078 17.5175 29.4135 17.3497 29.4135ZM26.4232 27.3006C25.9086 27.3058 25.4166 27.5021 25.0523 27.8474C24.6881 28.1927 24.4805 28.6597 24.4739 29.1484C24.4739 30.153 25.3636 31 26.4213 31C27.4789 31 28.3706 30.153 28.3706 29.1484C28.3645 28.6593 28.1571 28.1919 27.7928 27.8462C27.4285 27.5005 26.9362 27.304 26.4213 27.2987L26.4232 27.3006ZM26.4232 29.4135C26.2554 29.4135 26.1442 29.3078 26.1442 29.1484C26.1442 28.9909 26.2554 28.8852 26.4213 28.8852C26.5891 28.8852 26.7003 28.9909 26.7003 29.1484C26.7003 29.3078 26.5891 29.4135 26.4213 29.4135H26.4232Z" fill="white"/>
</svg>
