<svg width="32" height="32" viewBox="0 0 32 32" fill="none" xmlns="http://www.w3.org/2000/svg">
<path d="M16.8222 2.1139L16.903 2.16196L29.569 10.6419C29.7927 10.7921 29.9361 11.0264 29.9649 11.2835L29.9706 11.3808V17.4206C29.9706 17.6521 29.8778 17.8747 29.7113 18.0423C29.5448 18.2099 29.3175 18.3096 29.0764 18.3208C28.8353 18.332 28.599 18.2538 28.4164 18.1024C28.2338 17.9511 28.119 17.7381 28.0957 17.5077L28.0913 17.4206V11.8506L16.3499 3.9894L3.87924 11.8662V28.1978H12.7486C12.9899 28.1979 13.2219 28.2871 13.3966 28.4467C13.5712 28.6064 13.6751 28.8244 13.6867 29.0556C13.6983 29.2867 13.6167 29.5133 13.4588 29.6883C13.301 29.8634 13.079 29.9735 12.8388 29.9958L12.7486 30H2.93962C2.70604 30 2.48084 29.9165 2.30793 29.7659C2.13503 29.6153 2.02681 29.4084 2.00438 29.1854L2 29.0989V11.3808C2 11.1081 2.12841 10.8522 2.34703 10.6816L2.4222 10.6281L15.8487 2.14815C15.9922 2.05767 16.1588 2.00664 16.3305 2.00061C16.5021 1.99457 16.6721 2.03375 16.8222 2.1139ZM12.0038 22.9654C12.253 22.9654 12.492 23.0603 12.6682 23.2293C12.8444 23.3983 12.9434 23.6275 12.9434 23.8665C12.9434 24.1055 12.8444 24.3347 12.6682 24.5037C12.492 24.6727 12.253 24.7676 12.0038 24.7676H7.51681C7.26761 24.7676 7.02861 24.6727 6.8524 24.5037C6.67619 24.3347 6.57719 24.1055 6.57719 23.8665C6.57719 23.6275 6.67619 23.3983 6.8524 23.2293C7.02861 23.0603 7.26761 22.9654 7.51681 22.9654H12.0038ZM7.51681 16.8175H12.6446C12.886 16.8174 13.1181 16.9065 13.2929 17.0661C13.4676 17.2258 13.5716 17.4438 13.5833 17.675C13.595 17.9062 13.5134 18.1328 13.3556 18.3079C13.1977 18.483 12.9757 18.5931 12.7355 18.6155L12.6446 18.6197H7.51681C7.27551 18.6196 7.0435 18.5304 6.86886 18.3707C6.69422 18.211 6.59034 17.993 6.57875 17.7619C6.56715 17.5307 6.64873 17.3042 6.80657 17.1291C6.96442 16.9541 7.18643 16.844 7.42661 16.8217L7.51681 16.8175Z" fill="white"/>
<path d="M23.905 19.2205C23.7294 19.3667 23.6166 19.5701 23.5884 19.7915C23.5601 20.0129 23.6185 20.2364 23.7522 20.4189L23.8111 20.4916L26.5779 23.5482H17.9397C17.7061 23.5482 17.4809 23.6316 17.308 23.7822C17.1351 23.9328 17.0269 24.1398 17.0045 24.3628L17.0001 24.4499C17.0001 24.6738 17.087 24.8897 17.2439 25.0555C17.4008 25.2213 17.6165 25.3251 17.8489 25.3468L17.9397 25.351L26.2146 25.3504L23.8092 28.0266C23.6519 28.2016 23.5707 28.4278 23.5823 28.6585C23.5939 28.8893 23.6975 29.1069 23.8716 29.2665C24.0458 29.4261 24.2772 29.5155 24.5181 29.5162C24.7589 29.5168 24.9909 29.4288 25.166 29.2702L25.2324 29.2035L29.1625 24.8313C29.2996 24.6789 29.3796 24.4868 29.3896 24.2857C29.3996 24.0846 29.339 23.886 29.2176 23.7218L29.1606 23.6521L25.2305 19.3106C25.0672 19.1301 24.8358 19.0192 24.5872 19.0023C24.3387 18.9854 24.0933 19.0639 23.905 19.2205Z" fill="white"/>
</svg>
