<svg width="32" height="32" viewBox="0 0 32 32" fill="none" xmlns="http://www.w3.org/2000/svg">
<g clip-path="url(#clip0_3277_3760)">
<path d="M19.9506 0C20.4618 0 20.883 0.388849 20.9335 0.886766L20.9383 0.987931V2.44928C23.5782 3.41278 25.8793 5.12649 27.559 7.37995C29.2387 9.63342 30.2239 12.3285 30.3937 15.1343L30.4063 15.3864L31.454 15.9112C31.7551 16.0614 31.9565 16.3538 31.9937 16.6834L32 16.7948V19.9562C32 20.3537 31.7622 20.7126 31.3956 20.8667C30.4869 21.2492 29.5783 21.5977 28.6696 21.9131L28.7882 21.9415C28.0932 24.8023 26.4598 27.3475 24.149 29.1708C21.8382 30.994 18.9833 31.9901 16.0401 31.9999C13.097 32.0098 10.2355 31.0328 7.91255 29.225C5.58964 27.4172 3.93936 24.8829 3.22528 22.0269L3.18578 21.8625C2.31531 21.5572 1.45446 21.2251 0.604445 20.8667C0.442114 20.7984 0.300987 20.6879 0.195683 20.5467C0.0903788 20.4056 0.0247274 20.2388 0.00553063 20.0637L0 19.9562V16.7948C0 16.4581 0.171457 16.1467 0.44958 15.9665L0.545975 15.9112L1.59289 15.3864L1.60632 15.1335C1.77605 12.3277 2.76128 9.63263 4.44101 7.37916C6.12075 5.1257 8.42185 3.41198 11.0617 2.44849V0.987931C11.0617 0.476578 11.4505 0.0553239 11.9482 0.00474186L12.0494 0H19.9506ZM5.45422 22.5865L5.53007 22.7927C6.33449 24.9186 7.7667 26.7492 9.63633 28.0413C11.5059 29.3333 13.7244 30.0255 15.9968 30.026C20.7945 30.026 24.9798 26.9792 26.5379 22.5888C23.0289 23.5997 19.5161 24.1055 16 24.1055C12.4816 24.1055 8.96632 23.5989 5.45422 22.5865ZM18.963 1.97586H13.037V14.4238C13.0371 14.6684 12.9466 14.9043 12.7828 15.0859C12.619 15.2675 12.3937 15.3819 12.1505 15.407L12.0494 15.4117C11.8049 15.4118 11.569 15.3212 11.3874 15.1574C11.2059 14.9936 11.0915 14.7682 11.0665 14.5249L11.0617 14.4238V4.57451C8.83232 5.5396 6.93382 7.13592 5.60009 9.16684C4.26636 11.1978 3.55567 13.5746 3.55556 16.0045C3.55556 16.3412 3.3841 16.6526 3.10598 16.8328L3.00958 16.8881L1.97531 17.4058V19.2939L2.45649 19.4859C6.79743 21.1789 11.1297 22.0577 15.4588 22.1257L16 22.1296C20.5092 22.1296 25.0216 21.25 29.5435 19.4859L30.0247 19.2939V17.4058L28.9904 16.8881C28.8433 16.8145 28.7169 16.7053 28.6226 16.5705C28.5284 16.4356 28.4693 16.2794 28.4508 16.1159L28.4444 16.0045C28.4444 10.9676 25.4262 6.51481 20.9391 4.57451L20.9383 14.4238C20.9395 14.6778 20.8428 14.9226 20.6683 15.1071C20.4938 15.2917 20.2549 15.402 20.0013 15.415C19.7476 15.428 19.4987 15.3428 19.3062 15.1771C19.1138 15.0113 18.9925 14.7778 18.9677 14.5249L18.963 14.4238V1.97586Z" fill="white"/>
</g>
<defs>
<clipPath id="clip0_3277_3760">
<rect width="32" height="32" fill="white"/>
</clipPath>
</defs>
</svg>
