<svg width="32" height="32" viewBox="0 0 32 32" fill="none" xmlns="http://www.w3.org/2000/svg">
<path d="M18.8274 29.9993H5.40097C4.7646 29.9986 4.15448 29.7449 3.70439 29.2939C3.2543 28.843 3.00099 28.2315 3 27.5936V4.40643C3.00079 3.76838 3.25402 3.1567 3.70413 2.70557C4.15424 2.25444 4.76447 2.00069 5.40097 2H24.5994C25.2358 2.00079 25.846 2.25458 26.296 2.7057C26.746 3.15682 26.9992 3.76845 27 4.40643V14.6134C27 14.7543 26.9442 14.8895 26.8447 14.9892C26.7453 15.0888 26.6105 15.1448 26.4699 15.1448C26.3293 15.1448 26.1945 15.0888 26.0951 14.9892C25.9957 14.8895 25.9398 14.7543 25.9398 14.6134V4.40643C25.9394 4.05023 25.798 3.70873 25.5467 3.45689C25.2955 3.20505 24.9547 3.06345 24.5994 3.06315H5.40097C5.04563 3.06345 4.70493 3.20505 4.45363 3.45689C4.20233 3.70873 4.06097 4.05023 4.06057 4.40643V27.5936C4.06097 27.9498 4.20233 28.2913 4.45363 28.5431C4.70493 28.7949 5.04563 28.9366 5.40097 28.9369H18.8274C18.9656 28.9405 19.0969 28.9982 19.1934 29.0974C19.2898 29.1967 19.3438 29.3298 19.3438 29.4684C19.3438 29.607 19.2898 29.7401 19.1934 29.8394C19.0969 29.9387 18.9656 29.9963 18.8274 30V29.9993Z" fill="white" stroke="white" stroke-width="0.8"/>
<path d="M6.53366 6H18.4663C18.8221 6 19 6.31111 19 6.93333V7.06667C19 7.68889 18.8221 8 18.4663 8H6.53366C6.17789 8 6 7.68889 6 7.06667V6.93333C6 6.31111 6.17789 6 6.53366 6Z" fill="white"/>
<path d="M6.53366 11H18.4663C18.8221 11 19 11.3111 19 11.9333V12.0667C19 12.6889 18.8221 13 18.4663 13H6.53366C6.17789 13 6 12.6889 6 12.0667V11.9333C6 11.3111 6.17789 11 6.53366 11Z" fill="white"/>
<path d="M13.1134 25.4655C11.6059 25.4655 11.6059 23.955 11.6059 22.7466C11.6059 22.142 11.6059 20.9336 11.2287 20.9336C10.6636 20.9336 10.6636 21.0848 10.2864 21.689C10.0988 22.2932 9.72123 23.1995 8.4021 23.1995C6.70619 23.2013 6.51855 21.9908 6.51855 21.235C6.51855 20.782 6.3309 20.3287 6.14139 20.1774C6.09689 20.1393 6.06131 20.0928 6.03695 20.0407C6.01259 19.9887 6 19.9323 6 19.8753C6 19.8183 6.01259 19.762 6.03695 19.71C6.06131 19.6579 6.09689 19.6113 6.14139 19.5732C6.32903 19.4224 6.70694 19.4224 6.89533 19.5732C7.46051 20.0266 7.46051 20.6308 7.64928 21.235C7.83692 22.2925 7.83692 22.4434 8.40323 22.4434C8.96953 22.4434 8.96841 22.2925 9.34519 21.6883C9.53284 21.0837 9.91075 20.1774 11.2302 20.1774C12.7378 20.1774 12.7378 21.6883 12.7378 22.8967C12.7378 23.5009 12.7378 24.7097 13.1131 24.7097C13.6786 24.7097 14.0554 23.6521 14.4322 22.7458C15 21.5378 15.5629 20.1782 16.8828 20.1782C19.333 20.1782 19.333 23.3508 19.333 23.6529C19.333 23.955 19.1454 24.1058 18.7675 24.1058C18.3896 24.1058 18.2019 23.955 18.2019 23.6529C18.2019 23.0483 18.0143 21.0845 16.8828 21.0845C16.3172 21.0845 15.9405 22.142 15.5637 23.0483C14.9981 24.1058 14.4326 25.4655 13.1134 25.4655ZM29.1741 16.8901L28.1669 16.2712C27.7582 15.9544 27.3788 15.983 26.8087 16.0259C26.4436 16.2276 25.8881 16.4432 25.7271 16.8028L20.4874 24.6314C20.4993 24.6372 20.5096 24.6457 20.5175 24.656C20.5254 24.6663 20.5307 24.6782 20.5329 24.6908C20.5351 24.7034 20.5343 24.7163 20.5303 24.7285C20.5264 24.7407 20.5195 24.7519 20.5103 24.7612C20.4454 24.8287 20.4566 24.9978 20.4825 25.0783C20.4859 25.0888 20.4873 25.0998 20.4867 25.1108C20.5449 25.2023 20.6189 25.2839 20.7054 25.3521C20.9096 25.5105 21.2751 25.3092 21.4508 25.1219L26.5171 17.0928C26.5171 17.0928 26.6927 16.9058 26.8826 16.8915C27.0725 16.8772 27.2624 16.8629 27.4666 17.0209L28.4727 17.6383C28.8668 17.7814 28.8957 18.1278 28.7354 18.4875L23.6402 26.1712C23.4645 26.3582 23.6833 26.6896 23.8875 26.8476C23.9547 26.8998 24.029 26.9735 24.1175 26.9906C24.1926 27.0067 24.3318 27.0046 24.3926 26.9642C24.4189 26.9442 24.4439 26.9228 24.4677 26.9002C24.5123 26.8644 24.5656 26.8351 24.6122 26.8001C24.6754 26.7508 24.7266 26.6889 24.7623 26.6188C24.8039 26.543 24.8587 26.4701 24.9071 26.3968L25.1698 26.0035L25.5005 25.503L25.8833 24.9235L26.3107 24.2799L26.7667 23.5946L27.2343 22.8878L27.7004 22.1845L28.1507 21.5053L28.5718 20.8696L28.9497 20.2997L29.2694 19.8174L29.5171 19.4438L29.6785 19.2L29.7401 19.1074C30.2531 18.3727 29.9769 17.3509 29.1741 16.8901Z" fill="white"/>
<path d="M21.076 28.9445C20.6803 28.9731 20.4514 28.6333 20.4361 28.4562L20.3412 25.0768C20.3106 24.7229 20.4932 24.5315 20.889 24.5027C21.2848 24.4741 21.5137 24.8139 21.5289 24.991L21.6239 28.3704C21.6544 28.7243 21.4718 28.9157 21.076 28.9445Z" fill="white"/>
<path d="M24.3901 26.3822C24.1597 26.0329 23.9548 25.8738 23.6236 26.1168L20.7668 27.902C20.6682 27.9697 20.5786 28.0513 20.5005 28.1446C20.503 28.1484 20.4986 27.9958 20.5005 28C20.5803 28.2003 20.556 28.5773 20.6068 28.7822C20.8121 28.9374 21.0196 29.0647 21.2768 28.9642C21.4096 28.9122 21.5307 28.8171 21.6523 28.7414L21.8932 28.5909L22.4794 28.2241L23.6693 27.4801C23.8234 27.3839 23.9892 27.2962 24.1361 27.1883C24.4677 26.9461 24.6208 26.7303 24.3901 26.3822Z" fill="white"/>
</svg>
