<svg width="32" height="32" viewBox="0 0 32 32" fill="none" xmlns="http://www.w3.org/2000/svg">
<path d="M9 19.8488C9 20.315 9.37309 20.6988 9.82639 20.6988H22.1736C22.3925 20.6978 22.6021 20.6079 22.7569 20.4487C22.9117 20.2895 22.999 20.0739 23 19.8488C22.9984 19.6239 22.9108 19.4088 22.7561 19.25C22.6015 19.0911 22.3922 19.0013 22.1736 19H9.82639C9.60753 19.0003 9.3977 19.0898 9.24283 19.2489C9.08795 19.4079 9.00064 19.6236 9 19.8488ZM22.1736 23.3H9.82639C9.60751 23.301 9.39787 23.3909 9.2431 23.5501C9.08833 23.7092 9.00096 23.9249 9 24.15C9 24.6163 9.37309 25 9.82639 25H22.1736C22.3925 24.999 22.6021 24.9091 22.7569 24.75C22.9117 24.5908 22.999 24.3751 23 24.15C22.9987 23.925 22.9112 23.7095 22.7565 23.5504C22.6018 23.3913 22.3924 23.3013 22.1736 23.3Z" fill="white"/>
<path d="M18.9248 2H6.64757C6.21174 2.00099 5.79397 2.18094 5.48533 2.50061C5.1767 2.82028 5.00224 3.25374 5 3.70649V28.2923C5 29.2332 5.74062 30 6.64757 30H25.3536C25.7895 29.9987 26.2071 29.8184 26.5155 29.4985C26.8239 29.1786 26.9981 28.745 27 28.2923V10.3672L18.9248 2.00126V2ZM19.9957 5.52396L23.7898 9.45531H20.281C20.206 9.45372 20.1345 9.42215 20.0814 9.36718C20.0282 9.3122 19.9976 9.23806 19.9957 9.16018V5.52396ZM25.35 28.2885L6.64757 28.2923C6.64757 28.2923 6.64393 28.2923 6.64393 28.2885V3.71027C6.64393 3.71027 6.64393 3.70649 6.64757 3.70649H18.2801L18.3457 3.77207V9.1564C18.3457 10.2575 19.2174 11.158 20.2762 11.158H25.3512V28.2885H25.35Z" fill="white"/>
<path d="M13 10.3706C13.7556 10.3706 14.4797 10.087 15.0131 9.58335C15.2765 9.33488 15.4855 9.03925 15.6282 8.71351C15.7708 8.38778 15.8443 8.03838 15.8443 7.6855C15.8443 7.33261 15.7708 6.98322 15.6282 6.65749C15.4855 6.33175 15.2765 6.03612 15.0131 5.78765C14.4773 5.28305 13.7539 5 13 5C12.2461 5 11.5227 5.28305 10.9869 5.78765C10.7235 6.03612 10.5145 6.33175 10.3718 6.65749C10.2292 6.98322 10.1557 7.33261 10.1557 7.6855C10.1557 8.03838 10.2292 8.38778 10.3718 8.71351C10.5145 9.03925 10.7235 9.33488 10.9869 9.58335C11.5203 10.087 12.2444 10.3706 13 10.3706ZM13 6.47416C13.3404 6.47411 13.6672 6.60142 13.9098 6.82861C14.0288 6.94104 14.1233 7.07472 14.1879 7.22198C14.2525 7.36923 14.286 7.52717 14.2863 7.68674C14.2865 7.84639 14.2534 8.0045 14.1887 8.15183C14.1241 8.29916 14.0293 8.43278 13.9098 8.54488C13.6677 8.77287 13.3406 8.90032 13 8.89933C12.6593 8.89944 12.3324 8.77162 12.0902 8.54364C11.971 8.43145 11.8764 8.2979 11.8119 8.15071C11.7473 8.00352 11.7141 7.84561 11.7141 7.68612C11.7141 7.52663 11.7473 7.36872 11.8119 7.22153C11.8764 7.07434 11.971 6.94079 12.0902 6.82861C12.3326 6.60108 12.6595 6.47371 13 6.47416ZM9.89281 14.9983C10.3869 14.9983 10.7856 14.624 10.7856 14.1576C10.7856 13.2472 11.7987 12.4736 13 12.4736C14.2013 12.4736 15.2157 13.2435 15.2157 14.1576C15.2157 14.3814 15.3098 14.5954 15.4771 14.7533C15.645 14.9114 15.8717 15 16.1078 15C16.344 15 16.5707 14.9114 16.7386 14.7533C16.8214 14.6754 16.8872 14.5827 16.9321 14.4804C16.977 14.3781 17 14.2684 17 14.1576C17 12.3033 15.2052 10.7922 13 10.7922C10.7922 10.7922 9 12.3033 9 14.1576C9.00051 14.2686 9.02401 14.3785 9.06916 14.4809C9.11431 14.5834 9.18021 14.6763 9.26312 14.7545C9.34602 14.8327 9.4443 14.8946 9.55235 14.9366C9.66039 14.9787 9.77608 15 9.89281 14.9995V14.9983Z" fill="white"/>
</svg>
