<svg width="32" height="32" viewBox="0 0 32 32" fill="none" xmlns="http://www.w3.org/2000/svg">
<g clip-path="url(#clip0_3490_2232)">
<path d="M22.0376 23.1415C19.2173 20.0459 20.9321 17.9139 22.7258 15.1013L23.6419 13.7392C24.3522 12.4526 24.7511 10.9714 24.7377 9.39733C24.6973 4.64694 20.6995 0.639124 15.879 0.518016C15.7992 0.516066 15.7204 0.515625 15.6406 0.515625C10.6163 0.515625 6.54261 4.52728 6.54261 9.47426C6.54261 11.5327 7.25198 13.4234 8.43527 14.9359C8.46507 14.9739 8.49389 15.0138 8.5208 15.0547C10.4009 17.9225 13.2058 20.0637 8.91297 23.6394C8.74379 23.7802 8.46214 24.0532 8.2574 24.1258H2.98392C1.30084 24.1258 0.0195312 25.4205 0.0195312 27.0787V28.9878C0.0195312 30.6463 1.30084 32.0002 2.98392 32.0002H28.5389C30.2518 32.0002 31.4428 30.7074 31.5043 28.9878V27.0787C31.5043 25.4206 30.221 24.1258 28.5389 24.1258H23.0219C22.7008 24.0383 22.1299 23.2434 22.0376 23.1415ZM11.0661 15.1412C10.7836 14.7552 10.4904 14.3559 10.2328 13.9632C10.1761 13.8767 10.1155 13.7926 10.0511 13.7099C9.0899 12.4814 8.58234 11.0165 8.58234 9.47426C8.58234 5.6428 11.7486 2.52509 15.6406 2.52458L15.8271 2.5265C19.5201 2.61977 22.6672 5.77398 22.698 9.4142C22.7076 10.5653 22.4278 11.7014 21.8886 12.7078L20.9985 14.0328L20.7582 14.4097C19.1299 16.9463 16.9027 20.253 20.069 24.1258H11.2103C14.5112 20.4174 12.4994 17.0984 11.0661 15.1412ZM28.5389 26.085C29.0916 26.085 29.5232 26.5346 29.5232 27.0787V29.0473C29.5232 29.5923 29.0916 30.0159 28.5389 30.0159H2.98392C2.43026 30.0159 1.99967 29.5923 1.99967 29.0473V27.0787C1.99967 26.5346 2.43026 26.085 2.98392 26.085H28.5389Z" fill="white"/>
</g>
<defs>
<clipPath id="clip0_3490_2232">
<rect width="32" height="32" fill="white"/>
</clipPath>
</defs>
</svg>
