<svg width="32" height="32" viewBox="0 0 32 32" fill="none" xmlns="http://www.w3.org/2000/svg">
<g clip-path="url(#clip0_4210_4020)">
<path d="M22.0376 23.1398C19.2173 20.0442 20.9321 17.9122 22.7258 15.0996L23.6419 13.7375C24.3522 12.4509 24.7511 10.9696 24.7377 9.39562C24.6973 4.64523 20.6995 0.637415 15.879 0.516307C15.7992 0.514357 15.7204 0.513916 15.6406 0.513916C10.6163 0.513916 6.54261 4.52557 6.54261 9.47255C6.54261 11.531 7.25198 13.4217 8.43527 14.9342C8.46507 14.9722 8.49389 15.0121 8.5208 15.0529C10.4009 17.9208 13.2058 20.062 8.91297 23.6377C8.74379 23.7785 8.46214 24.0515 8.2574 24.1241H2.98392C1.30084 24.1241 0.0195312 25.4188 0.0195312 27.077V28.9861C0.0195312 30.6446 1.30084 31.9985 2.98392 31.9985H28.5389C30.2518 31.9985 31.4428 30.7057 31.5043 28.9861V27.077C31.5043 25.4189 30.221 24.1241 28.5389 24.1241H23.0219C22.7008 24.0366 22.1299 23.2417 22.0376 23.1398ZM11.0661 15.1394C10.7836 14.7535 10.4904 14.3541 10.2328 13.9615C10.1761 13.875 10.1155 13.7909 10.0511 13.7082C9.0899 12.4797 8.58234 11.0148 8.58234 9.47255C8.58234 5.64109 11.7486 2.52338 15.6406 2.52288L15.8271 2.52479C19.5201 2.61806 22.6672 5.77227 22.698 9.41249C22.7076 10.5636 22.4278 11.6997 21.8886 12.7061L20.9985 14.0311L20.7582 14.408C19.1299 16.9446 16.9027 20.2513 20.069 24.1241H11.2103C14.5112 20.4157 12.4994 17.0966 11.0661 15.1394ZM28.5389 26.0833C29.0916 26.0833 29.5232 26.5329 29.5232 27.077V29.0456C29.5232 29.5906 29.0916 30.0142 28.5389 30.0142H2.98392C2.43026 30.0142 1.99967 29.5906 1.99967 29.0456V27.077C1.99967 26.5329 2.43026 26.0833 2.98392 26.0833H28.5389Z" fill="white"/>
</g>
<defs>
<clipPath id="clip0_4210_4020">
<rect width="32" height="32" fill="white"/>
</clipPath>
</defs>
</svg>
