<svg width="32" height="32" viewBox="0 0 32 32" fill="none" xmlns="http://www.w3.org/2000/svg">
<path d="M21.0857 4.9953C22.4425 4.9953 23.669 5.87416 24.2124 7.2311L24.2286 7.27241L26.7128 13.6847L28.6152 12.4303C29.0545 12.1407 29.6183 12.3084 29.8745 12.805C30.1268 13.294 29.9866 13.9196 29.5628 14.2151L29.543 14.2285L28.2715 15.0668C28.8934 15.7468 29.2819 16.6911 29.291 17.7364L29.2911 17.7738V22.0401C29.2911 24.0102 27.9434 25.6295 26.2194 25.8149V27.1358C26.2194 28.6788 25.1699 29.9739 23.815 29.9996L23.7738 30H23.3485C21.9875 30 20.9244 28.7204 20.9033 27.1824L20.9029 27.1358V25.8325H10.7426V27.1358C10.7426 28.6788 9.69313 29.9739 8.33819 29.9996L8.29706 30H7.87175C6.5107 30 5.44764 28.7204 5.42648 27.1824L5.42618 27.1358V25.8149C3.71945 25.6313 2.38145 24.0424 2.35485 22.0992L2.35444 22.0402V17.7738C2.35444 16.6381 2.80229 15.6191 3.51192 14.924L2.45702 14.2285L2.43726 14.2151C2.01333 13.9196 1.87322 13.294 2.12556 12.805C2.37883 12.3141 2.93264 12.1445 3.36956 12.4205L3.38475 12.4303L4.90496 13.4327L7.24755 7.29142C7.77267 5.91479 8.99561 5.01352 10.3565 4.99558L10.3977 4.99536L21.0857 4.9953ZM8.8996 25.8325H7.26921V27.1358C7.26921 27.6213 7.55319 27.9758 7.85605 27.9877L7.87175 27.988H8.29706C8.60049 27.988 8.88964 27.6417 8.89929 27.1608L8.8996 27.1358V25.8325ZM24.3764 25.8325H22.746V27.1358C22.746 27.6213 23.03 27.9758 23.3328 27.9877L23.3485 27.988H23.7738C24.0772 27.988 24.3664 27.6417 24.3761 27.1608L24.3764 27.1358V25.8325ZM26.1761 16.0651H5.46941C4.75269 16.2139 4.20847 16.9092 4.19769 17.7482L4.19748 17.7737V22.0401C4.19748 22.9905 4.88181 23.7627 5.73119 23.7781L5.75697 23.7783H25.8886C26.7413 23.7783 27.4341 23.0156 27.4479 22.0689L27.4481 22.0401V17.7738C27.4481 16.9232 26.9 16.2154 26.1761 16.0651ZM8.85227 18.7999C9.63522 18.7999 10.27 19.4996 10.27 20.3627C10.27 21.2259 9.63527 21.9255 8.85227 21.9255C8.06932 21.9255 7.43454 21.2259 7.43454 20.3627C7.43454 19.4996 8.06932 18.7999 8.85227 18.7999ZM22.7932 18.7999C23.5762 18.7999 24.2109 19.4996 24.2109 20.3627C24.2109 21.2259 23.5762 21.9255 22.7932 21.9255C22.0103 21.9255 21.3755 21.2259 21.3755 20.3627C21.3755 19.4996 22.0102 18.7999 22.7932 18.7999ZM21.0857 7.01797H10.3977C9.77394 7.01797 9.21042 7.42333 8.96265 8.04793L8.95392 8.07034L6.69902 13.9814H11.6031L13.1177 10.8753L13.1289 10.853C13.3767 10.3736 13.9321 10.1944 14.3811 10.4537C14.8317 10.714 15.0063 11.3186 14.7766 11.8117L14.7684 11.8288L13.7188 13.9814H17.8647L19.3793 10.8753L19.3905 10.853C19.6383 10.3736 20.1937 10.1944 20.6427 10.4537C21.0933 10.714 21.2679 11.3186 21.0382 11.8117L21.03 11.8288L19.9804 13.9814H24.8195L22.5262 8.06162C22.2878 7.44631 21.7447 7.04067 21.1372 7.01888L21.1147 7.01831L21.0857 7.01797ZM18.329 2C18.837 2 19.2489 2.43728 19.2489 2.97676C19.2489 3.50849 18.8487 3.94096 18.3507 3.95324L18.329 3.95346H13.1984C12.6903 3.95346 12.2784 3.51619 12.2784 2.9767C12.2784 2.44498 12.6787 2.01251 13.1767 2.00023L13.1984 2H18.329Z" fill="white"/>
</svg>
