<svg width="32" height="32" viewBox="0 0 32 32" fill="none" xmlns="http://www.w3.org/2000/svg">
<path d="M20.2 18.6C22.4 17.2 23.8 14.6 24 12H25C25.2 12 25.6 11.8 25.8 11.8C26 11.4 26 11.2 26 11C26 10.8 26 10.4 25.8 10.2C25.6 10 25.2 10 25 10C25 4.4 21.6 0 16 0C10.4 0 7 4.4 7 10C6.8 10 6.6 10 6.4 10.2C6.2 10.4 6 10.6 6 11C6 11.4 6.4 12 7 12H8C8.2 14.6 9.8 17.2 12 18.6C7.2 20.4 4 24.8 4 30C4 30.6 4.2 31 4.6 31.4C5 31.8 5.4 32 6 32H26C26.6 32 27 31.8 27.4 31.4C27.8 31 28 30.6 28 30C28 25 24.8 20.4 20.2 18.6ZM16 2C20.4 2 23 5.6 23 10H9C9 5.6 11.6 2 16 2ZM10.2 12H22C21.8 14 20.8 16 19 17C18.4 17.4 18 18.2 18.2 19C18.2 19.8 18.8 20.4 19.6 20.6L19.8 20.8C18.6 21.6 17.4 22 16 22C14.6 22 13.4 21.6 12.4 20.8C12.4 20.8 12.6 20.8 12.6 20.6C13.4 20.4 13.8 19.6 14 19C14 18.2 13.8 17.4 13 17C11.4 15.8 10.2 14 10.2 12ZM6 30C6 26.6 7.8 23.4 10.6 21.6C11.6 23 13.4 23.8 15 23.8V29.8H6V30ZM17 30V24C18.8 24 20.4 23 21.4 21.8C24.2 23.6 26 26.8 26 30.2H17V30Z" fill="white"/>
</svg>
