<svg width="32" height="32" viewBox="0 0 32 32" fill="none" xmlns="http://www.w3.org/2000/svg">
<path d="M2.20062 13.5656C2.20062 8.40473 6.33333 4.21911 11.429 4.21911C14.0802 4.21911 16.463 5.35695 18.1481 7.16999L19 6.30723C17.0988 4.27225 14.4136 3 11.4321 3C5.66975 3 1 7.72953 1 13.5656C1 18.861 4.85185 23.2341 9.87037 24L10.2284 22.9122L10.2685 22.8278C5.71914 22.2495 2.20062 18.3264 2.20062 13.5656Z" fill="white" stroke="white" stroke-width="0.5"/>
<path d="M14 13.6645C14 13.3066 13.8153 12.9891 13.5293 12.765V8H12.1171V12.5254C10.6144 13.0482 11.3603 14.2558 11.3603 14.2558L8 17.2219L9.08268 18L12.6204 14.8752C13.3881 14.8596 14 14.3243 14 13.6645Z" fill="white" stroke="white" stroke-width="0.5"/>
<path d="M24.7031 18.2142C26.0311 17.3156 26.9091 15.7762 26.9091 14.0242C26.9091 11.248 24.7126 9 22 9C19.2874 9 17.0909 11.2512 17.0909 14.0242C17.0909 15.7762 17.9689 17.3156 19.2969 18.2142C15.6465 19.3897 13 22.8776 13 27H14.2273C14.2273 22.6071 17.7077 19.0451 22 19.0451C26.2923 19.0451 29.7727 22.6071 29.7727 27H31C31 22.8776 28.3504 19.3897 24.7031 18.2142ZM22 17.789C19.9671 17.789 18.3182 16.1014 18.3182 14.0209C18.3182 11.9404 19.9671 10.2528 22 10.2528C24.0329 10.2528 25.6818 11.9404 25.6818 14.0209C25.6818 16.1014 24.0329 17.789 22 17.789Z" fill="white" stroke="white" stroke-width="0.5"/>
</svg>
