<svg width="32" height="32" viewBox="0 0 32 32" fill="none" xmlns="http://www.w3.org/2000/svg">
<path d="M17.0049 31C16.8865 31.0001 16.7683 30.9928 16.6509 30.9782L3.53891 29.3606C2.83858 29.2733 2.19417 28.9334 1.72669 28.4045C1.25921 27.8757 1.0008 27.1944 1 26.4885V5.51395C1.0005 4.80785 1.25877 4.12623 1.72628 3.59714C2.19379 3.06805 2.83836 2.72792 3.53891 2.64063L16.6501 1.02179C17.0568 0.971576 17.4697 1.00838 17.8611 1.12976C18.2526 1.25115 18.6139 1.45434 18.9209 1.72589C19.228 1.99743 19.4739 2.33114 19.6423 2.70489C19.8107 3.07865 19.8978 3.48392 19.8978 3.89388V28.1061C19.8978 28.4862 19.8229 28.8625 19.6775 29.2136C19.5321 29.5648 19.3189 29.8838 19.0502 30.1525C18.7815 30.4213 18.4625 30.6344 18.1114 30.7798C17.7603 30.9252 17.384 31.0001 17.004 31H17.0049ZM16.8777 29.1395C17.024 29.1576 17.1726 29.1443 17.3135 29.1007C17.4543 29.057 17.5843 28.9839 17.6948 28.8862C17.8053 28.7885 17.8938 28.6684 17.9544 28.5339C18.015 28.3994 18.0463 28.2536 18.0463 28.1061V3.89511C18.0463 3.7476 18.015 3.60177 17.9544 3.46729C17.8938 3.3328 17.8053 3.21273 17.6948 3.11502C17.5843 3.01732 17.4543 2.94421 17.3135 2.90054C17.1726 2.85687 17.024 2.84364 16.8777 2.86172L3.76654 4.48056C3.51457 4.51196 3.28272 4.63428 3.11453 4.82456C2.94635 5.01484 2.8534 5.25998 2.85314 5.51395V26.4873C2.8534 26.7412 2.94635 26.9864 3.11453 27.1766C3.28272 27.3669 3.51457 27.4892 3.76654 27.5206L16.8777 29.1395ZM24.0474 29.0963H22.5972C22.3516 29.0963 22.116 28.9987 21.9423 28.8249C21.7687 28.6512 21.6711 28.4156 21.6711 28.1699C21.6711 27.9242 21.7687 27.6886 21.9423 27.5149C22.116 27.3412 22.3516 27.2436 22.5972 27.2436H24.0457C24.6533 27.2436 25.1477 26.654 25.1477 25.929V21.6204C25.1477 21.3748 25.2453 21.1391 25.4189 20.9654C25.5926 20.7917 25.8282 20.6941 26.0738 20.6941C26.3195 20.6941 26.555 20.7917 26.7287 20.9654C26.9024 21.1391 27 21.3748 27 21.6204V25.929C27.0016 27.6754 25.6762 29.0963 24.0474 29.0963ZM26.0755 11.4039C25.8298 11.4039 25.5943 11.3063 25.4206 11.1325C25.2469 10.9588 25.1493 10.7232 25.1493 10.4775V6.30691C25.1493 5.5823 24.6554 4.99232 24.0474 4.99232H22.5972C22.3516 4.99232 22.116 4.89472 21.9423 4.721C21.7687 4.54727 21.6711 4.31165 21.6711 4.06597C21.6711 3.82029 21.7687 3.58467 21.9423 3.41095C22.116 3.23722 22.3516 3.13963 22.5972 3.13963H24.0457C25.6746 3.13963 27 4.56043 27 6.30691V10.4775C26.9999 10.7229 26.9025 10.9582 26.7292 11.1318C26.5559 11.3055 26.3208 11.4033 26.0755 11.4039Z" fill="white"/>
<path d="M14.9399 19C14.6906 19 14.4516 18.895 14.2753 18.708C14.099 18.5211 14 18.2675 14 18.0032V13.7695C14 13.5051 14.099 13.2516 14.2753 13.0646C14.4516 12.8777 14.6906 12.7727 14.9399 12.7727C15.1892 12.7727 15.4283 12.8777 15.6046 13.0646C15.7808 13.2516 15.8799 13.5051 15.8799 13.7695V18.0032C15.8799 18.2675 15.7808 18.5211 15.6046 18.708C15.4283 18.895 15.1892 19 14.9399 19ZM29.2828 16.8832H22.7484C22.4991 16.8832 22.26 16.7781 22.0838 16.5912C21.9075 16.4043 21.8085 16.1507 21.8085 15.8863C21.8085 15.622 21.9075 15.3684 22.0838 15.1815C22.26 14.9945 22.4991 14.8895 22.7484 14.8895H28.8838L27.7634 13.7017C27.5871 13.5148 27.4881 13.2612 27.4881 12.9968C27.4881 12.7325 27.5871 12.4789 27.7634 12.292C27.9397 12.105 28.1788 12 28.4281 12C28.6773 12 28.9164 12.105 29.0927 12.292L30.495 13.7788C30.7357 14.0327 30.8999 14.3567 30.9666 14.7097C31.0333 15.0627 30.9996 15.4287 30.8698 15.7614C30.74 16.094 30.5199 16.3782 30.2375 16.578C29.9551 16.7777 29.623 16.8839 29.2836 16.8832H29.2828Z" fill="white"/>
</svg>
