<svg width="32" height="32" viewBox="0 0 32 32" fill="none" xmlns="http://www.w3.org/2000/svg">
<g clip-path="url(#clip0_3483_390)">
<path d="M16.7919 0.129095L16.8798 0.183563L30.6466 9.79446C30.8896 9.96467 31.0456 10.2302 31.0769 10.5216L31.083 10.6319V17.4772C31.083 17.7395 30.9821 17.9918 30.8012 18.1818C30.6203 18.3717 30.3732 18.4847 30.1111 18.4974C29.8491 18.5101 29.5923 18.4215 29.3938 18.2499C29.1954 18.0784 29.0705 17.837 29.0452 17.5759L29.0404 17.4772V11.1643L16.2786 2.25471L2.72419 11.182V29.6916H12.3644C12.6266 29.6918 12.8788 29.7928 13.0686 29.9738C13.2584 30.1548 13.3714 30.4019 13.384 30.6638C13.3966 30.9258 13.3079 31.1826 13.1363 31.381C12.9648 31.5794 12.7235 31.7041 12.4624 31.7294L12.3644 31.7342H1.70292C1.44904 31.7342 1.20427 31.6396 1.01633 31.4689C0.8284 31.2982 0.710779 31.0637 0.686407 30.811L0.681641 30.7129V10.6319C0.681641 10.3228 0.821215 10.0328 1.05883 9.83939L1.14053 9.7788L15.7339 0.167903C15.8899 0.0653621 16.071 0.00752848 16.2575 0.000686468C16.444 -0.00615555 16.6289 0.0382558 16.7919 0.129095ZM23.61 19.4537C23.8009 19.6194 23.9235 19.85 23.9542 20.1009C23.9849 20.3518 23.9214 20.6052 23.7761 20.812L23.7121 20.8944L20.7048 24.3585H30.0937C30.3476 24.3586 30.5924 24.4531 30.7803 24.6238C30.9682 24.7945 31.0859 25.0291 31.1102 25.2818L31.115 25.3805C31.115 25.6343 31.0205 25.879 30.85 26.0669C30.6794 26.2548 30.445 26.3725 30.1924 26.397L30.0937 26.4018L21.0997 26.4011L23.7142 29.4343C23.8851 29.6326 23.9734 29.8889 23.9608 30.1505C23.9482 30.412 23.8356 30.6586 23.6463 30.8395C23.457 31.0204 23.2055 31.1217 22.9437 31.1225C22.6819 31.1232 22.4298 31.0234 22.2394 30.8436L22.1673 30.7681L17.8956 25.8128C17.7466 25.6401 17.6597 25.4223 17.6488 25.1944C17.638 24.9665 17.7038 24.7415 17.8357 24.5553L17.8976 24.4763L22.1693 19.5558C22.3468 19.3512 22.5983 19.2255 22.8685 19.2064C23.1387 19.1872 23.4054 19.2762 23.61 19.4537ZM11.5548 23.7614C11.8257 23.7614 12.0855 23.869 12.277 24.0606C12.4685 24.2521 12.5761 24.5119 12.5761 24.7827C12.5761 25.0536 12.4685 25.3133 12.277 25.5049C12.0855 25.6964 11.8257 25.804 11.5548 25.804H6.6779C6.40704 25.804 6.14727 25.6964 5.95574 25.5049C5.76422 25.3133 5.65662 25.0536 5.65662 24.7827C5.65662 24.5119 5.76422 24.2521 5.95574 24.0606C6.14727 23.869 6.40704 23.7614 6.6779 23.7614H11.5548ZM6.6779 16.7936H12.2513C12.5137 16.7936 12.766 16.8945 12.9559 17.0754C13.1459 17.2563 13.2589 17.5034 13.2716 17.7655C13.2843 18.0275 13.1957 18.2844 13.0241 18.4828C12.8525 18.6813 12.6112 18.8061 12.3501 18.8314L12.2513 18.8362H6.6779C6.41562 18.836 6.16345 18.735 5.97363 18.554C5.78382 18.373 5.67091 18.1259 5.65831 17.864C5.6457 17.602 5.73437 17.3452 5.90593 17.1468C6.07749 16.9485 6.3188 16.8237 6.57985 16.7984L6.6779 16.7936Z" fill="white"/>
</g>
<defs>
<clipPath id="clip0_3483_390">
<rect width="32" height="32" fill="white"/>
</clipPath>
</defs>
</svg>
