<svg width="32" height="32" viewBox="0 0 32 32" fill="none" xmlns="http://www.w3.org/2000/svg">
<g clip-path="url(#clip0_3152_7208)">
<path d="M30.7272 6.99971H13.1341C12.4324 6.99971 11.8617 6.42117 11.8617 5.70971C11.8617 4.99826 12.4324 4.41972 13.1341 4.41972H30.7272C31.4289 4.41972 31.9995 4.99826 31.9995 5.70971C31.9995 6.42117 31.4289 6.99971 30.7272 6.99971ZM30.7272 17.9999H13.1341C12.4324 17.9999 11.8617 17.4213 11.8617 16.7099C11.8617 15.9984 12.4324 15.4199 13.1341 15.4199H30.7272C31.4289 15.4199 31.9995 15.9984 31.9995 16.7099C31.9995 17.4213 31.4289 17.9999 30.7272 17.9999ZM30.7272 29H13.1341C12.4324 29 11.8617 28.4215 11.8617 27.71C11.8617 26.9986 12.4324 26.42 13.1341 26.42H30.7272C31.4289 26.42 31.9995 26.9986 31.9995 27.71C31.9995 28.4215 31.4289 29 30.7272 29ZM4.1274 9.64616C2.04923 9.64616 0.356623 7.93007 0.356623 5.82308C0.356623 3.71609 2.04923 2 4.1274 2C6.20557 2 7.89818 3.71609 7.89818 5.82308C7.89818 7.93007 6.20557 9.64616 4.1274 9.64616ZM4.1274 4.5839C3.45267 4.5839 2.90132 5.13899 2.90132 5.82699C2.90132 6.51108 3.44882 7.07007 4.1274 7.07007C4.80599 7.07007 5.35348 6.51498 5.35348 5.82699C5.34963 5.1429 4.80213 4.5839 4.1274 4.5839ZM3.07033 19.3607C2.77345 19.3607 2.47271 19.2552 2.23366 19.0402L0.498643 17.5C-0.0295742 17.0309 -0.0835529 16.2139 0.379119 15.6784C0.841792 15.1428 1.64761 15.0881 2.17583 15.5572L3.91085 17.0974C4.43907 17.5665 4.49305 18.3835 4.03037 18.919C3.7759 19.2122 3.42504 19.3607 3.07033 19.3607Z" fill="white"/>
<path d="M3.31558 19.4793C2.9499 19.4793 2.57986 19.3526 2.30125 19.0951C1.73966 18.5841 1.73966 17.7563 2.30125 17.2453L6.54579 13.3832C7.10737 12.8723 8.01723 12.8723 8.57881 13.3832C9.1404 13.8942 9.1404 14.7221 8.57881 15.2331L4.33427 19.0951C4.0513 19.3526 3.68562 19.4793 3.31558 19.4793ZM3.39395 30C3.05874 30 2.71917 29.8931 2.44926 29.6752L0.490245 28.1145C-0.106167 27.6392 -0.167114 26.8113 0.355291 26.2687C0.877696 25.726 1.78755 25.6705 2.38396 26.1459L4.34298 27.7065C4.93939 28.1819 5.00034 29.0097 4.47793 29.5524C4.19061 29.8495 3.79446 30 3.39395 30Z" fill="white"/>
<path d="M3.41134 30C3.05182 30 2.68802 29.8631 2.41409 29.5849C1.86197 29.0329 1.86197 28.1385 2.41409 27.5864L6.58713 23.414C7.13925 22.862 8.03378 22.862 8.58591 23.414C9.13803 23.9661 9.13803 24.8605 8.58591 25.4125L4.41287 29.5849C4.13467 29.8631 3.77515 30 3.41134 30Z" fill="white"/>
</g>
<defs>
<clipPath id="clip0_3152_7208">
<rect width="32" height="32" fill="white"/>
</clipPath>
</defs>
</svg>
