<svg width="32" height="32" viewBox="0 0 32 32" fill="none" xmlns="http://www.w3.org/2000/svg">
<path d="M29.5715 18.2081V4.26773C29.5715 3.01748 28.6102 2 27.4286 2H4.57145C3.3898 2 2.42858 3.01748 2.42858 4.26773V18.2081C1.59895 18.5133 1 19.3236 1 20.2829V20.421C1 21.64 1.96122 22.6316 3.14287 22.6316H4.32561L2.73971 28.0845C2.60754 28.5392 2.68915 29.0192 2.96431 29.4002C3.23914 29.7812 3.66079 30 4.12154 30C4.67083 30 5.16541 29.6848 5.41165 29.1775L8.58443 22.6316H23.6807L26.8538 29.1779C27.0997 29.6848 27.5943 30 28.1439 30C28.6043 30 29.026 29.7816 29.3008 29.4002C29.576 29.0192 29.6576 28.5396 29.5254 28.0841L27.9395 22.6316H28.8571C30.0388 22.6316 31 21.64 31 20.421V20.2829C31 19.3235 30.4011 18.5132 29.5715 18.2081ZM3.8572 4.26773C3.8572 3.82989 4.17774 3.47369 4.57149 3.47369H27.4286C27.8224 3.47369 28.1429 3.82989 28.1429 4.26773V18.0723H3.8572V4.26773ZM4.13409 28.518C4.13295 28.5204 4.13117 28.5225 4.12895 28.524C4.12674 28.5254 4.12417 28.5262 4.12154 28.5263L4.10829 28.5079L5.81728 22.6315H6.98706L4.13409 28.518ZM28.1547 28.5205C28.1505 28.5262 28.1488 28.5262 28.1439 28.5262L25.2781 22.6315H26.4475L28.1547 28.5205ZM29.5715 20.421C29.5715 20.8272 29.2509 21.1578 28.8572 21.1578H3.14287C2.74912 21.1578 2.42858 20.8272 2.42858 20.421V20.2828C2.42858 19.8766 2.74912 19.546 3.14287 19.546H28.8571C29.2509 19.546 29.5714 19.8766 29.5714 20.2828V20.421H29.5715Z" fill="white"/>
<path d="M17.6943 14.8797L25 5.90584L23.8458 5L17.4568 12.8479L12.036 8.71665L11.13 9.86267L11.1324 9.86444L7 15.1127L8.16894 16L12.2996 10.754L17.066 14.3865L17.6943 14.8797Z" fill="white"/>
</svg>
