<svg width="32" height="32" viewBox="0 0 32 32" fill="none" xmlns="http://www.w3.org/2000/svg">
<g clip-path="url(#clip0_3487_812)">
<path d="M16 4H14.6842L13.2105 6.8022C12.8421 7.57143 12.5789 8.06593 12.5263 8.28571C12.2632 7.68132 11.5263 6.25275 10.3684 4H9L11.5263 8.56044H9.42105V9.54945H11.8421V10.9231H9.42105V11.967H11.8421V14H13.0526V11.967H15.4737V10.9231H13.1053V9.54945H15.4737V8.50549H13.4737L16 4Z" fill="white" stroke="white" stroke-width="0.8"/>
<path d="M30.9868 27.7751V22.9574C30.9868 22.2615 30.7284 21.6191 30.2116 21.0838C29.7465 20.6021 29.5398 20.3344 28.9196 20.2809V5.82783C28.9713 5.39959 28.9196 5.02488 28.8163 4.65017C28.7129 4.38252 28.5579 4.11487 28.2995 3.90076C27.9377 3.68664 27.4726 3.63311 27.0592 3.68664H22.6147C22.5631 3.31193 22.5114 2.99075 22.3563 2.7231C22.0463 2.13427 21.5812 1.6525 20.961 1.38485C20.3925 1.1172 20.0824 1.01014 18.8938 1.01014H6.5424C5.76721 0.956614 4.94034 1.1172 4.21682 1.43838C3.70003 1.70603 3.23491 2.13427 2.92483 2.7231C2.61476 3.2584 2.71812 3.68664 2.56308 5.02488V20.5485C2.30468 20.7091 2.04628 20.9232 1.78788 21.1374C1.27109 21.6191 1.01269 22.315 1.01269 23.0109V27.7751C0.961011 28.4174 1.06437 29.0063 1.37445 29.5951C1.63284 30.0233 1.94292 30.398 2.40804 30.6121C2.97651 30.8798 3.59667 31.0404 4.21682 30.9869H27.8861C28.5062 31.0404 29.1264 30.9333 29.6948 30.6121C30.1083 30.398 30.47 30.0233 30.7284 29.5951C30.9351 29.0598 31.0385 28.4174 30.9868 27.7751ZM25.5605 4.59664H27.3693C27.4726 4.59664 27.6277 4.65017 27.6793 4.7037C27.8344 4.81076 27.8861 4.97135 27.8861 5.13194V20.3344H25.5605V4.59664ZM22.9765 5.13194V4.97135C23.0282 4.75723 23.1832 4.65017 23.3899 4.59664H24.2685V20.3344H22.9765V5.13194ZM3.59667 4.75723C3.59667 3.52605 3.80339 2.02721 5.66385 2.02721H19.2556C20.3925 2.08074 21.3744 2.83016 21.7362 3.84723C21.8395 4.11487 21.8912 4.43605 21.8912 4.75723L21.8395 20.2809H20.0308C19.3073 20.2274 18.6354 20.6556 18.377 21.3515C18.377 21.405 18.377 21.405 18.3253 21.4585C18.222 21.9938 17.9636 22.4756 17.6535 22.9038C17.2401 23.3856 16.6199 23.5997 15.9998 23.5997C15.3796 23.6533 14.7594 23.3856 14.2943 22.9574C13.9326 22.5827 13.6742 22.1009 13.5708 21.6191V21.5656C13.2607 20.8697 12.5889 20.3879 11.8654 20.3344L3.59667 20.2809V4.75723ZM29.9532 29.381C29.9532 29.6486 29.7465 29.9163 29.4881 29.9698H29.5398C28.9713 30.0233 28.4545 30.0233 27.8861 30.0233L3.33827 29.9163C2.97651 29.9698 2.61476 29.8092 2.35636 29.488C2.253 29.4345 2.40804 29.6486 2.35636 29.488C2.30468 29.4345 2.20132 29.0598 2.20132 29.0598C2.04628 28.6851 1.94292 28.3104 1.9946 27.8821L2.04628 22.9574V22.3686C2.09796 21.7797 2.56308 21.298 3.13155 21.3515H3.59667H11.8654C11.9171 21.3515 12.0204 21.405 12.0721 21.4585V21.5121C12.3822 22.2615 12.8473 22.9574 13.4158 23.4927C14.0876 24.2421 15.0178 24.6168 15.9998 24.5633C16.9817 24.6168 17.9119 24.2421 18.5837 23.4927C18.9972 22.9038 19.2556 22.2615 19.3589 21.5121C19.4106 21.4585 19.4623 21.405 19.5656 21.3515H28.5062C28.9713 21.3515 29.4364 21.5656 29.7465 21.9403C29.9532 22.2615 30.0566 22.6362 30.0566 22.9574L29.9532 27.7751V29.381Z" fill="white"/>
<path d="M24.2685 20.3344H22.9765V5.13194V4.97135C23.0282 4.75723 23.1832 4.65017 23.3899 4.59664H24.2685V20.3344ZM24.2685 20.3344V15.0885M2.35636 29.488C2.61476 29.8092 2.97651 29.9698 3.33827 29.9163L27.8861 30.0233C28.4545 30.0233 28.9713 30.0233 29.5398 29.9698H29.4881C29.7465 29.9163 29.9532 29.6486 29.9532 29.381V27.7751L30.0566 22.9574C30.0566 22.6362 29.9532 22.2615 29.7465 21.9403C29.4364 21.5656 28.9713 21.3515 28.5062 21.3515H19.5656C19.4623 21.405 19.4106 21.4585 19.3589 21.5121C19.2556 22.2615 18.9972 22.9038 18.5837 23.4927C17.9119 24.2421 16.9817 24.6168 15.9998 24.5633C15.0178 24.6168 14.0876 24.2421 13.4158 23.4927C12.8473 22.9574 12.3822 22.2615 12.0721 21.5121V21.4585C12.0204 21.405 11.9171 21.3515 11.8654 21.3515H3.59667M2.35636 29.488C2.253 29.4345 2.40804 29.6486 2.35636 29.488ZM2.35636 29.488C2.30468 29.4345 2.20132 29.0598 2.20132 29.0598C2.04628 28.6851 1.94292 28.3104 1.9946 27.8821L2.04628 22.9574V22.3686C2.09796 21.7797 2.56308 21.298 3.13155 21.3515H3.59667M3.59667 21.3515L4.11346 21.1374M30.9868 27.7751V22.9574C30.9868 22.2615 30.7284 21.6191 30.2116 21.0838C29.7465 20.6021 29.5398 20.3344 28.9196 20.2809V5.82783C28.9713 5.39959 28.9196 5.02488 28.8163 4.65017C28.7129 4.38252 28.5579 4.11487 28.2995 3.90076C27.9377 3.68664 27.4726 3.63311 27.0592 3.68664H22.6147C22.5631 3.31193 22.5114 2.99075 22.3563 2.7231C22.0463 2.13427 21.5812 1.6525 20.961 1.38485C20.3925 1.1172 20.0824 1.01014 18.8938 1.01014H6.5424C5.76721 0.956614 4.94034 1.1172 4.21682 1.43838C3.70003 1.70603 3.23491 2.13427 2.92483 2.7231C2.61476 3.2584 2.71812 3.68664 2.56308 5.02488V20.5485C2.30468 20.7091 2.04628 20.9232 1.78788 21.1374C1.27109 21.6191 1.01269 22.315 1.01269 23.0109V27.7751C0.961011 28.4174 1.06437 29.0063 1.37445 29.5951C1.63284 30.0233 1.94292 30.398 2.40804 30.6121C2.97651 30.8798 3.59667 31.0404 4.21682 30.9869H27.8861C28.5062 31.0404 29.1264 30.9333 29.6948 30.6121C30.1083 30.398 30.47 30.0233 30.7284 29.5951C30.9351 29.0598 31.0385 28.4174 30.9868 27.7751ZM25.5605 4.59664H27.3693C27.4726 4.59664 27.6277 4.65017 27.6793 4.7037C27.8344 4.81076 27.8861 4.97135 27.8861 5.13194V20.3344H25.5605V4.59664ZM3.59667 4.75723C3.59667 3.52605 3.80339 2.02721 5.66385 2.02721H19.2556C20.3925 2.08074 21.3744 2.83016 21.7362 3.84723C21.8395 4.11487 21.8912 4.43605 21.8912 4.75723L21.8395 20.2809H20.0308C19.3073 20.2274 18.6354 20.6556 18.377 21.3515C18.377 21.405 18.377 21.405 18.3253 21.4585C18.222 21.9938 17.9636 22.4756 17.6535 22.9038C17.2401 23.3856 16.6199 23.5997 15.9998 23.5997C15.3796 23.6533 14.7595 23.3856 14.2943 22.9574C13.9326 22.5827 13.6742 22.1009 13.5708 21.6191V21.5656C13.2607 20.8697 12.5889 20.3879 11.8654 20.3344L3.59667 20.2809V4.75723Z" stroke="white" stroke-width="0.8"/>
<path d="M18.0061 15.4902C18.0061 15.8824 17.6444 15.9804 17.231 15.9804H7.77508C7.3617 15.9804 7 15.8824 7 15.4902C7 15.098 7.3617 15 7.77508 15H17.231C17.696 15 18.0061 15.098 18.0061 15.4902ZM18.0061 17.9412C18.0061 18.3333 17.6444 18.4314 17.231 18.4314H7.77508C7.3617 18.4314 7 18.3333 7 17.9412C7 17.549 7.3617 17.451 7.77508 17.451H17.231C17.696 17.451 18.0061 17.549 18.0061 17.9412Z" fill="white"/>
<path d="M24 15.1961V20H22.7082M18.0061 15.4902C18.0061 15.8824 17.6444 15.9804 17.231 15.9804H7.77508C7.3617 15.9804 7 15.8824 7 15.4902C7 15.098 7.3617 15 7.77508 15H17.231C17.696 15 18.0061 15.098 18.0061 15.4902ZM18.0061 17.9412C18.0061 18.3333 17.6444 18.4314 17.231 18.4314H7.77508C7.3617 18.4314 7 18.3333 7 17.9412C7 17.549 7.3617 17.451 7.77508 17.451H17.231C17.696 17.451 18.0061 17.549 18.0061 17.9412Z" stroke="white" stroke-width="0.8"/>
</g>
<defs>
<clipPath id="clip0_3487_812">
<rect width="32" height="32" fill="white"/>
</clipPath>
</defs>
</svg>
