<svg width="32" height="32" viewBox="0 0 32 32" fill="none" xmlns="http://www.w3.org/2000/svg">
<path d="M6.21739 28C5.69565 28 5.34783 27.573 5.34783 27.1459V25.0107C5.34783 22.8754 6.04348 20.8256 7.26087 19.1174C8.47826 17.4093 10.1304 16.1281 12.1304 15.3594L12.4783 15.274L12.2174 15.1032C10.6522 13.9075 9.78261 12.1139 9.78261 10.2349C9.78261 6.81851 12.6522 4 16.1304 4C19.6087 4 22.4783 6.81851 22.4783 10.2349C22.4783 12.1139 21.6087 13.9075 20.0435 15.1032L19.7826 15.274L20.1304 15.3594C22.1304 16.1281 23.7826 17.4093 25 19.1174C26.2174 20.8256 26.913 22.8754 26.913 25.0107V27.1459C26.913 27.6584 26.4783 28 26.0435 28H6.21739ZM16.0435 16.2989C11.087 16.2989 7.08696 20.2278 7.08696 25.0107V26.2918H25V25.0107C25 20.2278 21 16.2989 16.0435 16.2989ZM16.0435 5.62278C13.5217 5.62278 11.4348 7.58719 11.4348 10.0641C11.4348 12.5409 13.5217 14.5053 16.0435 14.5053C18.5652 14.5053 20.6522 12.5409 20.6522 10.0641C20.6522 7.58719 18.5652 5.62278 16.0435 5.62278ZM1.86957 24.8399C1.34783 24.8399 1 24.4128 1 23.9858V22.363C1 19.2028 2.73913 16.3843 5.6087 15.0178L5.86957 14.9324L5.69565 14.7616C4.82609 13.8221 4.30435 12.6263 4.30435 11.3452C4.30435 8.52669 6.65217 6.30605 9.43478 6.22064C9.43478 6.22064 9.43478 6.30605 9.34783 6.30605C8.91304 6.90391 8.56522 7.50178 8.30435 8.18505C6.91304 8.69751 5.95652 9.89324 5.95652 11.3452C5.95652 12.7117 6.73913 13.9075 7.95652 14.4199C8.30435 14.5907 8.56522 14.847 8.56522 15.1886C8.56522 15.5302 8.30435 15.8719 7.95652 16.0427L7.86956 15.9573C4.91304 16.726 2.73913 19.2883 2.73913 22.363V23.1317H3.78261C3.69565 23.7295 3.6087 24.3274 3.6087 24.8399H1.86957ZM28.4783 24.8399C28.4783 24.242 28.3913 23.6441 28.3043 23.1317H29.3478V22.363C29.3478 19.3737 27.2609 16.726 24.2174 15.9573L24.0435 15.8719C23.6957 15.7011 23.4348 15.4448 23.4348 15.0178C23.4348 14.6762 23.6957 14.3345 24.0435 14.2491C25.2609 13.7367 26.0435 12.4555 26.0435 11.1744C26.0435 9.72242 25.087 8.44128 23.6957 8.01424C23.4348 7.33096 23.087 6.7331 22.6522 6.13523C22.6522 6.13523 22.6522 6.04982 22.5652 6.04982C25.4348 6.13523 27.6957 8.35587 27.6957 11.1744C27.6957 12.4555 27.1739 13.6512 26.3043 14.5907L26.1304 14.7616L26.3913 14.847C29.2609 16.2989 31 19.1174 31 22.1922V23.8149C31 24.3274 30.5652 24.669 30.1304 24.669H28.4783V24.8399Z" fill="white"/>
</svg>
