<svg width="32" height="32" viewBox="0 0 32 32" fill="none" xmlns="http://www.w3.org/2000/svg">
<path d="M6.03917 26.9984C5.90088 27.0064 5.76252 26.9842 5.63313 26.9333C5.50374 26.8824 5.38624 26.804 5.2883 26.7031C5.19036 26.6023 5.1142 26.4813 5.06478 26.348C5.01537 26.2148 4.99381 26.0723 5.00153 25.9299V5.20604C4.99396 4.78294 5.06931 4.36262 5.22307 3.97019C5.37683 3.57776 5.60584 3.22127 5.89643 2.92205C6.18701 2.62282 6.53319 2.387 6.91429 2.22866C7.29539 2.07033 7.70357 1.99274 8.11445 2.00053H23.8866C24.2974 1.99274 24.7056 2.07033 25.0867 2.22866C25.4678 2.387 25.814 2.62282 26.1046 2.92205C26.3952 3.22127 26.6242 3.57776 26.7779 3.97019C26.9317 4.36262 27.007 4.78294 26.9995 5.20604V23.0454C26.9995 23.3288 26.8902 23.6006 26.6956 23.8009C26.501 24.0013 26.237 24.1139 25.9618 24.1139C25.6866 24.1139 25.4227 24.0013 25.2281 23.8009C25.0335 23.6006 24.9242 23.3288 24.9242 23.0454V5.20604C24.9319 5.06364 24.9104 4.92116 24.861 4.78793C24.8115 4.65469 24.7354 4.53369 24.6374 4.43284C24.5395 4.33199 24.422 4.25356 24.2926 4.20267C24.1632 4.15179 24.0249 4.12959 23.8866 4.13754H8.11445C7.97616 4.12959 7.8378 4.15179 7.70841 4.20267C7.57902 4.25356 7.46152 4.33199 7.36358 4.43284C7.26564 4.53369 7.18948 4.65469 7.14006 4.78793C7.09064 4.92116 7.06909 5.06364 7.07681 5.20604V25.935C7.07486 26.2173 6.96476 26.4874 6.77045 26.6865C6.57613 26.8857 6.31332 26.9978 6.03917 26.9984Z" fill="white"/>
<path d="M21.0069 11.0012H10.9916C10.7286 11.0012 10.4764 10.8958 10.2904 10.7083C10.1045 10.5208 10 10.2665 10 10.0013C10 9.73615 10.1045 9.48183 10.2904 9.29432C10.4764 9.10682 10.7286 9.00147 10.9916 9.00147H21.0069C21.1391 8.99404 21.2713 9.01481 21.3949 9.06242C21.5186 9.11004 21.6309 9.18343 21.7245 9.2778C21.8181 9.37217 21.8909 9.4854 21.9381 9.61007C21.9853 9.73475 22.0059 9.86807 21.9985 10.0013C21.9979 10.2663 21.8932 10.5203 21.7074 10.7076C21.5216 10.895 21.2697 11.0006 21.0069 11.0012ZM21.0069 15.0006H10.9916C10.7286 15.0006 10.4764 14.8952 10.2904 14.7077C10.1045 14.5202 10 14.2659 10 14.0007C10 13.7356 10.1045 13.4812 10.2904 13.2937C10.4764 13.1062 10.7286 13.0009 10.9916 13.0009H21.0069C21.1391 12.9934 21.2713 13.0142 21.3949 13.0618C21.5186 13.1095 21.6309 13.1828 21.7245 13.2772C21.8181 13.3716 21.8909 13.4848 21.9381 13.6095C21.9853 13.7342 22.0059 13.8675 21.9985 14.0007C21.9979 14.2657 21.8932 14.5197 21.7074 14.707C21.5216 14.8944 21.2697 15 21.0069 15.0006ZM21.0069 19H10.9916C10.7286 19 10.4764 18.8947 10.2904 18.7071C10.1045 18.5196 10 18.2653 10 18.0001C10 17.735 10.1045 17.4807 10.2904 17.2931C10.4764 17.1056 10.7286 17.0003 10.9916 17.0003H21.0069C21.1391 16.9929 21.2713 17.0136 21.3949 17.0612C21.5186 17.1089 21.6309 17.1823 21.7245 17.2766C21.8181 17.371 21.8909 17.4842 21.9381 17.6089C21.9853 17.7336 22.0059 17.8669 21.9985 18.0001C21.9979 18.2651 21.8932 18.5191 21.7074 18.7065C21.5216 18.8938 21.2697 18.9994 21.0069 19Z" fill="#EEEEEE"/>
<path d="M25.9608 30H9.04699C7.97425 29.9985 6.94587 29.5766 6.18733 28.8268C5.42878 28.0771 5.00196 27.0606 5.00044 26.0002C4.99248 25.4728 5.09171 24.9491 5.29225 24.4603C5.49278 23.9715 5.79055 23.5274 6.16791 23.1544C6.54526 22.7814 6.99452 22.4871 7.48907 22.2889C7.98362 22.0906 8.51339 21.9926 9.04699 22.0004H25.9608C26.236 22.0004 26.4999 22.1085 26.6945 22.3009C26.8891 22.4932 26.9985 22.7541 26.9985 23.0261C26.9985 23.2982 26.8891 23.559 26.6945 23.7514C26.4999 23.9438 26.236 24.0518 25.9608 24.0518H9.04699C8.52485 24.0518 8.0241 24.2568 7.65489 24.6218C7.28569 24.9867 7.07827 25.4817 7.07827 25.9978C7.06983 26.2556 7.11498 26.5124 7.21093 26.7522C7.30688 26.9921 7.45159 27.21 7.63612 27.3924C7.82064 27.5747 8.04105 27.7178 8.28372 27.8126C8.5264 27.9075 8.78617 27.9521 9.04699 27.9438H25.9608C26.0991 27.9361 26.2375 27.9574 26.3668 28.0063C26.4962 28.0551 26.6137 28.1304 26.7117 28.2272C26.8096 28.324 26.8858 28.4402 26.9352 28.5681C26.9846 28.696 27.0062 28.8328 26.9985 28.9694C26.9988 29.1045 26.9722 29.2382 26.9202 29.3631C26.8683 29.4879 26.7919 29.6015 26.6956 29.6972C26.5992 29.7928 26.4847 29.8688 26.3586 29.9208C26.2326 29.9728 26.0974 29.9997 25.9608 30Z" fill="white"/>
</svg>
