<svg width="32" height="32" viewBox="0 0 32 32" fill="none" xmlns="http://www.w3.org/2000/svg">
<path d="M25.1432 16.0337C25.8825 16.0337 26.5507 16.4895 26.8467 17.1931L26.8556 17.2145L28.209 20.5397L29.2455 19.8892C29.4849 19.739 29.792 19.826 29.9316 20.0835C30.0691 20.3371 29.9927 20.6615 29.7618 20.8147L29.751 20.8216L29.0583 21.2563C29.3971 21.609 29.6088 22.0986 29.6137 22.6407L29.6138 22.66V24.8724C29.6138 25.894 28.8795 26.7337 27.9402 26.8298V27.5147C27.9402 28.3149 27.3684 28.9864 26.6302 28.9998L26.6078 29H26.3761C25.6346 29 25.0554 28.3364 25.0439 27.539L25.0437 27.5147V26.8389H19.5081V27.5147C19.5081 28.3149 18.9363 28.9864 18.198 28.9998L18.1756 29H17.9439C17.2024 29 16.6232 28.3364 16.6117 27.539L16.6115 27.5147V26.8298C15.6816 26.7346 14.9526 25.9107 14.9382 24.903L14.9379 24.8724V22.6601C14.9379 22.0711 15.1819 21.5427 15.5686 21.1823L14.9938 20.8216L14.983 20.8147C14.7521 20.6615 14.6757 20.3371 14.8132 20.0835C14.9512 19.829 15.2529 19.741 15.491 19.8841L15.4993 19.8892L16.3275 20.409L17.6038 17.2244C17.8899 16.5106 18.5562 16.0432 19.2976 16.0339L19.3201 16.0338L25.1432 16.0337ZM21.5678 3C23.3276 3 24.7574 4.48168 24.7858 6.32078L24.7862 6.37663V13.3887C24.7862 13.8736 24.4116 14.2666 23.9495 14.2666C23.4939 14.2666 23.1234 13.8847 23.1129 13.4094L23.1127 13.3887V6.37663C23.1127 5.49045 22.4348 4.77038 21.5934 4.75606L21.5678 4.75585H5.21838C4.37373 4.75585 3.68741 5.46707 3.67376 6.34983L3.67357 6.37663V25.4207C3.67357 26.3069 4.35144 27.027 5.19284 27.0413L5.21838 27.0415H13.7007C14.1629 27.0415 14.5375 27.4346 14.5375 27.9194C14.5375 28.3974 14.1735 28.7861 13.7205 28.7974H5.21838C3.45869 28.7974 2.02884 27.3157 2.00042 25.4766L2 25.4208V6.37663C2 4.53042 3.41225 3.03028 5.16517 3.00044L5.21838 3H21.5678ZM18.5039 26.8389H17.6156V27.5147C17.6156 27.7665 17.7703 27.9503 17.9354 27.9565L17.9439 27.9567H18.1756C18.341 27.9567 18.4985 27.7771 18.5037 27.5277L18.5039 27.5147V26.8389ZM26.9361 26.8389H26.0478V27.5147C26.0478 27.7665 26.2025 27.9503 26.3675 27.9565L26.3761 27.9567H26.6078C26.7731 27.9567 26.9307 27.7771 26.9359 27.5277L26.9361 27.5147V26.8389ZM27.9166 21.774H16.635C16.2446 21.8512 15.9481 22.2117 15.9422 22.6468L15.9421 22.66V24.8724C15.9421 25.3652 16.3149 25.7656 16.7777 25.7736L16.7917 25.7737H27.76C28.2246 25.7737 28.602 25.3782 28.6095 24.8873L28.6096 24.8724V22.66C28.6096 22.219 28.311 21.852 27.9166 21.774ZM18.4781 23.1922C18.9047 23.1922 19.2505 23.555 19.2505 24.0026C19.2505 24.4501 18.9047 24.8129 18.4781 24.8129C18.0516 24.8129 17.7057 24.4501 17.7057 24.0026C17.7057 23.555 18.0516 23.1922 18.4781 23.1922ZM26.0735 23.1922C26.5001 23.1922 26.846 23.555 26.846 24.0026C26.846 24.4501 26.5001 24.8129 26.0735 24.8129C25.647 24.8129 25.3011 24.4501 25.3011 24.0026C25.3011 23.555 25.6469 23.1922 26.0735 23.1922ZM25.1432 17.0826H19.3201C18.9803 17.0826 18.6733 17.2928 18.5383 17.6167L18.5335 17.6283L17.305 20.6935H19.9769L20.802 19.0828L20.8081 19.0713C20.9432 18.8227 21.2458 18.7298 21.4904 18.8642C21.7359 18.9992 21.831 19.3127 21.7059 19.5684L21.7014 19.5773L21.1296 20.6935H23.3884L24.2135 19.0828L24.2196 19.0713C24.3547 18.8227 24.6573 18.7298 24.9019 18.8642C25.1474 18.9992 25.2425 19.3127 25.1174 19.5684L25.1129 19.5773L24.5411 20.6935H27.1775L25.9281 17.6238C25.7982 17.3047 25.5023 17.0944 25.1713 17.0831L25.159 17.0828L25.1432 17.0826ZM14.1963 16.6398C14.6584 16.6398 15.0331 17.0328 15.0331 17.5177C15.0331 17.9956 14.6691 18.3844 14.216 18.3954L14.1963 18.3956H6.4414C5.97927 18.3956 5.60462 18.0026 5.60462 17.5177C5.60462 17.0397 5.96864 16.651 6.42168 16.64L6.4414 16.6398H14.1964L14.1963 16.6398ZM23.6413 14.4805C23.9181 14.4805 24.1425 14.7073 24.1425 14.987C24.1425 15.2628 23.9244 15.487 23.6531 15.4934L23.6413 15.4935H20.846C20.5692 15.4935 20.3448 15.2667 20.3448 14.987C20.3448 14.7113 20.5629 14.487 20.8342 14.4806L20.846 14.4805H23.6413H23.6413ZM18.5 9.787C18.9621 9.787 19.3368 10.1801 19.3368 10.6649C19.3368 11.1428 18.9727 11.5316 18.5197 11.5426L18.5 11.5428H6.44137C5.97924 11.5428 5.60459 11.1498 5.60459 10.6649C5.60459 10.187 5.96862 9.79824 6.42165 9.78723L6.44137 9.787H18.5Z" fill="white"/>
</svg>
