<svg width="32" height="32" viewBox="0 0 32 32" fill="none" xmlns="http://www.w3.org/2000/svg">
<path d="M16.8222 2.1139L16.903 2.16196L29.569 10.6419C29.7927 10.7921 29.9361 11.0264 29.9649 11.2835L29.9706 11.3808V17.4206C29.9706 17.6521 29.8778 17.8747 29.7113 18.0423C29.5448 18.2099 29.3175 18.3096 29.0764 18.3208C28.8353 18.332 28.599 18.2538 28.4164 18.1024C28.2338 17.9511 28.119 17.7381 28.0957 17.5077L28.0913 17.4206V11.8506L16.3499 3.9894L3.87924 11.8662V28.1978H12.7486C12.9899 28.1979 13.2219 28.2871 13.3966 28.4467C13.5712 28.6064 13.6751 28.8244 13.6867 29.0556C13.6983 29.2867 13.6167 29.5133 13.4588 29.6883C13.301 29.8634 13.079 29.9735 12.8388 29.9958L12.7486 30H2.93962C2.70604 30 2.48084 29.9165 2.30793 29.7659C2.13503 29.6153 2.02681 29.4084 2.00438 29.1854L2 29.0989V11.3808C2 11.1081 2.12841 10.8522 2.34703 10.6816L2.4222 10.6281L15.8487 2.14815C15.9922 2.05767 16.1588 2.00664 16.3305 2.00061C16.5021 1.99457 16.6721 2.03375 16.8222 2.1139ZM12.0038 22.9654C12.253 22.9654 12.492 23.0603 12.6682 23.2293C12.8444 23.3983 12.9434 23.6275 12.9434 23.8665C12.9434 24.1055 12.8444 24.3347 12.6682 24.5037C12.492 24.6727 12.253 24.7676 12.0038 24.7676H7.51681C7.26761 24.7676 7.02861 24.6727 6.8524 24.5037C6.67619 24.3347 6.57719 24.1055 6.57719 23.8665C6.57719 23.6275 6.67619 23.3983 6.8524 23.2293C7.02861 23.0603 7.26761 22.9654 7.51681 22.9654H12.0038ZM7.51681 16.8175H12.6446C12.886 16.8174 13.1181 16.9065 13.2929 17.0661C13.4676 17.2258 13.5716 17.4438 13.5833 17.675C13.595 17.9062 13.5134 18.1328 13.3556 18.3079C13.1977 18.483 12.9757 18.5931 12.7355 18.6155L12.6446 18.6197H7.51681C7.27551 18.6196 7.0435 18.5304 6.86886 18.3707C6.69422 18.211 6.59034 17.993 6.57875 17.7619C6.56715 17.5307 6.64873 17.3042 6.80657 17.1291C6.96442 16.9541 7.18643 16.844 7.42661 16.8217L7.51681 16.8175Z" fill="white"/>
<path d="M25.3984 16.5532C26.1376 16.5532 26.8059 17.009 27.1019 17.7126L27.1108 17.734L28.4642 21.0591L29.5007 20.4086C29.74 20.2585 30.0472 20.3455 30.1868 20.6029C30.3242 20.8565 30.2479 21.1809 30.017 21.3342L30.0062 21.3411L29.3135 21.7758C29.6523 22.1285 29.864 22.6181 29.8689 23.1602L29.869 23.1795V25.3919C29.869 26.4135 29.1347 27.2531 28.1954 27.3493V28.0342C28.1954 28.8343 27.6236 29.5059 26.8854 29.5193L26.863 29.5195H26.6313C25.8898 29.5195 25.3105 28.8559 25.299 28.0584L25.2988 28.0342V27.3584H19.7632V28.0342C19.7632 28.8343 19.1914 29.5059 18.4532 29.5193L18.4308 29.5195H18.1991C17.4576 29.5195 16.8784 28.8559 16.8668 28.0584L16.8667 28.0342V27.3493C15.9368 27.2541 15.2078 26.4302 15.1933 25.4225L15.1931 25.3919V23.1796C15.1931 22.5906 15.4371 22.0622 15.8237 21.7018L15.249 21.3411L15.2382 21.3342C15.0073 21.1809 14.9309 20.8565 15.0684 20.6029C15.2064 20.3484 15.5081 20.2605 15.7462 20.4036L15.7545 20.4086L16.5827 20.9284L17.859 17.7439C18.1451 17.03 18.8114 16.5627 19.5528 16.5534L19.5753 16.5533L25.3984 16.5532ZM18.7591 27.3584H17.8708V28.0342C17.8708 28.286 18.0255 28.4698 18.1905 28.476L18.1991 28.4762H18.4308C18.5961 28.4762 18.7537 28.2966 18.7589 28.0472L18.7591 28.0342V27.3584ZM27.1913 27.3584H26.303V28.0342C26.303 28.286 26.4577 28.4698 26.6227 28.476L26.6313 28.4762H26.863C27.0283 28.4762 27.1858 28.2966 27.1911 28.0472L27.1913 28.0342V27.3584ZM28.1718 22.2935H16.8902C16.4997 22.3706 16.2032 22.7312 16.1974 23.1663L16.1973 23.1795V25.3918C16.1973 25.8847 16.5701 26.2851 17.0329 26.2931L17.0469 26.2932H28.0152C28.4797 26.2932 28.8572 25.8977 28.8647 25.4068L28.8648 25.3919V23.1795C28.8648 22.7385 28.5662 22.3714 28.1718 22.2935ZM18.7333 23.7116C19.1599 23.7116 19.5057 24.0745 19.5057 24.522C19.5057 24.9696 19.1599 25.3324 18.7333 25.3324C18.3067 25.3324 17.9609 24.9696 17.9609 24.522C17.9609 24.0745 18.3067 23.7116 18.7333 23.7116ZM26.3287 23.7116C26.7553 23.7116 27.1011 24.0745 27.1011 24.522C27.1011 24.9696 26.7553 25.3324 26.3287 25.3324C25.9021 25.3324 25.5563 24.9696 25.5563 24.522C25.5563 24.0745 25.9021 23.7116 26.3287 23.7116ZM25.3984 17.6021H19.5753C19.2355 17.6021 18.9284 17.8123 18.7934 18.1362L18.7887 18.1478L17.5602 21.213H20.232L21.0572 19.6023L21.0633 19.5907C21.1983 19.3421 21.5009 19.2492 21.7456 19.3837C21.9911 19.5187 22.0862 19.8322 21.9611 20.0879L21.9566 20.0968L21.3847 21.213H23.6435L24.4687 19.6023L24.4748 19.5907C24.6098 19.3421 24.9124 19.2492 25.1571 19.3837C25.4025 19.5187 25.4977 19.8322 25.3725 20.0879L25.3681 20.0968L24.7962 21.213H27.4327L26.1832 18.1433C26.0534 17.8242 25.7575 17.6139 25.4265 17.6026L25.4142 17.6023L25.3984 17.6021ZM23.8965 15C24.1733 15 24.3977 15.2268 24.3977 15.5065C24.3977 15.7822 24.1796 16.0065 23.9083 16.0129L23.8965 16.013H21.1012C20.8244 16.013 20.6 15.7862 20.6 15.5065C20.6 15.2307 20.818 15.0065 21.0894 15.0001L21.1012 15H23.8965Z" fill="white"/>
</svg>
