<svg width="32" height="32" viewBox="0 0 32 32" fill="none" xmlns="http://www.w3.org/2000/svg">
<path d="M13.4762 19.4934C13.444 19.5872 13.3896 19.6712 13.3181 19.7376C11.4587 21.4734 10.3062 24.775 10.3062 28.3603C10.3067 28.4395 10.2922 28.518 10.2634 28.5913C10.2346 28.6647 10.1922 28.7314 10.1385 28.7876C10.0849 28.8438 10.021 28.8885 9.95071 28.919C9.88039 28.9496 9.80496 28.9654 9.72875 28.9656C9.65248 28.9655 9.57698 28.9497 9.50659 28.9192C9.4362 28.8887 9.37231 28.8441 9.31858 28.7878C9.26486 28.7316 9.22236 28.6649 9.19354 28.5915C9.16471 28.5181 9.15013 28.4396 9.15062 28.3603C9.15062 24.5613 10.375 21.0117 12.3625 19.0194C9.68937 17.6323 7.8525 14.7645 7.8525 11.4539C7.8525 6.786 11.4987 3 16 3C20.4981 3 24.1475 6.786 24.1475 11.4539C24.1475 14.7658 22.31 17.6336 19.635 19.02C21.625 21.0124 22.85 24.56 22.85 28.3642C22.8431 28.5187 22.7792 28.6645 22.6715 28.7713C22.5638 28.878 22.4207 28.9376 22.2719 28.9376C22.123 28.9376 21.9799 28.878 21.8723 28.7713C21.7646 28.6645 21.7007 28.5187 21.6937 28.3642C21.6937 24.775 20.5381 21.4735 18.6825 19.7409C18.6108 19.6735 18.5562 19.5887 18.5238 19.4941C17.7088 19.7687 16.8573 19.9081 16.0006 19.9071C15.1194 19.9071 14.2719 19.7616 13.4769 19.4934H13.4762ZM16 4.20658C12.1425 4.20658 9.00562 7.46007 9.00562 11.4539C9.00562 15.4503 12.1431 18.7005 16 18.7005C19.8575 18.7005 22.995 15.4503 22.995 11.4532C22.995 7.45682 19.8575 4.20658 16 4.20658ZM6.7 9.61737C6.9875 9.61737 7.22875 9.83557 7.26875 10.1434C7.27952 10.2217 7.27531 10.3014 7.25638 10.378C7.23744 10.4546 7.20414 10.5266 7.15839 10.5898C7.11265 10.6531 7.05534 10.7063 6.98977 10.7465C6.92419 10.7866 6.85164 10.813 6.77625 10.824C4.14062 11.2045 2.15562 13.5281 2.15562 16.2283C2.15562 18.1232 3.10375 19.8551 4.6925 20.8611C4.95305 21.0281 5.22698 21.1715 5.51125 21.2897L6.3925 21.6533L5.68 22.3066C5.19437 22.7528 4.75187 23.3885 4.39875 24.1529C3.83375 25.3802 3.53312 26.8394 3.53312 28.3707C3.53676 28.452 3.5245 28.5331 3.49709 28.6093C3.46968 28.6854 3.42768 28.755 3.37364 28.8139C3.3196 28.8727 3.25463 28.9195 3.18268 28.9515C3.11072 28.9835 3.03327 29 2.955 29C2.87673 29 2.79928 28.9835 2.72732 28.9515C2.65537 28.9195 2.5904 28.8727 2.53636 28.8139C2.48232 28.755 2.44032 28.6854 2.41291 28.6093C2.3855 28.5331 2.37324 28.452 2.37687 28.3707C2.37687 26.6563 2.71437 25.0172 3.35812 23.6275V23.6236C3.63937 23.0151 3.95875 22.4865 4.3225 22.0332C4.24565 21.9886 4.16959 21.9425 4.09437 21.8949C4.09437 21.8917 4.09125 21.8917 4.09125 21.8917C2.15562 20.6611 1 18.5447 1 16.225C1 12.9228 3.41437 10.0843 6.6175 9.62387C6.64375 9.62062 6.67375 9.61737 6.7 9.61737ZM25.2969 9.61737C25.3231 9.61737 25.3531 9.61737 25.3825 9.62127C28.5856 10.081 31 12.9196 31 16.2218C31 18.5414 29.8437 20.6611 27.9062 21.8884C27.83 21.9365 27.7537 21.9813 27.6775 22.0261C28.0593 22.5143 28.3831 23.0485 28.6419 23.6171V23.6204C29.2831 25.0101 29.6231 26.6492 29.6231 28.3642C29.6268 28.4455 29.6145 28.5266 29.5871 28.6028C29.5597 28.679 29.5177 28.7486 29.4636 28.8074C29.4096 28.8662 29.3446 28.913 29.2727 28.945C29.2007 28.977 29.1233 28.9935 29.045 28.9935C28.9667 28.9935 28.8893 28.977 28.8173 28.945C28.7454 28.913 28.6804 28.8662 28.6264 28.8074C28.5723 28.7486 28.5303 28.679 28.5029 28.6028C28.4755 28.5266 28.4632 28.4455 28.4669 28.3642C28.4669 26.829 28.1669 25.3731 27.5981 24.1457V24.1425C27.245 23.382 26.8025 22.7424 26.3169 22.2995L25.6037 21.6462L26.485 21.2825C26.7562 21.1721 27.0306 21.0306 27.3012 20.8578H27.3044C28.8931 19.848 29.8412 18.1193 29.8412 16.225C29.8412 13.5248 27.8562 11.2013 25.2206 10.8207C25.0687 10.7977 24.9316 10.7132 24.8395 10.5855C24.7473 10.4579 24.7075 10.2975 24.7287 10.1395C24.7463 9.99565 24.8137 9.86337 24.9182 9.7673C25.0227 9.67124 25.1573 9.61795 25.2969 9.61737ZM15.9969 16.1451C14.1806 16.1451 12.7044 14.8314 12.7044 13.2202C12.7044 12.8851 12.9619 12.615 13.2819 12.615C13.6025 12.615 13.86 12.8851 13.86 13.2202C13.86 14.1677 14.8212 14.9385 16 14.9385C17.1794 14.9385 18.14 14.1677 18.14 13.2202C18.1469 13.0658 18.2108 12.92 18.3185 12.8132C18.4262 12.7064 18.5693 12.6468 18.7181 12.6468C18.867 12.6468 19.0101 12.7064 19.1177 12.8132C19.2254 12.92 19.2893 13.0658 19.2962 13.2202C19.2925 14.8346 17.8131 16.1451 15.9963 16.1451H15.9969Z" fill="white" stroke="white" stroke-width="0.5"/>
</svg>
