<svg width="32" height="32" viewBox="0 0 32 32" fill="none" xmlns="http://www.w3.org/2000/svg">
<g clip-path="url(#clip0_4445_1756)">
<path d="M32 3.99975C32 1.78989 30.2101 0 28.0002 0C26.2323 0 24.7484 1.15593 24.2204 2.74783C21.9206 1.07993 19.1008 0.0839947 16.043 0.0839947C12.9551 0.0839947 10.1093 1.09993 7.79747 2.79782C7.2835 1.17993 5.78959 0 4.0017 0C1.79184 0 0.00195312 1.78989 0.00195312 3.99975C0.00195312 6.03762 1.52986 7.69952 3.49973 7.9495C2.60179 9.79139 2.08582 11.8533 2.08582 14.0411C2.08582 20.3647 6.29356 25.6984 12.0612 27.4143C12.0312 27.6063 12.0012 27.7983 12.0012 27.9982C12.0012 30.2081 13.7911 31.998 16.001 31.998C18.2108 31.998 20.0007 30.2081 20.0007 27.9982C20.0007 27.8063 19.9707 27.6203 19.9447 27.4343C25.7523 25.7464 30.0001 20.3947 30.0001 14.0411C30.0001 11.8513 29.4821 9.78539 28.5822 7.9415C30.512 7.65752 32 6.00962 32 3.99975ZM7.71147 5.48166C9.86734 3.38379 12.8052 2.08387 16.043 2.08387C19.2248 2.08387 22.1146 3.34179 24.2584 5.37566C24.3124 5.51965 24.3744 5.65765 24.4424 5.79364L19.8827 9.45941C18.8348 8.56146 17.4889 7.9995 16.001 7.9995C14.3951 7.9995 12.9431 8.63946 11.8672 9.66739L7.41149 6.06562C7.52548 5.87763 7.62948 5.68564 7.71147 5.48166ZM16.001 9.99937C18.2068 9.99937 20.0007 11.7933 20.0007 13.9991C20.0007 16.205 18.2068 17.9989 16.001 17.9989C13.7951 17.9989 12.0012 16.205 12.0012 13.9991C12.0012 11.7933 13.7951 9.99937 16.001 9.99937ZM2.00183 3.99975C2.00183 2.89782 2.89977 1.99987 4.0017 1.99987C5.10363 1.99987 6.00158 2.89782 6.00158 3.99975C6.00158 4.16374 5.94558 4.30973 5.90758 4.46372C5.75559 5.08568 5.34362 5.60565 4.76166 5.84563C4.52767 5.94363 4.27169 5.99962 4.0017 5.99962C2.89977 5.99962 2.00183 5.10168 2.00183 3.99975ZM12.8551 25.5544C7.80546 24.1545 4.0837 19.5308 4.0837 14.0411C4.0837 11.6353 4.80365 9.39941 6.03158 7.52153L5.96358 7.46553C6.01358 7.43753 6.06757 7.41354 6.11557 7.38354C6.08557 7.42754 6.06157 7.47553 6.03158 7.52153L10.6813 11.2793C10.2613 12.0992 10.0013 13.0152 10.0013 13.9991C10.0013 16.9689 12.1652 19.4188 14.999 19.8968L14.705 24.2305C13.9631 24.4865 13.3271 24.9484 12.8551 25.5544ZM16.001 29.9981C14.899 29.9981 14.0011 29.1002 14.0011 27.9982C14.0011 27.9403 14.0291 27.8923 14.0331 27.8383C14.1191 26.8143 14.955 25.9984 16.001 25.9984C17.0509 25.9984 17.8908 26.8203 17.9708 27.8503C17.9748 27.9023 18.0008 27.9463 18.0008 27.9982C18.0008 29.1002 17.1029 29.9981 16.001 29.9981ZM19.1608 25.5724C18.5688 24.8024 17.7128 24.2525 16.7209 24.0725L17.0049 19.8988C19.8367 19.4188 22.0006 16.9689 22.0006 13.9991C22.0006 12.8992 21.6826 11.8813 21.1666 10.9953L25.7523 7.30754L25.8543 7.22555C25.9063 7.29954 25.9603 7.37554 26.0103 7.45153C27.2642 9.34142 28.0002 11.6053 28.0002 14.0411C28.0002 19.5548 24.2444 24.1945 19.1608 25.5724ZM28.0002 5.99962C27.7662 5.99962 27.5482 5.93963 27.3382 5.86563C26.6723 5.62965 26.1983 5.05368 26.0703 4.34573C26.0483 4.22974 26.0003 4.12174 26.0003 3.99975C26.0003 2.89782 26.8983 1.99987 28.0002 1.99987C29.1021 1.99987 30.0001 2.89782 30.0001 3.99975C30.0001 5.10168 29.1021 5.99962 28.0002 5.99962Z" fill="white"/>
</g>
<defs>
<clipPath id="clip0_4445_1756">
<rect width="32" height="32" fill="white"/>
</clipPath>
</defs>
</svg>
