<svg width="12" height="14" xmlns="http://www.w3.org/2000/svg">
<path d="M1.00986 14H12C12 10.9763 10.3374 8.40062 8.01255 7.42073C9.44972 6.56683 10.3233 4.85902 9.85833 2.98323C9.52017 1.58338 8.3648 0.449509 6.94172 0.113546C4.29281 -0.502385 1.95389 1.47139 1.95389 4.00511C1.95389 5.46095 2.75701 6.73481 3.92647 7.43473C1.88344 8.27464 0.361724 10.3464 0.0094755 12.8801C-0.075064 13.4821 0.418083 14 1.00986 14ZM4.3069 8.34463L4.34917 8.33063C4.53234 8.26064 4.68733 8.13465 4.80005 7.96667C4.91277 7.79869 4.96913 7.60271 4.96913 7.42073V7.46273C4.96913 7.29475 4.92686 7.12677 4.84232 6.97278C4.75778 6.8188 4.63097 6.69281 4.47598 6.60882L4.43371 6.58083C3.50378 6.02089 2.95427 5.055 2.95427 4.00511C2.95427 2.3533 4.3069 1.00945 5.96951 1.00945C7.63212 1.00945 8.98476 2.3533 8.98476 4.00511C8.98476 5.055 8.43525 6.02089 7.50531 6.56683L7.46305 6.59482C7.32215 6.67882 7.19534 6.8048 7.09671 6.95878C7.02626 7.11277 6.98399 7.28075 6.98399 7.44873V7.40673C6.98399 7.60271 7.04035 7.78469 7.15307 7.95267C7.26579 8.12065 7.42077 8.24664 7.60394 8.31663L7.64621 8.33063C9.37927 9.07255 10.6333 10.8783 10.9292 12.9921H1.00986C1.31984 10.8783 2.55975 9.07255 4.3069 8.34463Z"/>
</svg>
