<svg width="16" height="16"  xmlns="http://www.w3.org/2000/svg">
<path d="M10.3915 12L12.126 15H10.9695L9.23499 12H6.76599L5.0315 15H3.875L5.6095 12H2.5C2.35401 12 2.23413 11.9532 2.14051 11.8595C2.04688 11.7658 2 11.646 2 11.5V3H1C0.854004 3 0.734131 2.95317 0.640503 2.8595C0.546875 2.76584 0.5 2.646 0.5 2.5C0.5 2.354 0.546875 2.23416 0.640503 2.1405C0.734131 2.04683 0.854004 2 1 2H15C15.146 2 15.2659 2.04683 15.3595 2.1405C15.4531 2.23416 15.5 2.354 15.5 2.5C15.5 2.646 15.4531 2.76584 15.3595 2.8595C15.2659 2.95317 15.146 3 15 3H14V11.5C14 11.646 13.9531 11.7658 13.8595 11.8595C13.7659 11.9532 13.646 12 13.5 12H10.3905H10.3915ZM13.001 3H3.00098V11H13.001V3ZM5.50098 7C5.64698 7 5.76685 7.04683 5.86048 7.1405C5.95423 7.23416 6.00098 7.354 6.00098 7.5V8.5C6.00098 8.646 5.95423 8.76584 5.86048 8.8595C5.76685 8.95317 5.64698 9 5.50098 9C5.35498 9 5.23511 8.95317 5.14148 8.8595C5.04786 8.76584 5.00098 8.646 5.00098 8.5V7.5C5.00098 7.354 5.04786 7.23416 5.14148 7.1405C5.23511 7.04683 5.35498 7 5.50098 7ZM8.00098 6C8.14698 6 8.26685 6.04683 8.36048 6.1405C8.45423 6.23416 8.50098 6.354 8.50098 6.5V8.5C8.50098 8.646 8.45423 8.76584 8.36048 8.8595C8.26685 8.95317 8.14698 9 8.00098 9C7.85498 9 7.73511 8.95317 7.64148 8.8595C7.54786 8.76584 7.50098 8.646 7.50098 8.5V6.5C7.50098 6.354 7.54786 6.23416 7.64148 6.1405C7.73511 6.04683 7.85498 6 8.00098 6ZM10.501 5C10.647 5 10.7669 5.04683 10.8605 5.1405C10.9542 5.23416 11.001 5.354 11.001 5.5V8.5C11.001 8.646 10.9542 8.76584 10.8605 8.8595C10.7669 8.95317 10.647 9 10.501 9C10.355 9 10.2351 8.95317 10.1415 8.8595C10.0479 8.76584 10.001 8.646 10.001 8.5V5.5C10.001 5.354 10.0479 5.23416 10.1415 5.1405C10.2351 5.04683 10.355 5 10.501 5Z"/>
</svg>
