<svg width="36" height="36" viewBox="0 0 36 36" fill="none" xmlns="http://www.w3.org/2000/svg">
<rect x="1" y="1" width="34" height="34" rx="4" fill="#FFF9F0" stroke="#FAC06A"/>
<path d="M9.516 11.144L10.356 10.676C10.608 11.024 10.92 11.48 11.28 12.056C11.64 12.62 11.928 13.124 12.156 13.556L11.316 14.216C11.184 13.916 10.992 13.556 10.74 13.124C10.152 13.4 9.324 13.772 8.268 14.216C7.944 14.36 7.632 14.516 7.308 14.684L6.744 13.76C7.08 13.556 7.164 13.352 7.164 13.052V4.868H11.604V10.448H8.16V13.112L10.2 12.212C9.888 11.708 9.66 11.348 9.516 11.144ZM12.48 15.116V5.084H16.56V12.044C16.56 13.1 16.296 13.376 15.204 13.472L14.58 13.532L14.232 12.416L14.82 12.344C15.468 12.272 15.504 12.2 15.504 11.696V6.224H13.524V15.116H12.48ZM8.16 7.184H10.596V5.84H8.16V7.184ZM10.596 8.12H8.16V9.476H10.596V8.12ZM22.3365 7.952L21.7485 7.136C22.3365 6.752 22.9125 6.296 23.4525 5.768C24.0045 5.228 24.4485 4.7 24.7965 4.172L25.7445 4.64C25.5285 4.94 25.3245 5.216 25.1205 5.468H28.6485V6.5C28.0245 7.328 27.2445 8.036 26.3085 8.624C25.3845 9.2 24.1365 9.752 22.5645 10.28L22.0965 9.38C23.4525 8.96 24.5325 8.528 25.3485 8.06C26.1765 7.592 26.8845 7.016 27.4845 6.332H24.3285L23.9925 6.656C24.4845 6.98 24.8925 7.304 25.2285 7.604L24.5805 8.444C24.3045 8.144 23.8485 7.76 23.2125 7.316C22.8885 7.568 22.5885 7.784 22.3365 7.952ZM20.6205 9.728V4.472L21.6645 4.508V15.14H20.6205V11.048C19.6485 11.876 19.0005 12.404 18.6765 12.656L18.1485 11.648C18.3285 11.528 18.6885 11.264 19.2045 10.856C19.7205 10.448 20.2005 10.076 20.6205 9.728ZM20.4885 9.032L19.5405 9.488C19.4205 9.02 19.2525 8.456 19.0365 7.82C18.8325 7.184 18.6285 6.62 18.4365 6.128L19.3605 5.768C19.5405 6.212 19.7445 6.74 19.9605 7.364C20.1765 7.976 20.3565 8.54 20.4885 9.032ZM27.6645 10.292H29.0565V11.264H27.6645V13.532C27.6645 14.66 27.3645 14.912 26.0565 15.032L25.3365 15.08L25.0005 14.096L25.7685 14.06C26.5005 14.012 26.6085 13.892 26.6085 13.328V11.264H23.5845C23.8605 11.504 24.1485 11.792 24.4605 12.116C24.7845 12.44 25.0365 12.716 25.2165 12.944L24.4845 13.784C24.2925 13.508 24.0165 13.184 23.6565 12.788C23.2965 12.392 22.9845 12.08 22.7325 11.852L23.2965 11.264H21.9525V10.292H26.6085V8.84L27.6645 8.888V10.292ZM13.752 30.904C15.036 30.904 16.212 30.868 17.268 30.808L17.028 31.84C15.828 31.9 14.712 31.936 13.68 31.936C12.936 31.936 12.18 31.924 11.412 31.9C10.476 31.876 9.756 31.744 9.24 31.492C8.736 31.24 8.328 30.808 8.004 30.196C7.848 30.784 7.62 31.456 7.296 32.188L6.372 31.852C6.648 31.252 6.852 30.736 6.996 30.292C7.284 29.416 7.416 28.444 7.416 26.908L8.352 26.956C8.352 27.568 8.328 28.12 8.28 28.612C8.46 29.344 8.748 29.872 9.132 30.196V26.248H6.792V25.288H8.88V23.776H7.176V22.816H8.88V21.4L9.888 21.46V22.816H11.328V23.776H9.888V25.288H11.34V25.672C12.204 24.94 12.72 24.016 12.876 22.888H11.532V21.928H16.452C16.452 22.06 16.416 22.492 16.356 23.404C16.32 23.848 16.296 24.184 16.296 24.364C16.224 25.432 15.972 25.648 14.808 25.768L14.208 25.816L13.872 24.784L14.412 24.748C15.072 24.712 15.252 24.544 15.288 24.004C15.312 23.416 15.336 23.044 15.348 22.888H13.812C13.716 23.524 13.548 24.124 13.296 24.676C13.056 25.216 12.636 25.804 12.036 26.428L11.34 25.72V26.248H10.14V27.856H11.436V28.84H10.14V30.712C10.488 30.808 10.956 30.868 11.52 30.88C12.024 30.892 12.768 30.904 13.752 30.904ZM16.296 26.452V30.04H11.856V26.452H16.296ZM15.288 29.08V27.388H12.852V29.08H15.288ZM23.3445 23.5V28.324H24.1965V29.224H18.3765V28.324H19.5045V23.5H18.6765V22.576H19.5045V21.484L20.4765 21.532V22.576H22.3725V21.484L23.3445 21.532V22.576H24.1845V23.5H23.3445ZM24.6285 25.972V21.976H28.4205V30.652C28.4205 31.732 28.1685 31.9 27.0885 32.02L26.5245 32.08L26.1765 31.06L26.8245 31C27.3885 30.952 27.4485 30.892 27.4485 30.376V28.648H25.5405C25.4805 29.404 25.3605 30.04 25.1565 30.544C24.9525 31.048 24.6045 31.624 24.1125 32.272L23.1765 31.636C23.6685 31.06 24.0045 30.556 24.1965 30.136C24.3885 29.704 24.5085 29.212 24.5565 28.672C24.6045 28.12 24.6285 27.22 24.6285 25.972ZM25.6005 24.832H27.4485V23.008H25.6005V24.832ZM20.4765 24.496H22.3725V23.5H20.4765V24.496ZM22.3725 26.404V25.396H20.4765V26.404H22.3725ZM25.5885 27.664H27.4485V25.816H25.6005V26.488C25.6005 27.028 25.6005 27.424 25.5885 27.664ZM22.3725 28.324V27.292H20.4765V28.324H22.3725ZM21.6165 29.992L22.2885 29.32C22.7805 29.74 23.2365 30.148 23.6445 30.568L22.9725 31.348C22.6005 30.88 22.1565 30.424 21.6165 29.992ZM19.1085 32.188L18.3405 31.42C19.0125 30.904 19.7445 30.112 20.2605 29.356L21.0885 29.956C20.5125 30.736 19.7445 31.576 19.1085 32.188Z" fill="#FAC06A"/>
</svg>
