<svg width="58" height="58" viewBox="0 0 58 58" fill="none" xmlns="http://www.w3.org/2000/svg">
<circle cx="29" cy="29" r="27" fill="white" stroke="#86A8FE" stroke-width="4"/>
<path d="M33.9663 15C34.3494 15 34.7152 15.1638 34.9718 15.4508C35.2025 15.7087 35.2866 16.0655 35.1994 16.398L35.1761 16.474L33.4038 21.5814H33.4119L36.631 34.7118C36.7393 35.1535 36.7192 35.6173 36.5731 36.0478C36.427 36.4784 36.1611 36.8577 35.807 37.1406L28.9618 42.6093C28.6456 42.8619 28.2537 42.9994 27.8499 42.9994C27.4461 42.9994 27.0542 42.8619 26.7379 42.6093L19.8927 37.1406C19.5553 36.8711 19.2976 36.5137 19.1476 36.1073C18.9977 35.7009 18.9611 35.2609 19.0419 34.8351L19.0687 34.7118L22.2879 21.5814H22.2955L20.5236 16.474C20.4635 16.3007 20.4507 16.1143 20.4867 15.9343C20.5226 15.7543 20.6059 15.5874 20.7279 15.4508C20.8548 15.3089 21.01 15.1954 21.1833 15.1178C21.3566 15.0401 21.5442 15 21.7339 15H33.9658H33.9663ZM31.1786 29.7065C31.0933 29.5726 30.9586 29.4782 30.8042 29.4441C30.6497 29.41 30.4882 29.439 30.355 29.5248L25.3438 32.7504C25.0625 32.9314 24.831 33.1808 24.6706 33.4755C24.5102 33.7702 24.426 34.1008 24.4259 34.4369C24.4259 34.5445 24.4547 34.6503 24.5092 34.7429C24.5638 34.8356 24.6421 34.9118 24.7359 34.9635C24.8298 35.0152 24.9358 35.0406 25.0427 35.0369C25.1497 35.0332 25.2537 35.0006 25.3438 34.9426L30.355 31.7165C30.6362 31.5354 30.8677 31.286 31.028 30.9913C31.1884 30.6966 31.2724 30.366 31.2725 30.0301C31.2725 29.9153 31.2398 29.8033 31.1786 29.7065ZM31.1786 23.9729C31.0933 23.8388 30.9587 23.7443 30.8043 23.7102C30.6498 23.676 30.4882 23.7049 30.355 23.7906L25.3443 27.0159C25.063 27.1969 24.8314 27.4462 24.671 27.7409C24.5106 28.0356 24.4265 28.3662 24.4264 28.7023C24.4264 28.81 24.4551 28.9157 24.5097 29.0083C24.5642 29.101 24.6425 29.1772 24.7364 29.2289C24.8303 29.2806 24.9362 29.306 25.0432 29.3023C25.1501 29.2986 25.2541 29.2661 25.3443 29.208L30.3554 25.9819C30.6367 25.8008 30.8681 25.5515 31.0285 25.2567C31.1888 24.962 31.2729 24.6315 31.2729 24.2955C31.2729 24.1807 31.2403 24.0687 31.179 23.9724L31.1786 23.9729Z" fill="#86A8FE"/>
<path d="M38.233 32.3487L40.0027 28.49L35.5781 23.4434L38.233 32.3487Z" fill="#86A8FE"/>
</svg>
